<svg width="582" height="115" viewBox="0 0 582 115" fill="none" xmlns="http://www.w3.org/2000/svg">
<g clip-path="url(#clip0_64_107)">
<path d="M187.829 63.0674C187.836 68.9471 190.186 74.5842 194.363 78.7418C198.54 82.8995 204.203 85.2383 210.11 85.245H215.577C221.483 85.2382 227.146 82.8995 231.323 78.7418C235.5 74.5841 237.848 68.9471 237.855 63.0674V31.0845C237.854 30.5886 237.656 30.1132 237.304 29.7626C236.952 29.412 236.474 29.2147 235.976 29.2141H227.442C226.944 29.2147 226.466 29.412 226.114 29.7626C225.762 30.1133 225.564 30.5888 225.563 31.0847V64.3506C225.549 67.7196 224.211 70.9492 221.833 73.347C219.455 75.7448 216.229 77.1201 212.845 77.178C209.46 77.1208 206.233 75.7459 203.855 73.348C201.477 70.9501 200.135 67.7202 200.121 64.3506V31.0846C200.121 30.5887 199.923 30.1133 199.57 29.7627C199.218 29.4121 198.742 29.2148 198.244 29.2142H189.709C189.21 29.2148 188.733 29.4121 188.38 29.7627C188.028 30.1133 187.83 30.5887 187.829 31.0846V63.0674Z" fill="#26272B"/>
<path d="M312.025 29.2141H303.491C302.993 29.2146 302.516 29.4118 302.163 29.7625C301.811 30.1131 301.613 30.5885 301.612 31.0845V63.0674C301.619 68.9471 303.969 74.5842 308.146 78.7418C312.323 82.8995 317.986 85.2383 323.893 85.245H329.358C335.265 85.2382 340.927 82.8994 345.104 78.7417C349.281 74.5841 351.631 68.9471 351.638 63.0674V31.0845C351.637 30.5886 351.439 30.1132 351.087 29.7626C350.735 29.412 350.257 29.2147 349.759 29.2141H341.225C340.727 29.2147 340.249 29.412 339.897 29.7626C339.545 30.1133 339.347 30.5887 339.346 31.0847V64.3506C339.332 67.7196 337.993 70.9491 335.616 73.347C333.238 75.7448 330.012 77.1201 326.628 77.178C323.243 77.1208 320.014 75.7459 317.636 73.348C315.258 70.9501 313.918 67.7202 313.904 64.3506V31.0846C313.904 30.5888 313.706 30.1134 313.353 29.7627C313.001 29.4121 312.523 29.2148 312.025 29.2141V29.2141Z" fill="#26272B"/>
<path d="M132.955 45.68V85.2449H137.03C139.208 85.2425 141.297 84.38 142.838 82.8468C144.378 81.3136 145.244 79.2349 145.246 77.0667V63.2158C145.246 63.184 145.259 63.1536 145.282 63.1311C145.304 63.1087 145.334 63.0961 145.366 63.0961H172.748C174.905 63.0937 176.976 62.2477 178.513 60.7403C180.05 59.233 180.928 57.1851 180.962 55.0379L145.366 55.0377C145.334 55.0377 145.304 55.0251 145.282 55.0027C145.259 54.9802 145.246 54.9498 145.246 54.9181V45.0642C145.249 42.9983 146.074 41.0178 147.541 39.5571C149.009 38.0964 151 37.2748 153.075 37.2725H172.748C174.905 37.27 176.976 36.4239 178.513 34.9166C180.05 33.4092 180.928 31.3613 180.962 29.2141H149.496C145.11 29.2191 140.905 30.9554 137.804 34.0423C134.703 37.1292 132.96 41.3145 132.955 45.68V45.68Z" fill="#26272B"/>
<path d="M244.722 31.0843V35.4019C244.722 35.8978 244.92 36.3733 245.273 36.724C245.625 37.0746 246.103 37.272 246.601 37.2725H263.405C263.437 37.2725 263.467 37.2851 263.489 37.3076C263.512 37.33 263.525 37.3604 263.525 37.3922V83.3747C263.525 83.8706 263.725 84.346 264.077 84.6967C264.43 85.0473 264.907 85.2445 265.405 85.245H273.939C274.437 85.2444 274.915 85.0472 275.267 84.6966C275.619 84.3459 275.818 83.8706 275.818 83.3747V37.3922C275.818 37.3604 275.831 37.33 275.853 37.3076C275.876 37.2851 275.906 37.2725 275.937 37.2725H286.406C288.564 37.2701 290.633 36.424 292.17 34.9166C293.706 33.4093 294.587 31.3613 294.621 29.2141H246.601C246.103 29.2147 245.625 29.4119 245.273 29.7625C244.92 30.1131 244.722 30.5884 244.722 31.0843V31.0843Z" fill="#26272B"/>
<path d="M431.852 29.2141H423.278C422.778 29.2147 422.299 29.4129 421.945 29.7653C421.591 30.1176 421.391 30.5953 421.39 31.0936V62.9654C421.397 68.8725 423.758 74.5357 427.954 78.7127C432.15 82.8897 437.84 85.2393 443.774 85.2461H449.265C455.2 85.2393 460.889 82.8897 465.086 78.7127C469.282 74.5357 471.642 68.8725 471.649 62.9654V31.0936C471.649 30.5953 471.449 30.1176 471.095 29.7653C470.741 29.4129 470.26 29.2147 469.76 29.2141H461.187C460.687 29.2147 460.206 29.4129 459.852 29.7653C459.498 30.1176 459.3 30.5954 459.299 31.0937V64.2545C459.285 67.639 457.938 70.8834 455.55 73.2922C453.162 75.701 449.921 77.0826 446.521 77.1408C443.121 77.0833 439.879 75.702 437.489 73.2931C435.1 70.8843 433.754 67.6395 433.74 64.2545V31.0937C433.74 30.5954 433.541 30.1176 433.187 29.7653C432.834 29.4129 432.353 29.2147 431.852 29.2141V29.2141Z" fill="#26272B"/>
<path d="M493.106 29.2141H484.532C484.032 29.2147 483.551 29.4129 483.197 29.7653C482.843 30.1176 482.645 30.5954 482.644 31.0937V68.7036C482.649 73.0894 484.401 77.2941 487.517 80.3954C490.632 83.4966 494.857 85.2411 499.263 85.2461H528.873C528.839 83.0888 527.955 81.0312 526.412 79.5167C524.868 78.0022 522.788 77.152 520.62 77.1494H502.858C500.773 77.1471 498.774 76.3217 497.3 74.8543C495.825 73.387 494.997 71.3975 494.994 69.3224V31.0937C494.994 30.5954 494.794 30.1177 494.44 29.7653C494.086 29.413 493.607 29.2147 493.106 29.2141V29.2141Z" fill="#26272B"/>
<path d="M546.234 29.2141H537.66C537.159 29.2147 536.678 29.4129 536.324 29.7653C535.97 30.1176 535.772 30.5954 535.772 31.0937V68.7036C535.777 73.0894 537.528 77.2941 540.644 80.3954C543.759 83.4966 547.984 85.2411 552.39 85.2461H582C581.966 83.0888 581.081 81.0312 579.537 79.5166C577.993 78.0021 575.915 77.152 573.747 77.1494H555.983C553.899 77.1471 551.901 76.3217 550.427 74.8543C548.953 73.387 548.124 71.3975 548.121 69.3224V31.0937C548.121 30.5954 547.921 30.1177 547.567 29.7653C547.213 29.413 546.734 29.2147 546.234 29.2141V29.2141Z" fill="#26272B"/>
<path d="M407.716 56.174C410.515 53.2141 412.074 49.3018 412.072 45.2366V45.2366C412.072 36.3877 404.866 29.2141 398.398 29.2141H365.493C365.25 29.2141 365.01 29.2617 364.786 29.354C364.562 29.4464 364.357 29.5818 364.186 29.7524C364.014 29.9231 363.878 30.1257 363.786 30.3487C363.693 30.5717 363.645 30.8108 363.645 31.0522V83.4078C363.645 83.8953 363.839 84.3628 364.186 84.7075C364.532 85.0522 365.003 85.2458 365.493 85.2458H398.398C402.667 85.2458 406.762 83.5577 409.781 80.5529C412.8 77.5481 414.495 73.4728 414.495 69.2234C414.495 66.6673 413.88 64.1484 412.7 61.8779C411.521 59.6075 409.811 57.6515 407.716 56.174V56.174ZM375.997 37.2726H391.722C393.844 37.2726 395.878 38.1116 397.379 39.6051C398.879 41.0987 399.723 43.1243 399.723 45.2365V45.2365C399.723 46.2823 399.516 47.3179 399.114 48.2842C398.712 49.2504 398.122 50.1283 397.379 50.8678C396.636 51.6073 395.754 52.194 394.784 52.5942C393.813 52.9944 392.773 53.2004 391.722 53.2004H375.997V37.2726ZM402.145 69.2232C402.145 70.269 401.937 71.3046 401.535 72.2708C401.133 73.2371 400.544 74.115 399.802 74.8545C399.059 75.5941 398.176 76.1807 397.205 76.5809C396.234 76.9811 395.194 77.1871 394.143 77.187H375.997V61.2591H394.143C395.194 61.2591 396.234 61.4651 397.205 61.8653C398.176 62.2656 399.059 62.8522 399.802 63.5917C400.544 64.3312 401.133 65.2091 401.535 66.1754C401.937 67.1416 402.145 68.1772 402.145 69.223V69.2232Z" fill="#26272B"/>
<path d="M48.4289 69.0193C46.2018 69.0193 44.0649 68.1387 42.49 66.5712C40.9152 65.0036 40.0303 62.8776 40.0302 60.6607C40.0303 58.4438 40.9152 56.3177 42.49 54.7502C44.0649 53.1826 46.2018 52.302 48.4289 52.302C49.5317 52.302 50.6225 52.5182 51.6414 52.9382C52.6602 53.3582 53.5863 53.9739 54.3661 54.7501C55.1459 55.5263 55.7652 56.4478 56.1872 57.4619C56.6092 58.476 56.8258 59.563 56.8258 60.6607C56.8258 61.7584 56.6092 62.8453 56.1872 63.8594C55.7652 64.8736 55.1459 65.795 54.3661 66.5712C53.5863 67.3474 52.6602 67.963 51.6414 68.3831C50.6225 68.8031 49.5317 69.0193 48.4289 69.0193V69.0193ZM114.988 57.23C114.988 72.4083 108.931 86.9649 98.149 97.6976C87.3667 108.43 72.7427 114.46 57.4943 114.46C55.7397 114.46 54.0051 114.377 52.2905 114.224V105.125L49.4763 103.508L49.4851 103.493C46.8877 101.995 44.7627 99.8049 43.348 97.1695L50.6764 101.382C53.7985 103.176 57.5088 103.662 60.991 102.733C64.4732 101.805 67.4415 99.5369 69.244 96.4292L86.0624 67.4345C87.8649 64.3268 88.3534 60.6337 87.4204 57.1675C86.4873 53.7014 84.2087 50.7461 81.0867 48.9518L56.5609 34.857L48.7114 30.3456L42.5514 26.8054L40.9671 25.8951C40.3651 25.5492 39.8399 25.0861 39.4214 24.5336C39.003 23.9811 38.7004 23.3503 38.5319 22.679C38.3635 22.0077 38.3323 21.3095 38.4407 20.626C38.549 19.9425 38.7939 19.2877 39.1618 18.7006L39.2477 18.5833C42.9475 13.5766 47.9091 9.63005 53.6309 7.14189L54.8187 6.62534L53.3643 6.55248C48.4449 6.306 43.5286 7.08144 38.9267 8.82942C34.3248 10.5774 30.1387 13.2596 26.6348 16.7056L25.9243 17.4042C24.4373 18.8666 23.3085 20.6508 22.6276 22.618C21.9467 24.5853 21.7313 26.6824 21.9977 28.7461C22.2642 30.8098 23.006 32.7846 24.1645 34.5165C25.323 36.2484 26.8669 37.6907 28.677 38.7313L33.8861 41.7256L21.0521 63.854H0.384352C0.128519 61.6552 0.00113223 59.4435 0.00012207 57.23C0.00012207 42.0517 6.05732 27.495 16.8396 16.7623C27.6218 6.02957 42.2459 0 57.4943 0C72.7427 -1.89717e-05 87.3667 6.02954 98.149 16.7622C108.931 27.4949 114.988 42.0515 114.988 57.2298V57.23ZM108.334 63.7376C109.681 58.8335 109.949 53.6978 109.12 48.681C108.291 43.6642 106.383 38.8847 103.528 34.6689L103.06 33.9779L103.17 34.8296C103.981 41.1418 103.064 47.5548 100.516 53.3911L100.402 53.6496C100.076 54.262 99.6299 54.8028 99.0894 55.2395C98.5489 55.6763 97.925 56.0001 97.256 56.1917C96.5869 56.3833 95.8855 56.4387 95.1945 56.3545C94.5034 56.2703 93.8376 56.0484 93.2347 55.7019L88.4573 52.9569C89.7306 55.3434 90.3743 58.013 90.3258 60.7148C90.2773 63.4165 89.5382 66.0615 88.1801 68.4011L86.3116 71.6245L88.2081 72.7151C90.0074 73.7492 92.0214 74.3587 94.0944 74.4967C96.1674 74.6347 98.2451 74.2975 100.167 73.5111C102.088 72.7247 103.803 71.5099 105.179 69.9604C106.555 68.4108 107.556 66.5677 108.104 64.5728L108.334 63.7376Z" fill="#FF6900"/>
<path d="M17.3335 98.1777L17.333 98.1775L17.3335 98.1777Z" fill="white"/>
<path d="M103.529 34.669L103.06 33.978L103.171 34.8297C103.981 41.142 103.064 47.5549 100.516 53.3912L100.402 53.6497C100.076 54.2621 99.6304 54.8029 99.0899 55.2397C98.5493 55.6764 97.9255 56.0003 97.2564 56.1918C96.5874 56.3834 95.886 56.4388 95.1949 56.3546C94.5039 56.2705 93.8381 56.0485 93.2352 55.702L88.4595 52.957C89.7328 55.3435 90.3748 58.0132 90.3263 60.7149C90.2777 63.4166 89.5387 66.0616 88.1805 68.4013L86.312 71.6246L88.2086 72.7152C90.0079 73.7493 92.0218 74.3589 94.0949 74.4968C96.1679 74.6348 98.2455 74.2977 100.167 73.5112C102.089 72.7248 103.804 71.51 105.18 69.9605C106.556 68.4109 107.556 66.5678 108.104 64.573L108.334 63.7377C109.682 58.8337 109.949 53.6979 109.12 48.6811C108.291 43.6644 106.384 38.8848 103.529 34.669V34.669Z" fill="white"/>
<path d="M52.2909 105.126L49.4768 103.509L49.4855 103.493C46.8881 101.995 44.7631 99.8052 43.3484 97.1697L50.6768 101.382C53.7989 103.176 57.5092 103.662 60.9914 102.734C64.4736 101.805 67.4419 99.5371 69.2444 96.4294L86.0628 67.4348C87.8653 64.3271 88.3538 60.6339 87.4208 57.1678C86.4878 53.7016 84.2091 50.7463 81.0871 48.952L56.5613 34.8572L48.7118 30.3458L42.5518 26.8056L40.9675 25.8954C40.3655 25.5494 39.8403 25.0864 39.4219 24.5338C39.0034 23.9813 38.7008 23.3506 38.5323 22.6793C38.3639 22.0079 38.3328 21.3097 38.4411 20.6262C38.5494 19.9427 38.7943 19.288 39.1622 18.7009L39.2482 18.5836C42.9479 13.5769 47.9095 9.6303 53.6314 7.14214L54.8191 6.62559L53.3647 6.55273C48.4453 6.30625 43.529 7.08169 38.9271 8.82967C34.3252 10.5777 30.1391 13.2599 26.6352 16.7058L25.9247 17.4044C24.4377 18.8668 23.3089 20.6511 22.628 22.6183C21.9471 24.5855 21.7317 26.6826 21.9982 28.7463C22.2646 30.8101 23.0064 32.7848 24.1649 34.5167C25.3235 36.2485 26.8673 37.6909 28.6774 38.7315L33.8865 41.7259L21.0525 63.8542H0.384766C1.89963 76.8952 7.88567 89.0175 17.333 98.1775L17.3348 98.1782C26.7791 107.379 39.127 113.048 52.2892 114.224H52.2909V105.126V105.126ZM40.0307 60.6607C40.0307 58.4438 40.9156 56.3177 42.4904 54.7502C44.0653 53.1826 46.2022 52.3021 48.4293 52.3021C49.5321 52.3021 50.6229 52.5182 51.6418 52.9383C52.6606 53.3583 53.5867 53.974 54.3665 54.7502C55.1463 55.5264 55.7656 56.4478 56.1876 57.4619C56.6097 58.4761 56.8262 59.563 56.8263 60.6607C56.8262 61.7584 56.6097 62.8454 56.1876 63.8595C55.7656 64.8737 55.1463 65.7951 54.3665 66.5713C53.5867 67.3474 52.6606 67.9631 51.6418 68.3832C50.6229 68.8032 49.5321 69.0194 48.4293 69.0194C46.2022 69.0194 44.0652 68.1387 42.4904 66.5712C40.9156 65.0036 40.0307 62.8776 40.0307 60.6607V60.6607Z" fill="white"/>
</g>
<defs>
<clipPath id="clip0_64_107">
<rect width="582" height="114.46" fill="white"/>
</clipPath>
</defs>
</svg>
