<svg width="500" height="94" viewBox="0 0 500 94" fill="none" xmlns="http://www.w3.org/2000/svg">
<path d="M165.542 47.8031L165.458 73.521C165.458 74.3981 166.172 75.1092 167.053 75.1092H174.388C175.269 75.1092 175.984 74.3981 175.984 73.521L176.082 45.5322C176.082 41.5389 179.334 38.3017 183.347 38.3017C187.359 38.3017 190.611 41.5389 190.611 45.5322L190.513 73.5349C190.521 74.4089 191.231 75.1156 192.109 75.1231H199.444C199.867 75.1307 200.275 74.9677 200.575 74.6712C200.876 74.3747 201.043 73.97 201.039 73.5489L201.123 47.8309C201.147 38.2855 193.399 30.5244 183.808 30.486H182.983C178.373 30.4675 173.945 32.2732 170.674 35.5055C167.403 38.7378 165.556 43.1317 165.542 47.7195" fill="#26272B"/>
<path d="M190.596 47.8858L190.512 73.6037C190.52 74.4777 191.23 75.1843 192.108 75.1919H199.443C199.866 75.1994 200.274 75.0364 200.574 74.74C200.875 74.4435 201.042 74.0387 201.038 73.6176L201.136 45.6149C201.136 41.6216 204.389 38.3844 208.401 38.3844C212.413 38.3844 215.666 41.6216 215.666 45.6149L215.582 73.6037C215.574 74.0247 215.738 74.431 216.036 74.7301C216.334 75.0292 216.74 75.1957 217.164 75.1919H224.498C224.92 75.1956 225.326 75.0314 225.626 74.7357C225.925 74.4401 226.094 74.0376 226.094 73.6176L226.178 47.8997C226.193 43.3143 224.377 38.9108 221.13 35.658C217.883 32.4052 213.47 30.5695 208.863 30.5547H208.037C198.439 30.5316 190.635 38.2491 190.596 47.8022" fill="#26272B"/>
<path fill-rule="evenodd" clip-rule="evenodd" d="M231.989 53.2791V52.7497C232.007 46.9056 234.358 41.3084 238.525 37.1904C242.691 33.0724 248.331 30.7712 254.203 30.7934H255.448C261.32 30.8118 266.944 33.152 271.081 37.2988C275.219 41.4455 277.531 47.0589 277.509 52.903V53.4324C277.49 59.2765 275.139 64.8737 270.972 68.9917C266.806 73.1097 261.166 75.4109 255.295 75.3887H254.049C248.177 75.3703 242.553 73.0301 238.416 68.8833C234.278 64.7365 231.966 59.1232 231.989 53.2791ZM246.057 64.0151C248.346 66.3091 251.457 67.604 254.705 67.6151C261.464 67.6305 266.958 62.1937 266.981 55.4667V50.7996C267.147 46.3497 264.861 42.1639 261.02 39.8812C257.179 37.5985 252.392 37.5821 248.535 39.8385C244.678 42.095 242.364 46.265 242.499 50.716V55.3831C242.488 58.6161 243.768 61.7212 246.057 64.0151Z" fill="#26272B"/>
<path fill-rule="evenodd" clip-rule="evenodd" d="M283.334 53.4463V52.9448C283.352 47.1007 285.703 41.5035 289.87 37.3855C294.036 33.2675 299.676 30.9662 305.548 30.9884H306.793C312.663 31.0069 318.284 33.3452 322.421 37.4889C326.558 41.6327 328.872 47.2424 328.854 53.0841V53.5996C328.839 59.4437 326.491 65.0423 322.327 69.1629C318.164 73.2836 312.525 75.5884 306.653 75.5699H305.394C299.521 75.5477 293.897 73.2044 289.76 69.0554C285.623 64.9065 283.311 59.2917 283.334 53.4463ZM297.403 64.206C299.692 66.4978 302.803 67.7896 306.05 67.797C309.296 67.8118 312.414 66.5408 314.717 64.2643C317.02 61.9878 318.319 58.893 318.326 55.6625V50.9814C318.49 46.5313 316.202 42.3466 312.359 40.0659C308.516 37.7852 303.73 37.7716 299.874 40.0304C296.018 42.2891 293.706 46.4608 293.844 50.9118V55.5789C293.833 58.8107 295.113 61.9143 297.403 64.206Z" fill="#26272B"/>
<path d="M336.695 48.3459L336.625 74.0638C336.617 74.4849 336.781 74.8911 337.079 75.1902C337.377 75.4893 337.783 75.6558 338.206 75.652H345.541C346.397 75.6765 347.119 75.025 347.179 74.1752L347.277 46.1726C347.277 42.1792 350.529 38.942 354.541 38.942C358.554 38.942 361.806 42.1792 361.806 46.1726L361.722 74.1752C361.715 74.5963 361.878 75.0025 362.176 75.3016C362.474 75.6007 362.881 75.7673 363.304 75.7635H370.639C371.062 75.7635 371.468 75.5961 371.767 75.2983C372.066 75.0004 372.234 74.5965 372.234 74.1752L372.318 48.4573C372.342 38.9119 364.594 31.1508 355.003 31.1124H354.178C344.582 31.0816 336.775 38.7951 336.737 48.3459" fill="#26272B"/>
<path d="M361.745 48.4296L361.675 74.1475C361.667 74.5685 361.831 74.9747 362.129 75.2738C362.426 75.5729 362.833 75.7395 363.256 75.7357H370.591C371.472 75.7357 372.187 75.0246 372.187 74.1475L372.285 46.1448C372.285 42.1514 375.537 38.9142 379.549 38.9142C383.562 38.9142 386.814 42.1514 386.814 46.1448L386.73 74.1475C386.73 75.0192 387.436 75.728 388.312 75.7357H395.647C396.069 75.7394 396.474 75.5752 396.774 75.2795C397.074 74.9839 397.242 74.5813 397.242 74.1614L397.326 48.4435C397.341 43.8581 395.525 39.4546 392.278 36.2018C389.031 32.949 384.618 31.1133 380.011 31.0985H379.185C374.576 31.08 370.148 32.8857 366.877 36.1181C363.606 39.3504 361.759 43.7442 361.745 48.332" fill="#26272B"/>
<path fill-rule="evenodd" clip-rule="evenodd" d="M403.165 53.7932V53.2778C403.183 47.4324 405.534 41.8338 409.7 37.7135C413.866 33.5933 419.506 31.289 425.379 31.3075H426.624C438.849 31.3536 448.723 41.2502 448.685 53.4171V53.9465C448.666 59.7906 446.315 65.3878 442.148 69.5058C437.982 73.6238 432.342 75.925 426.47 75.9028H425.225C419.353 75.8844 413.729 73.5442 409.592 69.3974C405.454 65.2507 403.142 59.6373 403.165 53.7932ZM417.237 64.5378C419.527 66.8295 422.638 68.1214 425.885 68.1287V68.2123C432.644 68.2277 438.137 62.7909 438.161 56.0639V51.3132C437.961 44.7433 432.564 39.5137 425.96 39.4911C419.356 39.4686 413.923 44.6612 413.679 51.2296V55.9106C413.668 59.1424 414.948 62.246 417.237 64.5378Z" fill="#26272B"/>
<path fill-rule="evenodd" clip-rule="evenodd" d="M454.482 53.9883V53.4589C454.5 47.6149 456.852 42.0177 461.018 37.8996C465.184 33.7816 470.824 31.4804 476.696 31.5026H477.942C483.813 31.521 489.437 33.8613 493.575 38.008C497.712 42.1548 500.024 47.7681 500.002 53.6122V54.1416C499.983 59.9833 497.634 65.5783 493.471 69.696C489.307 73.8136 483.671 76.1164 477.802 76.0979H476.556C470.683 76.0795 465.058 73.7397 460.918 69.5934C456.778 65.447 454.463 59.8337 454.482 53.9883ZM464.997 56.0923C464.981 62.8217 470.442 68.2936 477.203 68.3243C480.45 68.3354 483.568 67.0613 485.871 64.7826C488.173 62.504 489.471 59.4077 489.479 56.1759V51.5088C489.644 47.0589 487.359 42.8731 483.518 40.5904C479.676 38.3077 474.89 38.2914 471.033 40.5478C467.176 42.8042 464.862 46.9743 464.997 51.4252V56.0923Z" fill="#26272B"/>
<path d="M1.72882 93.5943H9.16152C9.85739 93.595 10.4973 93.215 10.8272 92.6052L11.3311 91.7135C13.9879 86.9066 18.7544 83.6167 24.2089 82.8251L25.9026 82.5744C26.9822 82.5505 27.9517 81.9108 28.3942 80.9304L53.5898 21.874C53.7656 21.534 53.7256 21.1231 53.4874 20.8231C53.2493 20.5231 52.857 20.3892 52.484 20.4808L51.0842 20.7455C36.2328 24.3399 26.2106 33.5487 19.4497 46.1708L19.1278 46.8535L0.147091 91.3095C-0.0905616 91.8267 -0.0375544 92.4302 0.286665 92.8986C0.610884 93.3669 1.15858 93.6311 1.72882 93.5943Z" fill="#FF6900"/>
<path d="M31.0662 93.6799H49.2631L50.2429 93.1505L53.3644 88.2047C60.4247 76.9722 73.146 70.5453 86.4233 71.5029C99.7007 72.4606 111.358 80.646 116.717 92.7743C116.968 93.3212 117.513 93.6743 118.117 93.6799H130.967C131.423 93.678 131.858 93.4852 132.164 93.1485C132.47 92.8119 132.62 92.3626 132.577 91.9105L129.175 57.1928C129.16 56.8776 128.911 56.6229 128.595 56.5982C128.279 56.5734 127.994 56.7863 127.929 57.0952L124.934 67.8505C124.718 68.6119 123.972 69.099 123.184 68.9929L102.958 66.2902C101.559 66.0547 100.375 65.1324 99.8083 63.8382L92.7115 47.5102C92.4688 46.965 92.5446 46.3313 92.9093 45.858C93.2739 45.3847 93.8691 45.1475 94.4612 45.2394L106.457 46.8276C107.099 46.9145 107.638 47.3495 107.857 47.956L109.901 53.5287C109.978 53.771 110.205 53.9354 110.46 53.9354C110.716 53.9354 110.942 53.771 111.02 53.5287L113.022 46.326C113.143 45.886 113.068 45.4153 112.816 45.034C112.565 44.6527 112.16 44.3976 111.706 44.3338L88.2183 41.0877C71.4212 38.8587 68.3838 15.8853 84.019 9.42098L88.5123 7.56807C88.761 7.46766 89.0463 7.53515 89.223 7.73619C89.3998 7.93723 89.4291 8.22766 89.2961 8.45969L85.4748 14.8961C84.0137 17.3608 83.89 20.3901 85.1454 22.9646C86.4007 25.5392 88.8683 27.3168 91.7177 27.6994L118.103 31.2102C120.631 31.4973 123.116 30.3964 124.594 28.335C126.072 26.2736 126.309 23.5765 125.214 21.2908L124.388 19.6747C110.656 -7.50603 71.1973 -6.25217 59.2853 21.7505L58.5435 23.492L29.5685 91.4508C29.3559 91.9483 29.4098 92.519 29.7118 92.9684C30.0137 93.4179 30.5231 93.6854 31.0662 93.6799Z" fill="#FF6900"/>
<path d="M130.843 46.7579L133.293 46.3678C138.277 45.5589 142.408 42.0815 144.037 37.3233C145.666 32.5651 144.527 27.3008 141.075 23.6313L136.876 19.3542C136.658 19.1528 136.332 19.1216 136.08 19.2781C135.828 19.4345 135.712 19.7398 135.798 20.023L137.674 25.512C138.749 28.5372 137.448 31.8909 134.608 33.4113V33.4113L130.843 46.7579Z" fill="#FF6900"/>
</svg>
