<svg width="492" height="106" viewBox="0 0 492 106" fill="none" xmlns="http://www.w3.org/2000/svg">
<g clip-path="url(#clip0_24_92)">
<path d="M210.213 17.889H178.418C178.418 15.4225 176.473 13.4492 174.075 13.4492H163.379C162.439 13.4492 161.694 14.2056 161.694 15.1594V17.889H129.898C128.991 17.889 128.213 18.6454 128.213 19.5992V36.5691C128.213 37.5229 128.958 38.2793 129.898 38.2793H136.607C137.547 38.2793 138.293 37.5229 138.293 36.5691V23.0195H201.883V38.2793H203.536C208.171 38.2793 211.931 34.4314 211.931 29.6956V19.5992C211.866 18.6454 211.12 17.889 210.213 17.889Z" fill="#26272B"/>
<path d="M145.26 38.2188C144.32 38.2188 143.574 38.9752 143.574 39.9289V51.9328C143.574 52.8866 144.32 53.643 145.26 53.643H195.14C196.08 53.643 196.826 52.8866 196.826 51.9328V39.9289C196.826 38.9752 196.08 38.2188 195.14 38.2188H145.26ZM186.778 48.4797H153.622V43.3492H186.778V48.4797Z" fill="#26272B"/>
<path d="M196.826 29.759C196.826 28.8052 196.081 28.0488 195.141 28.0488H144.936C144.029 28.0488 143.283 28.8052 143.283 29.759V31.4691C143.283 32.4229 144.029 33.1793 144.936 33.1793H195.141C196.081 33.1793 196.826 32.4229 196.826 31.4691V29.759V29.759Z" fill="#26272B"/>
<path d="M206.834 58.6719H133.196C132.288 58.6719 131.543 59.4283 131.543 60.382V90.4741C131.543 91.4278 132.288 92.1842 133.196 92.1842H200.157C204.76 92.1842 208.519 88.3364 208.519 83.6335V60.382C208.519 59.4283 207.774 58.6719 206.834 58.6719ZM165.024 87.0538H141.59V77.944H165.024V87.0538ZM165.024 72.8135H141.59V63.8023H165.024V72.8135ZM198.472 87.0538H175.039V77.944H198.472V87.0538V87.0538ZM198.472 72.8135H175.103H175.039V63.8023H198.472V72.8135V72.8135Z" fill="#26272B"/>
<path d="M253.025 81.5544L262.748 57.5137H255.261C253.77 57.5137 252.053 58.3687 251.34 60.0131C248.228 67.347 241.973 83.1988 241.973 83.1988H250.659C252.15 83.1988 252.83 82.1135 253.025 81.5544Z" fill="#26272B"/>
<path d="M230.469 26.7406H237.179C238.118 26.7406 238.832 25.9842 238.832 25.0305V24.3398C238.832 19.604 235.072 15.7891 230.469 15.7891H223.793C222.853 15.7891 222.107 16.5455 222.107 17.4992V18.1899C222.107 22.8928 225.835 26.7406 230.469 26.7406Z" fill="#26272B"/>
<path d="M236.501 82.6197V36.314H239.223C240.131 36.314 240.909 35.5576 240.909 34.6039V32.8937C240.909 31.94 240.163 31.1836 239.223 31.1836H223.731C222.823 31.1836 222.078 31.94 222.078 32.8937V34.6039C222.078 35.5576 222.823 36.314 223.763 36.314H226.486V82.5539V82.5868C226.486 84.6258 225.157 86.3688 223.31 86.895C222.856 87.0266 222.078 87.5199 222.078 88.5723V92.2228C222.078 92.2228 224.963 92.2228 225.06 92.2228C227.685 92.1242 230.019 90.8086 231.51 88.7696V88.8025C233.001 90.8086 235.302 92.2228 237.927 92.2228H301.226C303.592 92.2228 305.504 90.2496 305.504 87.8488V87.0924H240.844C238.446 87.0595 236.501 85.0862 236.501 82.6197Z" fill="#26272B"/>
<path d="M290.525 15.6213H256.817C255.196 15.6213 253.511 16.5093 252.798 18.2195C249.719 25.6191 241.973 45.4174 241.973 45.4174H250.691C252.15 45.4174 252.798 44.3321 253.025 43.773C253.77 41.8985 256.039 36.3405 256.039 36.3405H268.744V48.476H244.728C243.788 48.476 243.042 49.2324 243.042 50.1861V51.8963C243.042 52.85 243.788 53.6064 244.728 53.6064H268.777V73.7664V73.7993C268.777 75.937 267.318 77.6801 265.374 78.1405C264.628 78.3049 264.077 78.9956 264.077 79.8177V83.238H268.777H273.476H274.481C276.879 83.238 278.824 81.2648 278.824 78.7982V53.6064H302.841C303.748 53.6064 304.494 52.85 304.494 51.8963V50.1861C304.494 49.2324 303.748 48.476 302.808 48.476H278.824V36.3076H291.529C291.529 36.3076 293.831 41.8985 294.544 43.773C294.77 44.3321 295.451 45.4174 296.877 45.4174H305.596C305.596 45.4174 297.817 25.3889 294.511 18.0221C293.766 16.3449 292.015 15.6213 290.525 15.6213ZM258.113 31.1771C259.507 27.7239 261.257 23.4486 262.327 20.7518H285.306C286.408 23.4157 288.094 27.7239 289.487 31.1771H258.113Z" fill="#26272B"/>
<path d="M296.81 83.1988H305.496C305.496 83.1988 299.111 66.9853 296.129 60.0131C295.416 58.3687 293.699 57.5137 292.208 57.5137H284.721L294.444 81.5544C294.671 82.1135 295.319 83.1988 296.81 83.1988Z" fill="#26272B"/>
<path d="M392.552 58.7024H359.396V36.3389H388.533C389.473 36.3389 390.219 35.5825 390.219 34.6288V32.9186C390.219 31.9649 389.473 31.2085 388.533 31.2085H359.396V15.2251C359.396 14.2385 358.618 13.4492 357.646 13.4492H351.066C350.094 13.4492 349.316 14.2385 349.316 15.2251V31.2085H329.675L333.305 17.9219H325.818C324.327 17.9219 322.998 18.9743 322.642 20.4543L313.599 53.6377H321.086C322.577 53.6377 323.906 52.5853 324.262 51.1054L328.281 36.3718H349.348V58.7353H314.344C313.404 58.7353 312.691 59.4917 312.691 60.4455V62.1556C312.691 63.1093 313.437 63.8658 314.344 63.8658H349.348V90.4718C349.348 91.4584 350.126 92.2477 351.099 92.2477H357.678C358.65 92.2477 359.428 91.4584 359.428 90.4718V63.8658H392.585C393.525 63.8658 394.27 63.1093 394.27 62.1556V60.4455C394.238 59.4588 393.492 58.7024 392.552 58.7024Z" fill="#26272B"/>
<path d="M481.166 58.7024H448.009V36.3389H477.147C478.087 36.3389 478.832 35.5825 478.832 34.6288V32.9186C478.832 31.9649 478.087 31.2085 477.147 31.2085H448.009V15.2251C448.009 14.2385 447.231 13.4492 446.259 13.4492H439.679C438.707 13.4492 437.929 14.2385 437.929 15.2251V31.2085H418.288L421.918 17.9219H414.431C412.94 17.9219 411.611 18.9743 411.255 20.4543L402.212 53.6377H409.699C411.19 53.6377 412.519 52.5853 412.875 51.1054L416.894 36.3718H437.962V58.7353H402.958C402.018 58.7353 401.305 59.4917 401.305 60.4455V62.1556C401.305 63.1093 402.05 63.8658 402.958 63.8658H437.962V90.4718C437.962 91.4584 438.74 92.2477 439.712 92.2477H446.291C447.264 92.2477 448.041 91.4584 448.041 90.4718V63.8658H481.198C482.138 63.8658 482.883 63.1093 482.883 62.1556V60.4455C482.851 59.4588 482.106 58.7024 481.166 58.7024Z" fill="#26272B"/>
<path d="M44.5905 63.7031C40.3771 63.7031 36.9739 60.2499 36.9739 55.9745C36.9739 51.6992 40.3771 48.246 44.5905 48.246C48.8039 48.246 52.2071 51.6992 52.2071 55.9745C52.1747 60.2499 48.7715 63.7031 44.5905 63.7031ZM104.843 52.8173C104.843 81.9886 81.5391 105.635 52.7905 105.635C51.2024 105.635 49.6466 105.569 48.0909 105.404V102.905V96.9853L45.5304 95.5053C43.1644 94.1241 41.2522 92.1179 39.9557 89.6842L46.6 93.565C52.4988 97.0182 60.0182 94.9791 63.4213 88.9936L78.6546 62.2232C82.0577 56.2376 80.0482 48.6077 74.1494 45.1546L51.9478 32.164L44.8498 27.9873L39.2751 24.7314L37.849 23.9092C35.5478 22.5608 34.8023 19.5681 36.2284 17.2659L36.2933 17.1673C39.6316 12.5301 44.1043 8.87963 49.2901 6.5775L50.3597 6.08419L49.0308 6.01841C40.0529 5.59088 31.2695 8.97829 24.8521 15.4242L24.2039 16.082C18.4347 21.8702 19.6664 31.6378 26.6996 35.7487L31.3992 38.5113L19.796 58.9344H3.78492H1.0948C0.867926 56.9283 0.738281 54.8893 0.738281 52.8173C0.738281 23.6461 24.0419 0 52.7905 0C81.5391 0 104.843 23.6461 104.843 52.8173ZM98.8143 58.8358C101.278 49.693 99.6894 39.8925 94.4712 31.9995L94.0498 31.3747L94.1471 32.164C94.8925 37.9851 94.0498 43.9048 91.7486 49.2984L91.6514 49.5286C90.4198 51.9294 87.4704 52.7845 85.1692 51.4361L80.8585 48.9037C83.1273 53.2449 83.1921 58.6055 80.5992 63.144L78.9139 66.1039L80.6316 67.1234C87.6 71.2015 96.5131 67.4852 98.6522 59.6251L98.8143 58.8358Z" fill="#FF6900"/>
<path d="M94.4694 31.994L94.0481 31.3691L94.1453 32.1584C94.8908 37.9795 94.0481 43.8993 91.7469 49.2928L91.6497 49.523C90.418 51.9238 87.4686 52.7789 85.1674 51.4305L80.8568 48.8982C83.1255 53.2393 83.1904 58.6 80.5975 63.1385L78.9121 66.0983L80.6299 67.1179C87.5983 71.1959 96.5113 67.4796 98.6505 59.6195L98.8449 58.8302C101.276 49.6546 99.6876 39.8541 94.4694 31.994Z" fill="white"/>
<path d="M48.0937 97.0182L45.5333 95.5383C43.1997 94.157 41.255 92.118 39.9586 89.7172L46.6028 93.5979C52.5017 97.0511 60.021 95.0121 63.4242 89.0266L78.6574 62.2561C82.0606 56.2706 80.0511 48.6407 74.1523 45.1875L51.9507 32.1641L44.8526 28.0202L39.2779 24.7644L37.8518 23.9093C35.5507 22.5609 34.8052 19.5681 36.2313 17.266L36.2961 17.1674C39.6345 12.5302 44.1072 8.8797 49.293 6.57758L50.3625 6.08427L49.0337 6.01849C40.0558 5.59095 31.2724 8.97837 24.855 15.4243L24.2068 16.0821C18.4376 21.8703 19.6692 31.6379 26.7024 35.7817L31.402 38.5442L19.7989 58.9674H3.78778H1.09766C2.49133 71.3331 8.09845 82.3833 16.4281 90.638C24.7578 98.8928 35.8099 104.319 48.0613 105.437V102.938V97.0182H48.0937ZM36.9767 55.9746C36.9767 51.7321 40.3799 48.2789 44.5934 48.2789C48.8068 48.2789 52.21 51.7321 52.21 55.9746C52.21 60.25 48.8068 63.7032 44.5934 63.7032C40.3799 63.7032 36.9767 60.25 36.9767 55.9746Z" fill="white"/>
</g>
<defs>
<clipPath id="clip0_24_92">
<rect width="491.688" height="105.635" fill="white"/>
</clipPath>
</defs>
</svg>
