<svg width="153" height="39" viewBox="0 0 153 39" fill="none" xmlns="http://www.w3.org/2000/svg">
<rect width="38.4737" height="38.4737" rx="7.39879" fill="#FF6900"/>
<mask id="mask0_4008_423" style="mask-type:alpha" maskUnits="userSpaceOnUse" x="0" y="0" width="39" height="39">
<rect width="38.4737" height="38.4737" rx="7.39879" fill="#FF6900"/>
</mask>
<g mask="url(#mask0_4008_423)">
<path d="M11.1227 25.7752L-1.47974 37.7776V40.9398H40.4467V4.93237L18.9683 32.1951L11.1227 25.7752Z" fill="black"/>
</g>
<path d="M4.31131 24.4395V10.6284H7.86272V24.4395H4.31131ZM14.4629 10.6284C18.3497 10.6284 20.52 12.5619 20.52 15.7582C20.52 18.9545 18.3497 20.888 14.4629 20.888H13.4172V24.4395H9.86579V10.6284H14.4629ZM14.5024 17.5734C16.0413 17.5734 16.8502 16.942 16.8502 15.7582C16.8502 14.5744 16.0413 13.943 14.5024 13.943H13.4172V17.5734H14.5024ZM28.2097 24.6762C24.0861 24.6762 21.166 21.7167 21.166 17.5339C21.166 13.3511 24.0861 10.3916 28.2097 10.3916C32.3333 10.3916 35.2533 13.3511 35.2533 17.5339C35.2533 21.7167 32.3333 24.6762 28.2097 24.6762ZM28.2097 21.3616C30.2419 21.3616 31.5835 19.8226 31.5835 17.5339C31.5835 15.2452 30.2419 13.7063 28.2097 13.7063C26.1775 13.7063 24.8358 15.2452 24.8358 17.5339C24.8358 19.8226 26.1775 21.3616 28.2097 21.3616Z" fill="black"/>
<path d="M4.31131 24.4395V10.6284H7.86272V24.4395H4.31131ZM14.4629 10.6284C18.3497 10.6284 20.52 12.5619 20.52 15.7582C20.52 18.9545 18.3497 20.888 14.4629 20.888H13.4172V24.4395H9.86579V10.6284H14.4629ZM14.5024 17.5734C16.0413 17.5734 16.8502 16.942 16.8502 15.7582C16.8502 14.5744 16.0413 13.943 14.5024 13.943H13.4172V17.5734H14.5024ZM28.2097 24.6762C24.0861 24.6762 21.166 21.7167 21.166 17.5339C21.166 13.3511 24.0861 10.3916 28.2097 10.3916C32.3333 10.3916 35.2533 13.3511 35.2533 17.5339C35.2533 21.7167 32.3333 24.6762 28.2097 24.6762ZM28.2097 21.3616C30.2419 21.3616 31.5835 19.8226 31.5835 17.5339C31.5835 15.2452 30.2419 13.7063 28.2097 13.7063C26.1775 13.7063 24.8358 15.2452 24.8358 17.5339C24.8358 19.8226 26.1775 21.3616 28.2097 21.3616Z" fill="white"/>
<path d="M48.5982 14.5283V10.9634H51.7438V6.55957H55.7281V10.9634H58.5591V14.5283H55.7281V18.0933C56.7767 17.8836 57.7902 17.6739 58.7688 17.4642C58.7688 18.9321 58.8038 20.1903 58.8737 21.2388L55.7281 21.868V27.7397C55.798 29.9066 54.7495 31.06 52.5826 31.1998C52.303 31.1998 51.8486 31.1998 51.2195 31.1998C50.3807 31.2697 49.6467 31.3046 49.0176 31.3046C48.9477 30.5357 48.7031 29.3474 48.2836 27.7397C48.5632 27.7397 48.9477 27.7397 49.437 27.7397C49.9263 27.8096 50.2758 27.8445 50.4855 27.8445C51.3943 27.9144 51.8137 27.4251 51.7438 26.3766V22.7068L48.4933 23.4407L47.9691 19.3515L51.7438 18.7224V14.5283H48.5982ZM59.2931 11.8022V8.0275H73.4481V11.8022H69.4637V27.0057C69.6035 29.7319 68.1706 31.1299 65.1648 31.1998C63.9765 31.1998 62.5435 31.1998 60.8659 31.1998C60.7261 30.2212 60.4814 29.0328 60.1319 27.6348C61.2503 27.7047 62.4387 27.7397 63.6969 27.7397C64.8852 27.8096 65.4444 27.1805 65.3745 25.8523V11.8022H59.2931ZM74.8447 11.6973V8.65661H79.1437L78.6194 6.66442L82.7086 6.34987L83.128 8.65661H87.2173V11.6973H84.2814L86.5882 12.4313L85.0154 14.8429H87.6367V17.8836H83.0232V19.5612H87.2173V22.6019H83.0232V27.8445C83.0931 29.9416 82.0795 31.06 79.9825 31.1998C79.2835 31.1998 78.4447 31.1998 77.466 31.1998C77.2563 30.361 77.0466 29.4523 76.8369 28.4736C76.8369 28.6134 76.767 28.7532 76.6272 28.893C76.5573 29.1027 76.4874 29.2425 76.4175 29.3124L73.7962 28.2639C74.635 26.5863 75.404 24.8737 76.103 23.1262L78.8291 24.0699C78.6194 24.6291 78.2699 25.5028 77.7806 26.6911C77.501 27.3203 77.2913 27.7746 77.1515 28.0542C77.5709 28.0542 77.9903 28.0542 78.4097 28.0542C79.2485 28.0542 79.633 27.7047 79.5631 27.0057V22.6019H74.7399V19.5612H79.5631V17.8836H74.2156V14.8429H77.1515C76.9418 14.4235 76.5224 13.7944 75.8933 12.9555C75.7535 12.7458 75.6486 12.606 75.5787 12.5361L77.3612 11.6973H74.8447ZM85.2251 28.0542L83.2329 24.1747L85.8542 23.0213C85.994 23.231 86.1688 23.5106 86.3785 23.8601C86.6581 24.2796 87.0775 25.0135 87.6367 26.062C88.126 24.2446 88.3706 21.6583 88.3706 18.303V8.2372C91.5162 8.0974 94.8016 7.71294 98.2267 7.08383L99.3801 10.5439C98.4015 10.6837 96.9336 10.8585 94.9763 11.0682C93.6482 11.208 92.6346 11.3129 91.9356 11.3828V15.0526H99.5898V18.5127H97.3879V31.0949H93.9278V18.5127H91.9356V18.6175C92.0754 23.9999 91.2017 28.2989 89.3143 31.5143C89.1046 31.3745 88.7901 31.1648 88.3706 30.8852C87.392 30.2561 86.6581 29.7668 86.1688 29.4173C86.2387 29.2775 86.3435 29.0678 86.4833 28.7882C86.693 28.4387 86.9726 27.8795 87.3221 27.1106L85.2251 28.0542ZM80.5068 14.0041L78.934 14.8429H81.4504C82.0795 13.7944 82.6737 12.7458 83.2329 11.6973H78.7243C78.934 11.907 79.2485 12.2915 79.6679 12.8507C80.0174 13.34 80.297 13.7245 80.5068 14.0041Z" fill="black"/>
<path d="M109.794 31.5143V17.9884H124.368V31.5143H120.699V30.2561H113.464V31.5143H109.794ZM113.464 16.6254C110.808 16.6953 109.514 15.437 109.584 12.8507V6.45472H113.254V9.18087C116.959 8.69156 120.524 8.0275 123.949 7.18868L125.102 10.3342C124.473 10.5439 123.774 10.6837 123.005 10.7537C123.774 11.1032 124.648 11.3828 125.627 11.5925C125.487 12.4313 125.277 13.3749 124.998 14.4235C124.578 15.9613 123.285 16.6953 121.118 16.6254H113.464ZM100.672 14.2138V10.7537H103.083V6.55957H106.544V10.7537H108.85V14.2138H106.544V17.7787L108.745 17.1496C108.745 18.6874 108.745 19.9457 108.745 20.9243L106.544 21.4486V28.0542C106.613 30.1513 105.705 31.1998 103.817 31.1998C103.468 31.2697 103.014 31.3046 102.454 31.3046C101.825 31.3745 101.336 31.4095 100.986 31.4095L100.357 27.9494C100.847 27.9494 101.406 27.9494 102.035 27.9494C102.734 27.9494 103.083 27.5649 103.083 26.796V22.3922C102.804 22.4621 102.384 22.567 101.825 22.7068C101.196 22.9165 100.742 23.0563 100.462 23.1262L100.148 19.037C100.637 18.9671 101.441 18.8273 102.559 18.6175C102.769 18.5476 102.944 18.5127 103.083 18.5127V14.2138H100.672ZM121.852 12.3264C121.992 11.9769 122.097 11.4876 122.167 10.8585C119.65 11.3478 116.679 11.8022 113.254 12.2216C113.254 13.2002 113.848 13.6546 115.037 13.5847H119.965C121.013 13.6546 121.642 13.2351 121.852 12.3264ZM113.464 25.6426V27.3203H120.699V25.6426H113.464ZM113.464 21.134V22.7068H120.699V21.134H113.464ZM126.499 11.8022V8.65661H136.879V6.34987H140.864V8.65661H151.454V11.8022H140.864V13.3749H150.51V27.53C150.51 29.9066 149.427 31.1299 147.26 31.1998C146.281 31.2697 144.778 31.3046 142.751 31.3046C142.681 30.9551 142.576 30.3959 142.437 29.627C142.227 28.8581 142.087 28.2989 142.017 27.9494C142.646 28.0193 143.625 28.0542 144.953 28.0542C146.211 28.1241 146.805 27.53 146.735 26.2717V16.5205H131.217V31.1998H127.443V13.3749H136.879V11.8022H126.499ZM132.266 22.1825V19.3515H134.468C133.978 18.4428 133.594 17.7438 133.314 17.2545L136.879 16.8351C137.019 16.9749 137.299 17.4642 137.718 18.303C137.928 18.7923 138.103 19.1418 138.242 19.3515H139.606C140.235 18.303 140.689 17.4642 140.969 16.8351L144.638 17.2545C144.499 17.3943 144.289 17.7438 144.009 18.303C143.73 18.7923 143.52 19.1418 143.38 19.3515H145.582V22.1825H140.864V23.5456H146.106V26.4814H140.864V30.6755H137.089V26.4814H131.846V23.5456H137.089V22.1825H132.266Z" fill="black"/>
<path d="M109.794 31.5143V17.9884H124.368V31.5143H120.699V30.2561H113.464V31.5143H109.794ZM113.464 16.6254C110.808 16.6953 109.514 15.437 109.584 12.8507V6.45472H113.254V9.18087C116.959 8.69156 120.524 8.0275 123.949 7.18868L125.102 10.3342C124.473 10.5439 123.774 10.6837 123.005 10.7537C123.774 11.1032 124.648 11.3828 125.627 11.5925C125.487 12.4313 125.277 13.3749 124.998 14.4235C124.578 15.9613 123.285 16.6953 121.118 16.6254H113.464ZM100.672 14.2138V10.7537H103.083V6.55957H106.544V10.7537H108.85V14.2138H106.544V17.7787L108.745 17.1496C108.745 18.6874 108.745 19.9457 108.745 20.9243L106.544 21.4486V28.0542C106.613 30.1513 105.705 31.1998 103.817 31.1998C103.468 31.2697 103.014 31.3046 102.454 31.3046C101.825 31.3745 101.336 31.4095 100.986 31.4095L100.357 27.9494C100.847 27.9494 101.406 27.9494 102.035 27.9494C102.734 27.9494 103.083 27.5649 103.083 26.796V22.3922C102.804 22.4621 102.384 22.567 101.825 22.7068C101.196 22.9165 100.742 23.0563 100.462 23.1262L100.148 19.037C100.637 18.9671 101.441 18.8273 102.559 18.6175C102.769 18.5476 102.944 18.5127 103.083 18.5127V14.2138H100.672ZM121.852 12.3264C121.992 11.9769 122.097 11.4876 122.167 10.8585C119.65 11.3478 116.679 11.8022 113.254 12.2216C113.254 13.2002 113.848 13.6546 115.037 13.5847H119.965C121.013 13.6546 121.642 13.2351 121.852 12.3264ZM113.464 25.6426V27.3203H120.699V25.6426H113.464ZM113.464 21.134V22.7068H120.699V21.134H113.464ZM126.499 11.8022V8.65661H136.879V6.34987H140.864V8.65661H151.454V11.8022H140.864V13.3749H150.51V27.53C150.51 29.9066 149.427 31.1299 147.26 31.1998C146.281 31.2697 144.778 31.3046 142.751 31.3046C142.681 30.9551 142.576 30.3959 142.437 29.627C142.227 28.8581 142.087 28.2989 142.017 27.9494C142.646 28.0193 143.625 28.0542 144.953 28.0542C146.211 28.1241 146.805 27.53 146.735 26.2717V16.5205H131.217V31.1998H127.443V13.3749H136.879V11.8022H126.499ZM132.266 22.1825V19.3515H134.468C133.978 18.4428 133.594 17.7438 133.314 17.2545L136.879 16.8351C137.019 16.9749 137.299 17.4642 137.718 18.303C137.928 18.7923 138.103 19.1418 138.242 19.3515H139.606C140.235 18.303 140.689 17.4642 140.969 16.8351L144.638 17.2545C144.499 17.3943 144.289 17.7438 144.009 18.303C143.73 18.7923 143.52 19.1418 143.38 19.3515H145.582V22.1825H140.864V23.5456H146.106V26.4814H140.864V30.6755H137.089V26.4814H131.846V23.5456H137.089V22.1825H132.266Z" fill="#FF6900"/>
</svg>
