<svg width="304" height="46" viewBox="0 0 304 46" fill="none" xmlns="http://www.w3.org/2000/svg">
<path d="M12.9622 44.801L9.68496e-05 0.755058H8.18006L17.178 32.2165H17.3668L26.8681 0.755058H34.1043L43.6056 32.2165H43.7944L52.7923 0.755058H60.9723L48.0102 44.801H40.0819L30.5806 12.7104H30.3918L20.8905 44.801H12.9622ZM92.3767 8.0541H73.0594V19.1285H90.489V26.2388H73.0594V37.502H92.3767V44.801H65.0682V0.755058H92.3767V8.0541ZM106.259 37.4391H124.758V44.801H98.2673V0.755058H106.259V37.4391ZM148.882 45.5561C142.464 45.4303 137.241 43.3119 133.214 39.2009C129.187 35.048 127.111 29.5737 126.985 22.778C127.111 15.9824 129.187 10.5081 133.214 6.35519C137.241 2.24423 142.485 0.125831 148.945 -1.31092e-05C154.482 0.0838829 159.117 1.6989 162.851 4.84504C166.542 7.99118 168.661 12.228 169.206 17.5554H161.026C160.397 14.2415 159.033 11.7246 156.936 10.0047C154.839 8.24287 152.196 7.36195 149.008 7.36195C144.981 7.4039 141.688 8.7882 139.129 11.5149C136.57 14.2415 135.249 17.9959 135.165 22.778C135.249 27.6021 136.57 31.3565 139.129 34.0412C141.688 36.7679 144.981 38.1522 149.008 38.1941C152.28 38.1941 155.006 37.3132 157.188 35.5514C159.327 33.7895 160.69 31.2726 161.278 28.0006H169.332C168.786 33.37 166.647 37.6069 162.914 40.711C159.18 43.8572 154.503 45.4722 148.882 45.5561ZM194.005 45.5561C187.545 45.4303 182.28 43.2909 178.211 39.138C174.184 35.027 172.108 29.5737 171.982 22.778C172.108 15.9824 174.184 10.5081 178.211 6.35519C182.28 2.24423 187.545 0.125831 194.005 -1.31092e-05C200.465 0.125831 205.729 2.24423 209.798 6.35519C213.826 10.5081 215.902 15.9824 216.028 22.778C215.902 29.5737 213.826 35.027 209.798 39.138C205.729 43.2909 200.465 45.4303 194.005 45.5561ZM194.005 38.1941C198.116 38.1522 201.43 36.7469 203.947 33.9783C206.464 31.2516 207.764 27.5182 207.848 22.778C207.764 18.0379 206.464 14.3044 203.947 11.5778C201.43 8.80918 198.116 7.4039 194.005 7.36195C189.894 7.4039 186.58 8.80918 184.063 11.5778C181.546 14.3044 180.246 18.0379 180.162 22.778C180.246 27.5182 181.546 31.2516 184.063 33.9783C186.58 36.7469 189.894 38.1522 194.005 38.1941ZM260.221 0.755058H268.716V44.801H260.913V16.4228H260.725L247.637 44.801H242.54L229.452 16.4228H229.263V44.801H221.461V0.755058H229.955L244.994 33.2232H245.183L260.221 0.755058ZM303.107 8.0541H283.789V19.1285H301.219V26.2388H283.789V37.502H303.107V44.801H275.798V0.755058H303.107V8.0541Z" fill="black"/>
<path d="M12.9622 44.801L9.68496e-05 0.755058H8.18006L17.178 32.2165H17.3668L26.8681 0.755058H34.1043L43.6056 32.2165H43.7944L52.7923 0.755058H60.9723L48.0102 44.801H40.0819L30.5806 12.7104H30.3918L20.8905 44.801H12.9622ZM92.3767 8.0541H73.0594V19.1285H90.489V26.2388H73.0594V37.502H92.3767V44.801H65.0682V0.755058H92.3767V8.0541ZM106.259 37.4391H124.758V44.801H98.2673V0.755058H106.259V37.4391ZM148.882 45.5561C142.464 45.4303 137.241 43.3119 133.214 39.2009C129.187 35.048 127.111 29.5737 126.985 22.778C127.111 15.9824 129.187 10.5081 133.214 6.35519C137.241 2.24423 142.485 0.125831 148.945 -1.31092e-05C154.482 0.0838829 159.117 1.6989 162.851 4.84504C166.542 7.99118 168.661 12.228 169.206 17.5554H161.026C160.397 14.2415 159.033 11.7246 156.936 10.0047C154.839 8.24287 152.196 7.36195 149.008 7.36195C144.981 7.4039 141.688 8.7882 139.129 11.5149C136.57 14.2415 135.249 17.9959 135.165 22.778C135.249 27.6021 136.57 31.3565 139.129 34.0412C141.688 36.7679 144.981 38.1522 149.008 38.1941C152.28 38.1941 155.006 37.3132 157.188 35.5514C159.327 33.7895 160.69 31.2726 161.278 28.0006H169.332C168.786 33.37 166.647 37.6069 162.914 40.711C159.18 43.8572 154.503 45.4722 148.882 45.5561ZM194.005 45.5561C187.545 45.4303 182.28 43.2909 178.211 39.138C174.184 35.027 172.108 29.5737 171.982 22.778C172.108 15.9824 174.184 10.5081 178.211 6.35519C182.28 2.24423 187.545 0.125831 194.005 -1.31092e-05C200.465 0.125831 205.729 2.24423 209.798 6.35519C213.826 10.5081 215.902 15.9824 216.028 22.778C215.902 29.5737 213.826 35.027 209.798 39.138C205.729 43.2909 200.465 45.4303 194.005 45.5561ZM194.005 38.1941C198.116 38.1522 201.43 36.7469 203.947 33.9783C206.464 31.2516 207.764 27.5182 207.848 22.778C207.764 18.0379 206.464 14.3044 203.947 11.5778C201.43 8.80918 198.116 7.4039 194.005 7.36195C189.894 7.4039 186.58 8.80918 184.063 11.5778C181.546 14.3044 180.246 18.0379 180.162 22.778C180.246 27.5182 181.546 31.2516 184.063 33.9783C186.58 36.7469 189.894 38.1522 194.005 38.1941ZM260.221 0.755058H268.716V44.801H260.913V16.4228H260.725L247.637 44.801H242.54L229.452 16.4228H229.263V44.801H221.461V0.755058H229.955L244.994 33.2232H245.183L260.221 0.755058ZM303.107 8.0541H283.789V19.1285H301.219V26.2388H283.789V37.502H303.107V44.801H275.798V0.755058H303.107V8.0541Z" fill="#FF6900"/>
</svg>
