<svg width="232" height="18" viewBox="0 0 232 18" fill="none" xmlns="http://www.w3.org/2000/svg">
<path d="M0.402241 3.88791H3.08361L5.16167 7.03852C5.20636 7.08321 5.2734 7.17259 5.36277 7.30666C5.40746 7.44073 5.45215 7.53011 5.49684 7.57479C5.54153 7.44073 5.63091 7.26197 5.76498 7.03852C5.89905 6.85976 6.59174 5.8319 7.84304 3.95495H10.5244L6.70346 9.04955L10.7925 14.1442H7.97711L5.76498 10.9935C5.72029 10.9489 5.6756 10.8595 5.63091 10.7254C5.54153 10.5913 5.4745 10.502 5.42981 10.4573C5.34043 10.6807 5.22871 10.8595 5.09464 10.9935L2.74844 14.1442H3.5271e-05L4.22319 8.98251L0.402241 3.88791ZM11.6854 3.88791H13.8976V14.1442H11.6854V3.88791ZM11.6854 0.268063H13.8976V2.74833H11.6854V0.268063ZM20.2202 12.6694C21.9184 12.6247 22.7899 11.4404 22.8346 9.11658C22.7899 6.79273 21.9184 5.60846 20.2202 5.56377C18.4327 5.60846 17.5165 6.81507 17.4718 9.18362C17.5165 11.4181 18.4327 12.58 20.2202 12.6694ZM20.3543 3.68681C23.4379 3.82088 25.0467 5.60846 25.1808 9.04955C25.1361 12.5353 23.4602 14.3229 20.1532 14.4123C17.0249 14.2335 15.3714 12.513 15.1927 9.25065C15.2821 5.6308 17.0026 3.77619 20.3543 3.68681ZM35.3914 7.64183V14.1442H33.1793V7.84293C33.1793 6.32349 32.576 5.56377 31.3694 5.56377C29.7606 5.69784 28.8891 6.4799 28.755 7.90997V14.1442H26.6099V3.88791H28.755V5.16156C29.3807 4.17839 30.3415 3.68681 31.6375 3.68681C34.2295 3.59743 35.4808 4.91577 35.3914 7.64183ZM44.0603 9.45175V7.977C43.9262 6.50225 43.1442 5.72018 41.7141 5.6308C39.9265 5.67549 39.0104 6.79273 38.9657 8.98251C39.0104 11.0382 39.8595 12.1108 41.513 12.2002C43.2112 12.2002 44.0603 11.284 44.0603 9.45175ZM44.0603 3.95495H46.2724V12.6694C46.4065 15.887 44.7306 17.4512 41.2449 17.3618C39.5467 17.3618 38.2283 16.8702 37.2898 15.887L38.4294 14.6134C39.2338 15.1497 40.15 15.4401 41.1778 15.4848C43.2335 15.5742 44.1944 14.6804 44.0603 12.8035C43.524 13.5632 42.5409 13.943 41.1108 13.943C38.34 13.809 36.8876 12.1555 36.7536 8.98251C36.8876 5.6308 38.4071 3.88791 41.3119 3.75384C42.6526 3.84322 43.5687 4.33481 44.0603 5.2286C44.0603 4.73701 44.0603 4.31246 44.0603 3.95495ZM52.461 12.5353L52.8632 13.943C52.2376 14.1665 51.6119 14.3006 50.9863 14.3453C49.3328 14.3899 48.5284 13.5632 48.573 11.865V5.69784H47.1653V3.88791H48.573V1.34061L50.7181 0.268063L50.7852 3.88791H52.5951L52.5281 5.69784H50.7852V11.798C50.7405 12.4683 50.9416 12.7588 51.3885 12.6694C51.746 12.6694 52.1035 12.6247 52.461 12.5353ZM53.6891 3.88791H55.9012V14.1442H53.6891V3.88791ZM53.6891 0.268063H55.9012V2.74833H53.6891V0.268063ZM66.5811 7.64183V14.1442H64.369V7.84293C64.369 6.32349 63.7657 5.56377 62.5591 5.56377C60.9502 5.69784 60.0788 6.4799 59.9447 7.90997V14.1442H57.7996V3.88791H59.9447V5.16156C60.5704 4.17839 61.5312 3.68681 62.8272 3.68681C65.4192 3.59743 66.6705 4.91577 66.5811 7.64183ZM75.25 9.45175V7.977C75.1159 6.50225 74.3339 5.72018 72.9038 5.6308C71.1162 5.67549 70.2001 6.79273 70.1554 8.98251C70.2001 11.0382 71.0492 12.1108 72.7027 12.2002C74.4009 12.2002 75.25 11.284 75.25 9.45175ZM75.25 3.95495H77.4621V12.6694C77.5962 15.887 75.9203 17.4512 72.4346 17.3618C70.7364 17.3618 69.418 16.8702 68.4795 15.887L69.6191 14.6134C70.4235 15.1497 71.3397 15.4401 72.3675 15.4848C74.4232 15.5742 75.3841 14.6804 75.25 12.8035C74.7137 13.5632 73.7305 13.943 72.3005 13.943C69.5297 13.809 68.0773 12.1555 67.9433 8.98251C68.0773 5.6308 69.5968 3.88791 72.5016 3.75384C73.8423 3.84322 74.7584 4.33481 75.25 5.2286C75.25 4.73701 75.25 4.31246 75.25 3.95495ZM78.8243 10.5913L81.1034 10.0551C81.2822 11.6192 82.1089 12.4236 83.5837 12.4683C85.416 12.513 86.3097 11.6862 86.2651 9.98803C86.131 8.64734 85.2372 7.95466 83.5837 7.90997H81.9078V5.96597H83.0474C84.7456 5.96597 85.6394 5.25094 85.7288 3.82088C85.6841 2.65895 85.0138 2.05564 83.7178 2.01095C82.4218 2.10033 81.6397 2.83771 81.3716 4.22308L79.0924 3.68681C79.718 1.27358 81.2375 0.0446156 83.6507 -7.38651e-05C86.5109 0.0446156 87.9856 1.34061 88.075 3.88791C88.075 5.2286 87.3376 6.18942 85.8629 6.77038C87.6504 7.48542 88.5666 8.60265 88.6113 10.1221C88.4325 12.8035 86.8013 14.2112 83.7178 14.3453C80.947 14.3006 79.3158 13.0493 78.8243 10.5913ZM95.3361 8.91548V3.75384L91.7163 8.91548H95.3361ZM99.3582 8.91548V10.9265C98.956 10.9265 98.3303 10.9265 97.4812 10.9265C97.4812 12.3119 97.4812 13.3844 97.4812 14.1442H95.3361C95.3361 13.3844 95.3361 12.3119 95.3361 10.9265C92.9229 10.9265 90.8448 10.9265 89.1019 10.9265V9.38472L95.8054 -7.38651e-05H97.4812C97.4812 2.63661 97.4812 5.60846 97.4812 8.91548C98.3303 8.91548 98.956 8.91548 99.3582 8.91548ZM109.77 12.2002V14.0771H100.318V12.7364C101.346 10.8595 102.843 9.20596 104.809 7.7759C106.776 6.39052 107.714 5.16156 107.625 4.08901C107.625 2.74833 106.82 2.07799 105.212 2.07799C103.96 2.12268 103.134 2.8824 102.731 4.35715L100.586 3.41867C101.435 1.13951 103.067 -7.38651e-05 105.48 -7.38651e-05C108.25 0.133995 109.725 1.45233 109.904 3.95495C110.127 5.74253 108.988 7.44073 106.485 9.04955C104.921 10.2115 103.804 11.2617 103.134 12.2002C105.904 12.2002 108.116 12.2002 109.77 12.2002ZM120.383 12.2002V14.0771H110.931V12.7364C111.959 10.8595 113.456 9.20596 115.422 7.7759C117.389 6.39052 118.327 5.16156 118.238 4.08901C118.238 2.74833 117.433 2.07799 115.824 2.07799C114.573 2.12268 113.746 2.8824 113.344 4.35715L111.199 3.41867C112.048 1.13951 113.679 -7.38651e-05 116.093 -7.38651e-05C118.863 0.133995 120.338 1.45233 120.517 3.95495C120.74 5.74253 119.601 7.44073 117.098 9.04955C115.534 10.2115 114.417 11.2617 113.746 12.2002C116.517 12.2002 118.729 12.2002 120.383 12.2002ZM132.403 7.50776C132.448 6.88211 132.292 6.41287 131.934 6.10004C131.711 5.8319 131.398 5.69784 130.996 5.69784C129.253 5.8319 128.292 7.08321 128.113 9.45175C128.068 10.4349 128.18 11.0829 128.448 11.3957C128.716 11.5745 129.096 11.6639 129.588 11.6639C131.152 11.4404 132.091 10.0551 132.403 7.50776ZM137.096 13.6749L138.168 14.9486C136.202 16.5574 133.722 17.3618 130.728 17.3618C125.052 17.1383 122.125 14.3229 121.946 8.91548C122.393 3.32929 125.409 0.357442 130.996 -7.38651e-05C136.269 0.268063 139.062 2.83771 139.375 7.70886C139.151 11.3287 137.52 13.2504 134.481 13.4738C132.783 13.4738 132.001 12.8928 132.135 11.7309C131.42 12.8482 130.37 13.4068 128.985 13.4068C126.84 13.3621 125.812 11.9767 125.901 9.25065C126.348 5.85425 128.001 4.02198 130.862 3.75384C131.845 3.79853 132.493 4.17839 132.806 4.89343L132.94 3.95495H135.018C134.526 7.35135 134.236 9.40706 134.146 10.1221C133.923 11.3287 134.169 11.865 134.884 11.7309C136.358 11.5522 137.14 10.2338 137.23 7.7759C137.096 3.9326 134.973 1.96626 130.862 1.87688C126.705 2.14502 124.471 4.46888 124.158 8.84845C124.113 13.3174 126.348 15.5295 130.862 15.4848C133.498 15.5295 135.576 14.9262 137.096 13.6749ZM147.709 6.56928H154.345V11.865C153.094 13.5185 151.038 14.3453 148.178 14.3453C143.575 14.1665 141.184 11.798 141.005 7.23962C141.184 2.59192 143.485 0.178684 147.91 -7.38651e-05C151.038 0.0446156 153.138 1.40765 154.211 4.08901L151.798 4.75936C151.172 3.01647 149.854 2.12268 147.843 2.07799C145.072 2.30143 143.597 4.02198 143.418 7.23962C143.597 10.4573 145.161 12.1778 148.111 12.4013C149.943 12.4013 151.261 11.932 152.066 10.9935V8.58031H147.709V6.56928ZM170.321 7.64183V14.1442H168.108V7.84293C168.153 6.2788 167.617 5.54142 166.5 5.6308C165.159 5.72018 164.444 6.4799 164.355 7.90997V14.1442H162.142V7.84293C162.187 6.2788 161.651 5.54142 160.534 5.6308C159.282 5.72018 158.567 6.45756 158.389 7.84293V14.1442H156.176V3.95495H158.389V5.09453C158.969 4.20074 159.752 3.7315 160.735 3.68681C162.254 3.68681 163.327 4.24543 163.952 5.36267C164.667 4.24543 165.561 3.68681 166.634 3.68681C169.092 3.64212 170.321 4.96046 170.321 7.64183ZM178.788 10.0551C178.788 9.8763 178.788 9.56348 178.788 9.11658C178.386 9.51879 177.515 9.78692 176.174 9.92099C174.655 10.0551 173.94 10.5466 174.029 11.3957C173.984 12.1108 174.565 12.4683 175.772 12.4683C177.649 12.3342 178.654 11.5298 178.788 10.0551ZM181.872 14.1442H179.66C179.302 13.876 179.101 13.4515 179.057 12.8705C178.297 13.8537 177.09 14.3453 175.437 14.3453C173.068 14.3006 171.839 13.3397 171.75 11.4628C171.794 9.45175 173.113 8.31217 175.705 8.04403C177.537 7.86528 178.565 7.64183 178.788 7.37369C178.922 6.0777 178.252 5.47439 176.777 5.56377C175.213 5.47439 174.342 6.05535 174.163 7.30666L172.018 6.70335C172.51 4.55825 174.118 3.5304 176.844 3.61977C179.66 3.57509 181.045 4.91577 181.001 7.64183V11.5298C181.001 12.6917 181.291 13.5632 181.872 14.1442ZM183.1 3.88791H185.312V14.1442H183.1V3.88791ZM183.1 0.268063H185.312V2.74833H183.1V0.268063ZM187.211 0.268063H189.423V14.1442H187.211V0.268063ZM191.924 11.4628H194.673V14.1442H191.924V11.4628ZM205.688 6.83742L203.476 7.37369C203.163 6.25645 202.47 5.67549 201.398 5.6308C199.699 5.6308 198.85 6.79273 198.85 9.11658C198.85 11.3957 199.699 12.5353 201.398 12.5353C202.694 12.58 203.453 11.865 203.677 10.3902L205.889 10.8595C205.353 13.3174 203.833 14.5017 201.331 14.4123C198.202 14.3229 196.594 12.5577 196.504 9.11658C196.638 5.67549 198.225 3.86557 201.264 3.68681C203.632 3.77619 205.107 4.82639 205.688 6.83742ZM211.206 12.6694C212.904 12.6247 213.776 11.4404 213.82 9.11658C213.776 6.79273 212.904 5.60846 211.206 5.56377C209.419 5.60846 208.502 6.81507 208.458 9.18362C208.502 11.4181 209.419 12.58 211.206 12.6694ZM211.34 3.68681C214.424 3.82088 216.033 5.60846 216.167 9.04955C216.122 12.5353 214.446 14.3229 211.139 14.4123C208.011 14.2335 206.357 12.513 206.179 9.25065C206.268 5.6308 207.989 3.77619 211.34 3.68681ZM231.74 7.64183V14.1442H229.528V7.84293C229.573 6.2788 229.036 5.54142 227.919 5.6308C226.578 5.72018 225.863 6.4799 225.774 7.90997V14.1442H223.562V7.84293C223.607 6.2788 223.07 5.54142 221.953 5.6308C220.702 5.72018 219.987 6.45756 219.808 7.84293V14.1442H217.596V3.95495H219.808V5.09453C220.389 4.20074 221.171 3.7315 222.154 3.68681C223.674 3.68681 224.746 4.24543 225.372 5.36267C226.087 4.24543 226.981 3.68681 228.053 3.68681C230.511 3.64212 231.74 4.96046 231.74 7.64183Z" fill="#FFB16F"/>
<path d="M0.402241 3.88791H3.08361L5.16167 7.03852C5.20636 7.08321 5.2734 7.17259 5.36277 7.30666C5.40746 7.44073 5.45215 7.53011 5.49684 7.57479C5.54153 7.44073 5.63091 7.26197 5.76498 7.03852C5.89905 6.85976 6.59174 5.8319 7.84304 3.95495H10.5244L6.70346 9.04955L10.7925 14.1442H7.97711L5.76498 10.9935C5.72029 10.9489 5.6756 10.8595 5.63091 10.7254C5.54153 10.5913 5.4745 10.502 5.42981 10.4573C5.34043 10.6807 5.22871 10.8595 5.09464 10.9935L2.74844 14.1442H3.5271e-05L4.22319 8.98251L0.402241 3.88791ZM11.6854 3.88791H13.8976V14.1442H11.6854V3.88791ZM11.6854 0.268063H13.8976V2.74833H11.6854V0.268063ZM20.2202 12.6694C21.9184 12.6247 22.7899 11.4404 22.8346 9.11658C22.7899 6.79273 21.9184 5.60846 20.2202 5.56377C18.4327 5.60846 17.5165 6.81507 17.4718 9.18362C17.5165 11.4181 18.4327 12.58 20.2202 12.6694ZM20.3543 3.68681C23.4379 3.82088 25.0467 5.60846 25.1808 9.04955C25.1361 12.5353 23.4602 14.3229 20.1532 14.4123C17.0249 14.2335 15.3714 12.513 15.1927 9.25065C15.2821 5.6308 17.0026 3.77619 20.3543 3.68681ZM35.3914 7.64183V14.1442H33.1793V7.84293C33.1793 6.32349 32.576 5.56377 31.3694 5.56377C29.7606 5.69784 28.8891 6.4799 28.755 7.90997V14.1442H26.6099V3.88791H28.755V5.16156C29.3807 4.17839 30.3415 3.68681 31.6375 3.68681C34.2295 3.59743 35.4808 4.91577 35.3914 7.64183ZM44.0603 9.45175V7.977C43.9262 6.50225 43.1442 5.72018 41.7141 5.6308C39.9265 5.67549 39.0104 6.79273 38.9657 8.98251C39.0104 11.0382 39.8595 12.1108 41.513 12.2002C43.2112 12.2002 44.0603 11.284 44.0603 9.45175ZM44.0603 3.95495H46.2724V12.6694C46.4065 15.887 44.7306 17.4512 41.2449 17.3618C39.5467 17.3618 38.2283 16.8702 37.2898 15.887L38.4294 14.6134C39.2338 15.1497 40.15 15.4401 41.1778 15.4848C43.2335 15.5742 44.1944 14.6804 44.0603 12.8035C43.524 13.5632 42.5409 13.943 41.1108 13.943C38.34 13.809 36.8876 12.1555 36.7536 8.98251C36.8876 5.6308 38.4071 3.88791 41.3119 3.75384C42.6526 3.84322 43.5687 4.33481 44.0603 5.2286C44.0603 4.73701 44.0603 4.31246 44.0603 3.95495ZM52.461 12.5353L52.8632 13.943C52.2376 14.1665 51.6119 14.3006 50.9863 14.3453C49.3328 14.3899 48.5284 13.5632 48.573 11.865V5.69784H47.1653V3.88791H48.573V1.34061L50.7181 0.268063L50.7852 3.88791H52.5951L52.5281 5.69784H50.7852V11.798C50.7405 12.4683 50.9416 12.7588 51.3885 12.6694C51.746 12.6694 52.1035 12.6247 52.461 12.5353ZM53.6891 3.88791H55.9012V14.1442H53.6891V3.88791ZM53.6891 0.268063H55.9012V2.74833H53.6891V0.268063ZM66.5811 7.64183V14.1442H64.369V7.84293C64.369 6.32349 63.7657 5.56377 62.5591 5.56377C60.9502 5.69784 60.0788 6.4799 59.9447 7.90997V14.1442H57.7996V3.88791H59.9447V5.16156C60.5704 4.17839 61.5312 3.68681 62.8272 3.68681C65.4192 3.59743 66.6705 4.91577 66.5811 7.64183ZM75.25 9.45175V7.977C75.1159 6.50225 74.3339 5.72018 72.9038 5.6308C71.1162 5.67549 70.2001 6.79273 70.1554 8.98251C70.2001 11.0382 71.0492 12.1108 72.7027 12.2002C74.4009 12.2002 75.25 11.284 75.25 9.45175ZM75.25 3.95495H77.4621V12.6694C77.5962 15.887 75.9203 17.4512 72.4346 17.3618C70.7364 17.3618 69.418 16.8702 68.4795 15.887L69.6191 14.6134C70.4235 15.1497 71.3397 15.4401 72.3675 15.4848C74.4232 15.5742 75.3841 14.6804 75.25 12.8035C74.7137 13.5632 73.7305 13.943 72.3005 13.943C69.5297 13.809 68.0773 12.1555 67.9433 8.98251C68.0773 5.6308 69.5968 3.88791 72.5016 3.75384C73.8423 3.84322 74.7584 4.33481 75.25 5.2286C75.25 4.73701 75.25 4.31246 75.25 3.95495ZM78.8243 10.5913L81.1034 10.0551C81.2822 11.6192 82.1089 12.4236 83.5837 12.4683C85.416 12.513 86.3097 11.6862 86.2651 9.98803C86.131 8.64734 85.2372 7.95466 83.5837 7.90997H81.9078V5.96597H83.0474C84.7456 5.96597 85.6394 5.25094 85.7288 3.82088C85.6841 2.65895 85.0138 2.05564 83.7178 2.01095C82.4218 2.10033 81.6397 2.83771 81.3716 4.22308L79.0924 3.68681C79.718 1.27358 81.2375 0.0446156 83.6507 -7.38651e-05C86.5109 0.0446156 87.9856 1.34061 88.075 3.88791C88.075 5.2286 87.3376 6.18942 85.8629 6.77038C87.6504 7.48542 88.5666 8.60265 88.6113 10.1221C88.4325 12.8035 86.8013 14.2112 83.7178 14.3453C80.947 14.3006 79.3158 13.0493 78.8243 10.5913ZM95.3361 8.91548V3.75384L91.7163 8.91548H95.3361ZM99.3582 8.91548V10.9265C98.956 10.9265 98.3303 10.9265 97.4812 10.9265C97.4812 12.3119 97.4812 13.3844 97.4812 14.1442H95.3361C95.3361 13.3844 95.3361 12.3119 95.3361 10.9265C92.9229 10.9265 90.8448 10.9265 89.1019 10.9265V9.38472L95.8054 -7.38651e-05H97.4812C97.4812 2.63661 97.4812 5.60846 97.4812 8.91548C98.3303 8.91548 98.956 8.91548 99.3582 8.91548ZM109.77 12.2002V14.0771H100.318V12.7364C101.346 10.8595 102.843 9.20596 104.809 7.7759C106.776 6.39052 107.714 5.16156 107.625 4.08901C107.625 2.74833 106.82 2.07799 105.212 2.07799C103.96 2.12268 103.134 2.8824 102.731 4.35715L100.586 3.41867C101.435 1.13951 103.067 -7.38651e-05 105.48 -7.38651e-05C108.25 0.133995 109.725 1.45233 109.904 3.95495C110.127 5.74253 108.988 7.44073 106.485 9.04955C104.921 10.2115 103.804 11.2617 103.134 12.2002C105.904 12.2002 108.116 12.2002 109.77 12.2002ZM120.383 12.2002V14.0771H110.931V12.7364C111.959 10.8595 113.456 9.20596 115.422 7.7759C117.389 6.39052 118.327 5.16156 118.238 4.08901C118.238 2.74833 117.433 2.07799 115.824 2.07799C114.573 2.12268 113.746 2.8824 113.344 4.35715L111.199 3.41867C112.048 1.13951 113.679 -7.38651e-05 116.093 -7.38651e-05C118.863 0.133995 120.338 1.45233 120.517 3.95495C120.74 5.74253 119.601 7.44073 117.098 9.04955C115.534 10.2115 114.417 11.2617 113.746 12.2002C116.517 12.2002 118.729 12.2002 120.383 12.2002ZM132.403 7.50776C132.448 6.88211 132.292 6.41287 131.934 6.10004C131.711 5.8319 131.398 5.69784 130.996 5.69784C129.253 5.8319 128.292 7.08321 128.113 9.45175C128.068 10.4349 128.18 11.0829 128.448 11.3957C128.716 11.5745 129.096 11.6639 129.588 11.6639C131.152 11.4404 132.091 10.0551 132.403 7.50776ZM137.096 13.6749L138.168 14.9486C136.202 16.5574 133.722 17.3618 130.728 17.3618C125.052 17.1383 122.125 14.3229 121.946 8.91548C122.393 3.32929 125.409 0.357442 130.996 -7.38651e-05C136.269 0.268063 139.062 2.83771 139.375 7.70886C139.151 11.3287 137.52 13.2504 134.481 13.4738C132.783 13.4738 132.001 12.8928 132.135 11.7309C131.42 12.8482 130.37 13.4068 128.985 13.4068C126.84 13.3621 125.812 11.9767 125.901 9.25065C126.348 5.85425 128.001 4.02198 130.862 3.75384C131.845 3.79853 132.493 4.17839 132.806 4.89343L132.94 3.95495H135.018C134.526 7.35135 134.236 9.40706 134.146 10.1221C133.923 11.3287 134.169 11.865 134.884 11.7309C136.358 11.5522 137.14 10.2338 137.23 7.7759C137.096 3.9326 134.973 1.96626 130.862 1.87688C126.705 2.14502 124.471 4.46888 124.158 8.84845C124.113 13.3174 126.348 15.5295 130.862 15.4848C133.498 15.5295 135.576 14.9262 137.096 13.6749ZM147.709 6.56928H154.345V11.865C153.094 13.5185 151.038 14.3453 148.178 14.3453C143.575 14.1665 141.184 11.798 141.005 7.23962C141.184 2.59192 143.485 0.178684 147.91 -7.38651e-05C151.038 0.0446156 153.138 1.40765 154.211 4.08901L151.798 4.75936C151.172 3.01647 149.854 2.12268 147.843 2.07799C145.072 2.30143 143.597 4.02198 143.418 7.23962C143.597 10.4573 145.161 12.1778 148.111 12.4013C149.943 12.4013 151.261 11.932 152.066 10.9935V8.58031H147.709V6.56928ZM170.321 7.64183V14.1442H168.108V7.84293C168.153 6.2788 167.617 5.54142 166.5 5.6308C165.159 5.72018 164.444 6.4799 164.355 7.90997V14.1442H162.142V7.84293C162.187 6.2788 161.651 5.54142 160.534 5.6308C159.282 5.72018 158.567 6.45756 158.389 7.84293V14.1442H156.176V3.95495H158.389V5.09453C158.969 4.20074 159.752 3.7315 160.735 3.68681C162.254 3.68681 163.327 4.24543 163.952 5.36267C164.667 4.24543 165.561 3.68681 166.634 3.68681C169.092 3.64212 170.321 4.96046 170.321 7.64183ZM178.788 10.0551C178.788 9.8763 178.788 9.56348 178.788 9.11658C178.386 9.51879 177.515 9.78692 176.174 9.92099C174.655 10.0551 173.94 10.5466 174.029 11.3957C173.984 12.1108 174.565 12.4683 175.772 12.4683C177.649 12.3342 178.654 11.5298 178.788 10.0551ZM181.872 14.1442H179.66C179.302 13.876 179.101 13.4515 179.057 12.8705C178.297 13.8537 177.09 14.3453 175.437 14.3453C173.068 14.3006 171.839 13.3397 171.75 11.4628C171.794 9.45175 173.113 8.31217 175.705 8.04403C177.537 7.86528 178.565 7.64183 178.788 7.37369C178.922 6.0777 178.252 5.47439 176.777 5.56377C175.213 5.47439 174.342 6.05535 174.163 7.30666L172.018 6.70335C172.51 4.55825 174.118 3.5304 176.844 3.61977C179.66 3.57509 181.045 4.91577 181.001 7.64183V11.5298C181.001 12.6917 181.291 13.5632 181.872 14.1442ZM183.1 3.88791H185.312V14.1442H183.1V3.88791ZM183.1 0.268063H185.312V2.74833H183.1V0.268063ZM187.211 0.268063H189.423V14.1442H187.211V0.268063ZM191.924 11.4628H194.673V14.1442H191.924V11.4628ZM205.688 6.83742L203.476 7.37369C203.163 6.25645 202.47 5.67549 201.398 5.6308C199.699 5.6308 198.85 6.79273 198.85 9.11658C198.85 11.3957 199.699 12.5353 201.398 12.5353C202.694 12.58 203.453 11.865 203.677 10.3902L205.889 10.8595C205.353 13.3174 203.833 14.5017 201.331 14.4123C198.202 14.3229 196.594 12.5577 196.504 9.11658C196.638 5.67549 198.225 3.86557 201.264 3.68681C203.632 3.77619 205.107 4.82639 205.688 6.83742ZM211.206 12.6694C212.904 12.6247 213.776 11.4404 213.82 9.11658C213.776 6.79273 212.904 5.60846 211.206 5.56377C209.419 5.60846 208.502 6.81507 208.458 9.18362C208.502 11.4181 209.419 12.58 211.206 12.6694ZM211.34 3.68681C214.424 3.82088 216.033 5.60846 216.167 9.04955C216.122 12.5353 214.446 14.3229 211.139 14.4123C208.011 14.2335 206.357 12.513 206.179 9.25065C206.268 5.6308 207.989 3.77619 211.34 3.68681ZM231.74 7.64183V14.1442H229.528V7.84293C229.573 6.2788 229.036 5.54142 227.919 5.6308C226.578 5.72018 225.863 6.4799 225.774 7.90997V14.1442H223.562V7.84293C223.607 6.2788 223.07 5.54142 221.953 5.6308C220.702 5.72018 219.987 6.45756 219.808 7.84293V14.1442H217.596V3.95495H219.808V5.09453C220.389 4.20074 221.171 3.7315 222.154 3.68681C223.674 3.68681 224.746 4.24543 225.372 5.36267C226.087 4.24543 226.981 3.68681 228.053 3.68681C230.511 3.64212 231.74 4.96046 231.74 7.64183Z" fill="#D5D5D5"/>
<path d="M0.402241 3.88791H3.08361L5.16167 7.03852C5.20636 7.08321 5.2734 7.17259 5.36277 7.30666C5.40746 7.44073 5.45215 7.53011 5.49684 7.57479C5.54153 7.44073 5.63091 7.26197 5.76498 7.03852C5.89905 6.85976 6.59174 5.8319 7.84304 3.95495H10.5244L6.70346 9.04955L10.7925 14.1442H7.97711L5.76498 10.9935C5.72029 10.9489 5.6756 10.8595 5.63091 10.7254C5.54153 10.5913 5.4745 10.502 5.42981 10.4573C5.34043 10.6807 5.22871 10.8595 5.09464 10.9935L2.74844 14.1442H3.5271e-05L4.22319 8.98251L0.402241 3.88791ZM11.6854 3.88791H13.8976V14.1442H11.6854V3.88791ZM11.6854 0.268063H13.8976V2.74833H11.6854V0.268063ZM20.2202 12.6694C21.9184 12.6247 22.7899 11.4404 22.8346 9.11658C22.7899 6.79273 21.9184 5.60846 20.2202 5.56377C18.4327 5.60846 17.5165 6.81507 17.4718 9.18362C17.5165 11.4181 18.4327 12.58 20.2202 12.6694ZM20.3543 3.68681C23.4379 3.82088 25.0467 5.60846 25.1808 9.04955C25.1361 12.5353 23.4602 14.3229 20.1532 14.4123C17.0249 14.2335 15.3714 12.513 15.1927 9.25065C15.2821 5.6308 17.0026 3.77619 20.3543 3.68681ZM35.3914 7.64183V14.1442H33.1793V7.84293C33.1793 6.32349 32.576 5.56377 31.3694 5.56377C29.7606 5.69784 28.8891 6.4799 28.755 7.90997V14.1442H26.6099V3.88791H28.755V5.16156C29.3807 4.17839 30.3415 3.68681 31.6375 3.68681C34.2295 3.59743 35.4808 4.91577 35.3914 7.64183ZM44.0603 9.45175V7.977C43.9262 6.50225 43.1442 5.72018 41.7141 5.6308C39.9265 5.67549 39.0104 6.79273 38.9657 8.98251C39.0104 11.0382 39.8595 12.1108 41.513 12.2002C43.2112 12.2002 44.0603 11.284 44.0603 9.45175ZM44.0603 3.95495H46.2724V12.6694C46.4065 15.887 44.7306 17.4512 41.2449 17.3618C39.5467 17.3618 38.2283 16.8702 37.2898 15.887L38.4294 14.6134C39.2338 15.1497 40.15 15.4401 41.1778 15.4848C43.2335 15.5742 44.1944 14.6804 44.0603 12.8035C43.524 13.5632 42.5409 13.943 41.1108 13.943C38.34 13.809 36.8876 12.1555 36.7536 8.98251C36.8876 5.6308 38.4071 3.88791 41.3119 3.75384C42.6526 3.84322 43.5687 4.33481 44.0603 5.2286C44.0603 4.73701 44.0603 4.31246 44.0603 3.95495ZM52.461 12.5353L52.8632 13.943C52.2376 14.1665 51.6119 14.3006 50.9863 14.3453C49.3328 14.3899 48.5284 13.5632 48.573 11.865V5.69784H47.1653V3.88791H48.573V1.34061L50.7181 0.268063L50.7852 3.88791H52.5951L52.5281 5.69784H50.7852V11.798C50.7405 12.4683 50.9416 12.7588 51.3885 12.6694C51.746 12.6694 52.1035 12.6247 52.461 12.5353ZM53.6891 3.88791H55.9012V14.1442H53.6891V3.88791ZM53.6891 0.268063H55.9012V2.74833H53.6891V0.268063ZM66.5811 7.64183V14.1442H64.369V7.84293C64.369 6.32349 63.7657 5.56377 62.5591 5.56377C60.9502 5.69784 60.0788 6.4799 59.9447 7.90997V14.1442H57.7996V3.88791H59.9447V5.16156C60.5704 4.17839 61.5312 3.68681 62.8272 3.68681C65.4192 3.59743 66.6705 4.91577 66.5811 7.64183ZM75.25 9.45175V7.977C75.1159 6.50225 74.3339 5.72018 72.9038 5.6308C71.1162 5.67549 70.2001 6.79273 70.1554 8.98251C70.2001 11.0382 71.0492 12.1108 72.7027 12.2002C74.4009 12.2002 75.25 11.284 75.25 9.45175ZM75.25 3.95495H77.4621V12.6694C77.5962 15.887 75.9203 17.4512 72.4346 17.3618C70.7364 17.3618 69.418 16.8702 68.4795 15.887L69.6191 14.6134C70.4235 15.1497 71.3397 15.4401 72.3675 15.4848C74.4232 15.5742 75.3841 14.6804 75.25 12.8035C74.7137 13.5632 73.7305 13.943 72.3005 13.943C69.5297 13.809 68.0773 12.1555 67.9433 8.98251C68.0773 5.6308 69.5968 3.88791 72.5016 3.75384C73.8423 3.84322 74.7584 4.33481 75.25 5.2286C75.25 4.73701 75.25 4.31246 75.25 3.95495ZM78.8243 10.5913L81.1034 10.0551C81.2822 11.6192 82.1089 12.4236 83.5837 12.4683C85.416 12.513 86.3097 11.6862 86.2651 9.98803C86.131 8.64734 85.2372 7.95466 83.5837 7.90997H81.9078V5.96597H83.0474C84.7456 5.96597 85.6394 5.25094 85.7288 3.82088C85.6841 2.65895 85.0138 2.05564 83.7178 2.01095C82.4218 2.10033 81.6397 2.83771 81.3716 4.22308L79.0924 3.68681C79.718 1.27358 81.2375 0.0446156 83.6507 -7.38651e-05C86.5109 0.0446156 87.9856 1.34061 88.075 3.88791C88.075 5.2286 87.3376 6.18942 85.8629 6.77038C87.6504 7.48542 88.5666 8.60265 88.6113 10.1221C88.4325 12.8035 86.8013 14.2112 83.7178 14.3453C80.947 14.3006 79.3158 13.0493 78.8243 10.5913ZM95.3361 8.91548V3.75384L91.7163 8.91548H95.3361ZM99.3582 8.91548V10.9265C98.956 10.9265 98.3303 10.9265 97.4812 10.9265C97.4812 12.3119 97.4812 13.3844 97.4812 14.1442H95.3361C95.3361 13.3844 95.3361 12.3119 95.3361 10.9265C92.9229 10.9265 90.8448 10.9265 89.1019 10.9265V9.38472L95.8054 -7.38651e-05H97.4812C97.4812 2.63661 97.4812 5.60846 97.4812 8.91548C98.3303 8.91548 98.956 8.91548 99.3582 8.91548ZM109.77 12.2002V14.0771H100.318V12.7364C101.346 10.8595 102.843 9.20596 104.809 7.7759C106.776 6.39052 107.714 5.16156 107.625 4.08901C107.625 2.74833 106.82 2.07799 105.212 2.07799C103.96 2.12268 103.134 2.8824 102.731 4.35715L100.586 3.41867C101.435 1.13951 103.067 -7.38651e-05 105.48 -7.38651e-05C108.25 0.133995 109.725 1.45233 109.904 3.95495C110.127 5.74253 108.988 7.44073 106.485 9.04955C104.921 10.2115 103.804 11.2617 103.134 12.2002C105.904 12.2002 108.116 12.2002 109.77 12.2002ZM120.383 12.2002V14.0771H110.931V12.7364C111.959 10.8595 113.456 9.20596 115.422 7.7759C117.389 6.39052 118.327 5.16156 118.238 4.08901C118.238 2.74833 117.433 2.07799 115.824 2.07799C114.573 2.12268 113.746 2.8824 113.344 4.35715L111.199 3.41867C112.048 1.13951 113.679 -7.38651e-05 116.093 -7.38651e-05C118.863 0.133995 120.338 1.45233 120.517 3.95495C120.74 5.74253 119.601 7.44073 117.098 9.04955C115.534 10.2115 114.417 11.2617 113.746 12.2002C116.517 12.2002 118.729 12.2002 120.383 12.2002ZM132.403 7.50776C132.448 6.88211 132.292 6.41287 131.934 6.10004C131.711 5.8319 131.398 5.69784 130.996 5.69784C129.253 5.8319 128.292 7.08321 128.113 9.45175C128.068 10.4349 128.18 11.0829 128.448 11.3957C128.716 11.5745 129.096 11.6639 129.588 11.6639C131.152 11.4404 132.091 10.0551 132.403 7.50776ZM137.096 13.6749L138.168 14.9486C136.202 16.5574 133.722 17.3618 130.728 17.3618C125.052 17.1383 122.125 14.3229 121.946 8.91548C122.393 3.32929 125.409 0.357442 130.996 -7.38651e-05C136.269 0.268063 139.062 2.83771 139.375 7.70886C139.151 11.3287 137.52 13.2504 134.481 13.4738C132.783 13.4738 132.001 12.8928 132.135 11.7309C131.42 12.8482 130.37 13.4068 128.985 13.4068C126.84 13.3621 125.812 11.9767 125.901 9.25065C126.348 5.85425 128.001 4.02198 130.862 3.75384C131.845 3.79853 132.493 4.17839 132.806 4.89343L132.94 3.95495H135.018C134.526 7.35135 134.236 9.40706 134.146 10.1221C133.923 11.3287 134.169 11.865 134.884 11.7309C136.358 11.5522 137.14 10.2338 137.23 7.7759C137.096 3.9326 134.973 1.96626 130.862 1.87688C126.705 2.14502 124.471 4.46888 124.158 8.84845C124.113 13.3174 126.348 15.5295 130.862 15.4848C133.498 15.5295 135.576 14.9262 137.096 13.6749ZM147.709 6.56928H154.345V11.865C153.094 13.5185 151.038 14.3453 148.178 14.3453C143.575 14.1665 141.184 11.798 141.005 7.23962C141.184 2.59192 143.485 0.178684 147.91 -7.38651e-05C151.038 0.0446156 153.138 1.40765 154.211 4.08901L151.798 4.75936C151.172 3.01647 149.854 2.12268 147.843 2.07799C145.072 2.30143 143.597 4.02198 143.418 7.23962C143.597 10.4573 145.161 12.1778 148.111 12.4013C149.943 12.4013 151.261 11.932 152.066 10.9935V8.58031H147.709V6.56928ZM170.321 7.64183V14.1442H168.108V7.84293C168.153 6.2788 167.617 5.54142 166.5 5.6308C165.159 5.72018 164.444 6.4799 164.355 7.90997V14.1442H162.142V7.84293C162.187 6.2788 161.651 5.54142 160.534 5.6308C159.282 5.72018 158.567 6.45756 158.389 7.84293V14.1442H156.176V3.95495H158.389V5.09453C158.969 4.20074 159.752 3.7315 160.735 3.68681C162.254 3.68681 163.327 4.24543 163.952 5.36267C164.667 4.24543 165.561 3.68681 166.634 3.68681C169.092 3.64212 170.321 4.96046 170.321 7.64183ZM178.788 10.0551C178.788 9.8763 178.788 9.56348 178.788 9.11658C178.386 9.51879 177.515 9.78692 176.174 9.92099C174.655 10.0551 173.94 10.5466 174.029 11.3957C173.984 12.1108 174.565 12.4683 175.772 12.4683C177.649 12.3342 178.654 11.5298 178.788 10.0551ZM181.872 14.1442H179.66C179.302 13.876 179.101 13.4515 179.057 12.8705C178.297 13.8537 177.09 14.3453 175.437 14.3453C173.068 14.3006 171.839 13.3397 171.75 11.4628C171.794 9.45175 173.113 8.31217 175.705 8.04403C177.537 7.86528 178.565 7.64183 178.788 7.37369C178.922 6.0777 178.252 5.47439 176.777 5.56377C175.213 5.47439 174.342 6.05535 174.163 7.30666L172.018 6.70335C172.51 4.55825 174.118 3.5304 176.844 3.61977C179.66 3.57509 181.045 4.91577 181.001 7.64183V11.5298C181.001 12.6917 181.291 13.5632 181.872 14.1442ZM183.1 3.88791H185.312V14.1442H183.1V3.88791ZM183.1 0.268063H185.312V2.74833H183.1V0.268063ZM187.211 0.268063H189.423V14.1442H187.211V0.268063ZM191.924 11.4628H194.673V14.1442H191.924V11.4628ZM205.688 6.83742L203.476 7.37369C203.163 6.25645 202.47 5.67549 201.398 5.6308C199.699 5.6308 198.85 6.79273 198.85 9.11658C198.85 11.3957 199.699 12.5353 201.398 12.5353C202.694 12.58 203.453 11.865 203.677 10.3902L205.889 10.8595C205.353 13.3174 203.833 14.5017 201.331 14.4123C198.202 14.3229 196.594 12.5577 196.504 9.11658C196.638 5.67549 198.225 3.86557 201.264 3.68681C203.632 3.77619 205.107 4.82639 205.688 6.83742ZM211.206 12.6694C212.904 12.6247 213.776 11.4404 213.82 9.11658C213.776 6.79273 212.904 5.60846 211.206 5.56377C209.419 5.60846 208.502 6.81507 208.458 9.18362C208.502 11.4181 209.419 12.58 211.206 12.6694ZM211.34 3.68681C214.424 3.82088 216.033 5.60846 216.167 9.04955C216.122 12.5353 214.446 14.3229 211.139 14.4123C208.011 14.2335 206.357 12.513 206.179 9.25065C206.268 5.6308 207.989 3.77619 211.34 3.68681ZM231.74 7.64183V14.1442H229.528V7.84293C229.573 6.2788 229.036 5.54142 227.919 5.6308C226.578 5.72018 225.863 6.4799 225.774 7.90997V14.1442H223.562V7.84293C223.607 6.2788 223.07 5.54142 221.953 5.6308C220.702 5.72018 219.987 6.45756 219.808 7.84293V14.1442H217.596V3.95495H219.808V5.09453C220.389 4.20074 221.171 3.7315 222.154 3.68681C223.674 3.68681 224.746 4.24543 225.372 5.36267C226.087 4.24543 226.981 3.68681 228.053 3.68681C230.511 3.64212 231.74 4.96046 231.74 7.64183Z" fill="black"/>
</svg>
