<svg width="205" height="24" viewBox="0 0 205 24" fill="none" xmlns="http://www.w3.org/2000/svg">
<path d="M-7.51615e-05 12.965V9.99587H24.0496V12.965H-7.51615e-05ZM25.5658 5.44325V3.26591H29.5246V0.0988755H31.9989V3.26591H35.7598V5.44325H31.9989V8.61029H36.4525V10.7876H32.9886V14.3506H36.1556V16.5279H32.9886V20.5857C33.9783 20.7836 35.1989 20.8826 36.6505 20.8826C41.8629 20.8826 45.8547 20.8826 48.6258 20.8826C48.2959 21.6743 48.065 22.4331 47.9331 23.1589C42.7866 23.1589 38.9268 23.1259 36.3536 23.0599C31.9989 23.1259 29.1947 21.9382 27.9411 19.497C27.6112 20.8826 27.0834 22.3011 26.3576 23.7527C25.7638 23.2249 25.137 22.664 24.4772 22.0702C25.7968 20.0248 26.3906 16.7258 26.2586 12.1732L28.5349 12.3712C28.5349 13.8887 28.502 15.2413 28.436 16.4289C29.0298 17.8145 29.7226 18.8042 30.5143 19.398V10.7876H24.7741V8.61029H29.5246V5.44325H25.5658ZM41.1041 18.8042C38.6629 18.8702 37.4752 17.7485 37.5412 15.4392V7.9175H44.4691V3.76076H37.1453V1.38549H46.9434V10.3918H40.1144V14.8454C40.0485 15.9671 40.5763 16.4949 41.698 16.4289H43.7763C44.898 16.4949 45.5248 16.033 45.6567 15.0433C45.7887 14.5815 45.9207 13.7897 46.0526 12.6681C46.0526 12.4701 46.0526 12.3382 46.0526 12.2722C46.8444 12.5361 47.6361 12.767 48.4279 12.965C48.2959 14.0207 48.131 15.0104 47.9331 15.9341C47.6032 17.9794 46.3495 18.9362 44.1722 18.8042H41.1041ZM55.0906 16.9238C55.0246 16.6598 54.8926 16.3299 54.6947 15.9341C54.4967 15.4722 54.3318 15.1423 54.1998 14.9444L52.2204 23.5548L49.6472 22.862C50.439 20.3547 51.1648 17.3856 51.8246 13.9547C52.0885 14.0207 52.4514 14.1196 52.9132 14.2516C53.4411 14.4495 53.804 14.5815 54.0019 14.6475C54.0019 14.6475 54.0019 14.6145 54.0019 14.5485C56.1792 13.2949 57.9607 11.6454 59.3463 9.59999H54.8926V7.52162H58.9504V4.75046H55.8823V2.67209H58.9504V0.0988755H61.4246V2.67209H65.8783V0.0988755H68.3525V2.67209H71.9155V4.75046H68.3525V7.52162H72.8062V9.59999H67.9567C69.2103 11.5134 70.9588 12.998 73.2021 14.0536L72.0144 16.3299C70.5629 15.4722 69.3422 14.5485 68.3525 13.5588V18.5073H59.7422V19.596C59.6762 20.5857 60.204 21.0475 61.3257 20.9815H67.4618C68.6495 21.0475 69.3093 20.6516 69.4412 19.7939C69.5072 19.53 69.6062 19.0351 69.7381 18.3093C69.8041 17.9135 69.8701 17.6166 69.9361 17.4186C70.6618 17.7485 71.3876 18.0124 72.1134 18.2104C71.9814 19.2001 71.7835 20.0908 71.5196 20.8826C71.1237 22.4001 69.9361 23.1589 67.9567 23.1589H60.4349C58.4555 23.0929 57.4329 22.1362 57.3669 20.2887V15.1423C56.6411 15.7361 55.8823 16.3299 55.0906 16.9238ZM59.7422 14.1526V16.6269H65.9773V14.1526H59.7422ZM62.0185 9.59999C61.4246 10.5237 60.7978 11.3815 60.138 12.1732H67.1649C66.769 11.7773 66.2412 11.0186 65.5814 9.8969C65.5154 9.76494 65.4494 9.66597 65.3834 9.59999H62.0185ZM53.0122 5.64119C52.5503 4.98139 51.8246 4.05767 50.8349 2.87003C50.373 2.27621 50.0431 1.84734 49.8452 1.58342L52.1215 0.395785L55.2885 4.15664L53.0122 5.64119ZM52.3194 12.1732C51.3957 10.9196 50.34 9.567 49.1524 8.11544L51.3297 6.9278C52.4514 8.11544 53.54 9.36906 54.5957 10.6887L52.3194 12.1732ZM61.4246 4.75046V7.52162H65.8783V4.75046H61.4246ZM96.4917 23.5548C93.9844 22.631 91.9391 21.7073 90.3555 20.7836C88.706 21.8393 86.5947 22.829 84.0215 23.7527C83.7575 23.0929 83.3617 22.3671 82.8338 21.5754C82.5699 22.631 81.8111 23.1919 80.5575 23.2578C79.8977 23.3238 79.106 23.3568 78.1822 23.3568C78.1163 23.0929 78.0503 22.73 77.9843 22.2681C77.8523 21.6743 77.7534 21.2455 77.6874 20.9815C77.8194 20.9815 78.0503 20.9815 78.3802 20.9815C78.7761 21.0475 79.106 21.0805 79.3699 21.0805C80.2936 21.1465 80.7225 20.7506 80.6565 19.8929V15.8351H77.4895C77.3575 18.9362 76.6977 21.5754 75.5101 23.7527C75.3121 23.5548 74.9492 23.2249 74.4214 22.763C74.0255 22.3011 73.7286 22.0042 73.5307 21.8723C74.2564 20.6846 74.7183 19.464 74.9162 18.2104C75.1142 16.9568 75.2131 14.8454 75.2131 11.8763V1.08858H82.9328V20.6846C82.9328 20.9485 82.8998 21.1795 82.8338 21.3774C85.0771 20.7836 86.9246 19.9918 88.3761 19.0021C87.0565 17.6825 85.9019 15.9011 84.9122 13.6578L86.3967 13.0639H84.3184V10.6887H96.2937V13.1629C95.1061 15.6702 93.7865 17.6495 92.3349 19.1011C93.7865 19.9588 95.6339 20.6186 97.8773 21.0805C97.3494 22.0042 96.8876 22.829 96.4917 23.5548ZM85.0112 10.1938C84.2194 9.40205 83.6256 8.84122 83.2297 8.51132C85.2751 7.45564 86.1988 5.80614 86.0009 3.56282V1.18755H94.8092V5.54222C94.7432 6.53192 95.1721 6.99378 96.0958 6.9278H97.7783C97.7123 7.2577 97.6463 7.71956 97.5804 8.31338C97.5144 8.70926 97.4814 9.00617 97.4814 9.20411H95.1061C93.2587 9.27009 92.3679 8.34637 92.4339 6.43295V3.46385H88.3761V4.05767C88.5741 6.69687 87.4524 8.74225 85.0112 10.1938ZM93.6216 13.0639H87.1885C88.1122 14.9114 89.1679 16.3959 90.3555 17.5176C91.5432 16.3299 92.6319 14.8454 93.6216 13.0639ZM77.5884 12.866V13.6578H80.6565V9.50102H77.5884V12.866ZM77.5884 3.26591V7.42265H80.6565V3.26591H77.5884ZM98.7007 7.12574V4.65149H102.264V0.197845H104.936V4.65149H108.004V7.12574H104.936V11.4804L108.301 10.6887C108.301 11.0186 108.334 11.5134 108.4 12.1732C108.4 12.7011 108.4 13.0639 108.4 13.2619L104.936 14.1526V20.5857C104.936 22.3671 104.012 23.2908 102.165 23.3568C101.637 23.4228 100.647 23.4558 99.1955 23.4558C99.0636 22.4661 98.8986 21.6083 98.7007 20.8826C99.4265 20.8826 100.152 20.8826 100.878 20.8826C101.868 20.9485 102.33 20.5527 102.264 19.6949V14.7464L98.6017 15.7361L98.2058 12.965C99.3935 12.6351 100.746 12.3382 102.264 12.0742V7.12574H98.7007ZM108.796 4.45355V1.78136H122.256V4.45355H118.297V19.596C118.363 22.1032 117.109 23.3568 114.536 23.3568C113.348 23.3568 112.062 23.3568 110.676 23.3568C110.544 22.697 110.346 21.8723 110.082 20.8826C111.138 20.8826 112.26 20.8826 113.447 20.8826C114.899 20.9485 115.559 20.2887 115.427 18.9032V4.45355H108.796ZM123.673 4.65149V2.47415H128.225C128.159 2.27621 128.06 1.9793 127.929 1.58342C127.731 0.923625 127.566 0.494755 127.434 0.296815L130.205 -9.45032e-05L130.997 2.47415H135.054V4.65149H126.543C127.203 5.50923 127.863 6.46594 128.522 7.52162L127.038 8.31338H129.908C130.304 7.65358 130.865 6.63089 131.59 5.24531C131.524 5.37727 131.623 5.21232 131.887 4.75046L134.164 5.54222C133.57 6.53192 132.976 7.45564 132.382 8.31338H135.549V10.4907H130.7V12.767H135.054V14.9444H130.7V20.4867C130.766 22.3341 129.875 23.2908 128.027 23.3568C127.83 23.3568 127.5 23.3568 127.038 23.3568C126.51 23.4228 126.081 23.4558 125.751 23.4558C125.685 23.1919 125.586 22.796 125.454 22.2681C125.322 21.6743 125.223 21.2455 125.157 20.9815C125.553 21.0475 126.147 21.0805 126.939 21.0805C127.863 21.1465 128.291 20.7836 128.225 19.9918V14.9444H123.574V12.767H128.225V10.4907H122.98V8.31338H126.345C126.213 8.11544 126.015 7.81853 125.751 7.42265C125.223 6.56491 124.827 5.97109 124.564 5.64119L126.444 4.65149H123.673ZM141.883 23.4558V11.1835H138.914V11.5794C139.046 16.7918 138.122 20.8166 136.143 23.6537C135.945 23.5218 135.582 23.2908 135.054 22.9609C134.592 22.631 134.23 22.3671 133.966 22.1692C135.747 19.8599 136.572 16.264 136.44 11.3815V1.88033C139.409 1.74837 142.51 1.45147 145.743 0.989605L146.535 3.26591C145.215 3.46385 143.269 3.69478 140.696 3.9587C139.904 4.02468 139.31 4.09066 138.914 4.15664V8.80823H146.931V11.1835H144.259V23.4558H141.883ZM124.761 21.3774L122.782 20.5857C123.574 19.2661 124.333 17.6825 125.058 15.8351L127.038 16.5279C126.246 18.5073 125.487 20.1238 124.761 21.3774ZM133.471 20.2887C133.075 19.6949 132.547 18.8042 131.887 17.6166C131.623 17.1547 131.425 16.8248 131.293 16.6269L133.174 15.7361C133.372 16.0001 133.603 16.3959 133.867 16.9238C134.527 17.9135 135.021 18.7052 135.351 19.299L133.471 20.2887ZM157.354 4.75046V2.77106H160.323C159.861 1.9793 159.334 1.22054 158.74 0.494755L161.115 -9.45032e-05C161.379 0.263825 161.874 0.923625 162.6 1.9793C162.798 2.37518 162.963 2.6391 163.095 2.77106H162.996H164.579C164.843 2.37518 165.239 1.71538 165.767 0.791665C165.965 0.395785 166.097 0.131865 166.163 -9.45032e-05L168.637 0.494755C168.505 0.692695 168.274 1.05559 167.944 1.58342C167.614 2.11126 167.383 2.50714 167.251 2.77106H170.913V4.75046H166.459V6.63089H170.319V10.4907H171.507V12.5691H170.319V16.4289H166.855C167.911 18.2764 169.495 19.7609 171.606 20.8826C171.144 21.4104 170.748 22.0372 170.418 22.763C168.637 21.5094 167.317 20.1898 166.459 18.8042V23.7527H164.381V16.4289H162.402V23.7527H160.323V18.9032C159.334 20.4207 158.047 21.7733 156.464 22.9609C156.266 22.5651 155.837 21.8723 155.177 20.8826C157.288 19.7609 158.872 18.2764 159.927 16.4289H157.552V14.5485H160.323V12.5691H157.156V10.4907H160.323V8.51132H157.651V6.63089H160.323V4.75046H157.354ZM148.348 16.5279V1.48445H156.464V16.4289H154.682V3.85973H150.129V16.5279H148.348ZM154.682 21.3774C153.89 20.6516 153.165 19.9588 152.505 19.299C151.845 20.7506 150.591 22.3011 148.744 23.9506C148.414 23.3568 147.952 22.697 147.358 21.9712C149.074 20.5857 150.162 19.2661 150.624 18.0124C151.152 16.8248 151.416 14.8124 151.416 11.9753V5.54222H153.395V11.9753C153.395 14.0207 153.296 15.6702 153.099 16.9238C153.494 17.2537 154.022 17.6825 154.682 18.2104C155.342 18.8042 155.837 19.2661 156.167 19.596L154.682 21.3774ZM162.402 12.5691V14.5485H164.381V12.5691H162.402ZM162.402 8.51132V10.4907H164.381V8.51132H162.402ZM166.459 12.5691V14.5485H168.439V12.5691H166.459ZM168.439 8.51132H166.459V10.4907H168.439V8.51132ZM162.402 4.75046V6.63089H164.381V4.75046H162.402ZM192.223 23.4558C190.244 23.5218 188.66 22.3011 187.473 19.7939C186.351 20.4537 184.438 21.2784 181.733 22.2681C181.469 21.5424 181.073 20.8496 180.545 20.1898C179.423 20.8496 178.368 21.6083 177.378 22.4661C176.982 22.73 176.619 23.0599 176.289 23.4558L174.805 21.4764C175.267 21.0805 175.464 20.4537 175.398 19.596V15.2413H172.231V12.965H175.398V10.0948H173.518V9.50102L173.419 9.69896C173.221 9.36906 172.891 8.84122 172.429 8.11544C172.231 7.78554 172.066 7.52162 171.935 7.32368C173.32 5.54222 174.475 3.10096 175.398 -9.45032e-05L177.873 0.494755C177.477 1.48445 177.147 2.40817 176.883 3.26591H181.139V5.44325H175.893C175.761 5.77315 175.497 6.30099 175.102 7.02677C174.904 7.42265 174.739 7.71956 174.607 7.9175H180.446V10.0948H177.873V12.965H181.04V15.2413H177.873V19.6949C178.269 19.365 178.928 18.8372 179.852 18.1114C180.314 17.7815 180.644 17.5176 180.842 17.3196C180.908 17.6495 180.974 18.1444 181.04 18.8042C181.172 19.2001 181.238 19.497 181.238 19.6949L180.941 19.8929C183.118 19.1011 184.966 18.3093 186.483 17.5176C186.087 16.132 185.724 14.5815 185.394 12.866L181.832 13.2619L181.436 10.9856L185.098 10.4907L184.999 9.40205L184.801 7.71956L181.733 8.11544L181.436 5.83913L184.702 5.44325C184.57 4.25561 184.504 2.47415 184.504 0.0988755H186.978C186.978 0.692695 187.011 1.55043 187.077 2.67209C187.077 3.85973 187.11 4.71747 187.176 5.24531L194.896 4.35458L195.093 6.53192L187.374 7.42265L187.473 9.00617L187.572 10.1938L195.39 9.20411L195.687 11.4804L187.869 12.4701C188.199 13.8557 188.495 15.0433 188.759 16.033C190.145 15.0433 191.531 13.8887 192.916 12.5691L194.599 14.1526C192.949 15.8021 191.3 17.2207 189.65 18.4083C190.376 20.0578 191.201 20.8826 192.124 20.8826C192.718 20.8826 193.114 20.5197 193.312 19.7939C193.312 19.6619 193.345 19.497 193.411 19.299C193.609 18.8372 193.807 17.9465 194.005 16.6269C194.665 16.9568 195.39 17.3196 196.182 17.7155C195.918 19.2331 195.621 20.3217 195.291 20.9815C194.764 22.631 193.741 23.4558 192.223 23.4558ZM191.729 4.45355C190.739 3.66179 189.617 2.87003 188.364 2.07827L189.947 0.395785C191.201 1.12157 192.322 1.88033 193.312 2.67209L191.729 4.45355ZM200.47 2.17724H204.329L203.736 17.2207H200.964L200.47 2.17724ZM200.667 19.1011H204.131V22.664H200.667V19.1011Z" fill="black"/>
</svg>
