<svg width="345" height="12" viewBox="0 0 345 12" fill="none" xmlns="http://www.w3.org/2000/svg">
<path d="M5.76227 1.36369H9.941V10.0291H9.10525V9.2373H6.55403V10.117H5.76227V1.36369ZM5.27841 9.01737L4.61861 9.63318C4.44267 9.45724 4.16408 9.22264 3.78287 8.9294C3.4603 8.63615 3.21104 8.41622 3.03509 8.2696C2.41928 9.09068 1.58353 9.82379 0.527855 10.4689C0.381232 10.2637 0.205286 10.0144 1.47186e-05 9.72116C1.02637 9.16399 1.81813 8.48953 2.37529 7.69777C1.75948 7.14061 1.15833 6.64209 0.571841 6.20223C0.923734 4.99992 1.18765 3.97357 1.3636 3.12316H0.0440014V2.3314H1.53955C1.53955 2.27275 1.55421 2.18478 1.58353 2.06748C1.73016 1.2464 1.83279 0.586596 1.89144 0.0880811L2.81516 0.220041C2.69786 0.865179 2.5659 1.56897 2.41928 2.3314H4.75057V3.07917C4.5453 4.98526 4.13476 6.48081 3.51895 7.56581C3.78287 7.80041 4.17875 8.12298 4.70659 8.53352C4.97051 8.76811 5.16112 8.9294 5.27841 9.01737ZM6.55403 2.15545V8.48953H9.10525V2.15545H6.55403ZM3.91483 3.12316H2.24333C2.00874 4.20816 1.75948 5.14655 1.49556 5.93831C1.9061 6.26087 2.36063 6.62743 2.85915 7.03797C3.44564 6.15824 3.79753 4.8533 3.91483 3.12316ZM12.2723 0.923827H20.9377V1.6716H16.9349C16.9056 2.63931 16.8176 3.48972 16.671 4.22283H21.7294V5.01459H17.5947V8.44554C17.5654 9.06136 17.8439 9.3546 18.4304 9.32528H19.926C20.5125 9.3546 20.8204 9.13467 20.8497 8.66548C20.8497 8.54818 20.8644 8.3869 20.8937 8.18163C20.923 7.80041 20.9523 7.47784 20.9816 7.21392C21.0696 7.24324 21.2162 7.28723 21.4215 7.34588C21.5975 7.43385 21.7294 7.4925 21.8174 7.52183C21.7881 8.10831 21.7294 8.59217 21.6414 8.97338C21.5828 9.79447 21.0256 10.1757 19.97 10.117H18.2545C17.2281 10.1464 16.7296 9.63318 16.7589 8.5775V5.01459H16.495C15.9965 7.33122 14.4716 9.19332 11.9204 10.6009C11.7738 10.337 11.5685 10.0731 11.3046 9.80913C13.6799 8.66548 15.1168 7.0673 15.6153 5.01459H11.4805V4.22283H15.7912C15.9672 3.48972 16.0551 2.63931 16.0551 1.6716H12.2723V0.923827ZM26.348 1.58363V0.791867H32.4182V1.58363C32.0956 4.0762 31.3332 6.0556 30.1309 7.52183C30.8933 8.31358 31.9197 8.94406 33.2099 9.41325C32.9167 9.73582 32.6674 10.0291 32.4622 10.293C31.1426 9.5892 30.1749 8.90007 29.559 8.22561C28.8553 8.95872 27.7263 9.72116 26.1721 10.5129C25.9961 10.2783 25.8055 10.0144 25.6002 9.72116C27.1838 9.01737 28.3274 8.29892 29.0312 7.56581C27.9462 6.18756 27.2717 4.1935 27.0078 1.58363H26.348ZM22.5212 6.81804C23.2543 5.67439 23.7968 4.4281 24.1487 3.07917H22.6092V2.37539H24.2806V0.0880811H25.0724V2.37539H26.568V3.07917H25.0724V4.61871L25.5563 4.17884C26.0841 4.67736 26.5826 5.19053 27.0518 5.71837L26.392 6.2902C26.1574 5.99695 25.7469 5.54243 25.1604 4.92661C25.1311 4.86796 25.1017 4.82398 25.0724 4.79465V10.4689H24.2806V4.79465C23.8701 5.93831 23.4009 6.92067 22.8731 7.74176C22.7558 7.44851 22.6385 7.14061 22.5212 6.81804ZM31.4945 1.58363H27.8876C28.0928 3.92958 28.6646 5.68905 29.603 6.86203C30.6001 5.54243 31.2305 3.78296 31.4945 1.58363ZM40.8636 8.2696C40.8636 8.62149 40.8783 8.91474 40.9076 9.14933C40.2918 9.38393 39.6613 9.69183 39.0162 10.0731C38.9575 10.1024 38.8402 10.1757 38.6643 10.293C38.547 10.381 38.459 10.4396 38.4004 10.4689L37.8725 9.80913C38.1071 9.54521 38.2244 9.29595 38.2244 9.06136V0.615921H43.2389V5.6304H40.6877C40.9223 6.27554 41.2155 6.86203 41.5674 7.38987C42.3005 6.92067 42.975 6.42216 43.5908 5.89432L44.1626 6.55412C44.1333 6.58344 44.0893 6.61277 44.0307 6.64209C43.2096 7.22858 42.5498 7.66845 42.0513 7.96169C42.6377 8.5775 43.4148 9.06136 44.3825 9.41325C44.1773 9.67717 43.9867 9.92643 43.8107 10.161C41.758 9.10534 40.4531 7.59514 39.8959 5.6304H39.0162V9.2373C39.3094 9.09068 39.7933 8.84142 40.4677 8.48953C40.6437 8.37223 40.7756 8.29892 40.8636 8.2696ZM37.5646 7.08196C37.5646 8.02034 37.2127 8.54818 36.5089 8.66548C36.245 8.6948 35.8785 8.70946 35.4093 8.70946C35.4093 8.62149 35.3799 8.50419 35.3213 8.35757C35.292 8.12298 35.2626 7.94703 35.2333 7.82973C35.5852 7.85906 35.9078 7.87372 36.201 7.87372C36.5822 7.84439 36.7729 7.55115 36.7729 6.99399C36.8022 6.23155 36.4503 5.38114 35.7172 4.44276L36.7289 1.36369H35.1454V10.5129H34.3536V0.615921H37.5646V1.36369L36.5529 4.3108C37.2567 5.21986 37.5939 6.14358 37.5646 7.08196ZM39.0162 3.47505V4.92661H42.4911V3.47505H39.0162ZM39.0162 1.36369V2.77127H42.4911V1.36369H39.0162ZM47.0217 10.8648L46.6259 10.4689C47.1537 10.0877 47.4323 9.51589 47.4616 8.75345H46.7138V7.30189H48.1654C48.1654 7.53649 48.1654 7.96169 48.1654 8.5775C48.1654 9.60386 47.7842 10.3663 47.0217 10.8648ZM60.9215 10.4249H60.1298V5.10256H65.98V9.14933C66.0093 9.97042 65.5694 10.3663 64.6604 10.337C64.0153 10.337 63.5314 10.337 63.2088 10.337C63.1795 10.249 63.1502 10.0731 63.1209 9.80913C63.0915 9.69183 63.0769 9.60386 63.0769 9.54521C63.1942 9.54521 63.3848 9.54521 63.6487 9.54521C64.0006 9.57454 64.2938 9.5892 64.5284 9.5892C64.9976 9.61852 65.2176 9.45724 65.1882 9.10534V8.5775H60.9215V10.4249ZM59.8658 2.37539H62.637V1.62761H59.514V1.0118H62.637V0.0440944H63.4288V1.0118H66.6838V1.62761H63.4288V2.37539H66.4199V3.03519H63.4288V3.78296H66.9037V4.44276H59.1621V3.78296H62.637V3.03519H59.8658V2.37539ZM59.6899 7.87372C59.6899 8.25494 59.7192 8.56284 59.7779 8.79744C59.6899 8.85609 59.5726 8.9294 59.426 9.01737C59.1327 9.19332 58.8981 9.32528 58.7222 9.41325C58.341 9.73582 58.0771 9.99974 57.9304 10.205L57.3146 9.41325C57.5785 9.20798 57.7105 8.91474 57.7105 8.53352V4.53073H56.3909V3.78296H58.4583V8.70946C58.6049 8.62149 58.8688 8.44554 59.25 8.18163C59.426 8.06433 59.5726 7.96169 59.6899 7.87372ZM60.9215 7.16993V7.91771H65.1882V7.16993H60.9215ZM60.9215 5.76236V6.51013H65.1882V5.76236H60.9215ZM57.5346 0.439974C57.9744 0.821192 58.4876 1.34903 59.0741 2.02349L58.4143 2.59532C58.0331 2.0968 57.5492 1.53964 56.9627 0.923827L57.5346 0.439974ZM69.0151 2.50735H71.3024C71.3024 2.4487 71.317 2.37539 71.3464 2.28741C71.4637 1.75957 71.5956 1.0118 71.7422 0.0440944L72.666 0.176054C72.578 0.615921 72.446 1.27572 72.2701 2.15545C72.2408 2.30208 72.2114 2.41937 72.1821 2.50735H78.0763V3.29911H72.0062C71.9768 3.44573 71.9035 3.66566 71.7862 3.95891C71.6983 4.25215 71.6249 4.47208 71.5663 4.61871H76.8447V5.36648C76.4048 6.53946 75.6717 7.55115 74.6454 8.40156C75.4078 8.9294 76.5808 9.31062 78.1643 9.54521C78.0763 9.69183 77.9004 9.94109 77.6365 10.293C77.6658 10.2343 77.6218 10.2783 77.5045 10.4249C76.1262 10.0437 74.9386 9.54521 73.9416 8.9294C73.0618 9.42791 71.7569 9.95575 70.0268 10.5129C69.8508 10.249 69.6309 9.99974 69.367 9.76514C71.3317 9.26663 72.622 8.8121 73.2378 8.40156C72.3581 7.63912 71.6983 6.65675 71.2584 5.45445C70.6133 7.15527 69.5722 8.6948 68.1353 10.0731C67.9594 9.80913 67.7688 9.57454 67.5635 9.36926C69.3523 7.66845 70.5253 5.64506 71.0824 3.29911H68.1353V2.46336C68.4872 1.73025 68.7512 1.05579 68.9271 0.439974L69.8068 0.659908C69.7189 0.835854 69.5869 1.1291 69.411 1.53964C69.235 2.03816 69.103 2.36072 69.0151 2.50735ZM75.877 5.36648H72.0502C72.4314 6.48081 73.0618 7.34588 73.9416 7.96169C74.9093 7.16993 75.5544 6.30486 75.877 5.36648ZM74.2935 0.791867L74.7333 0.176054C75.5251 0.67457 76.1996 1.14376 76.7567 1.58363L76.1849 2.28741C76.1262 2.25809 76.0529 2.19944 75.965 2.11147C75.2319 1.46633 74.6747 1.02646 74.2935 0.791867ZM81.7712 4.75067H84.9382C84.9676 4.57472 84.9822 4.35479 84.9822 4.09087V2.94721H82.1671V2.24343H85.818C85.9059 2.12613 86.0232 1.96484 86.1699 1.75957C86.6684 1.05579 87.0496 0.498623 87.3135 0.0880811L88.1053 0.527948C87.6654 1.08511 87.2109 1.65694 86.7417 2.24343H88.897V2.94721H85.818V4.17884C85.818 4.23749 85.818 4.32546 85.818 4.44276C85.7886 4.58938 85.774 4.69202 85.774 4.75067H89.2489V5.49844H85.686C85.686 5.55709 85.6714 5.6304 85.642 5.71837C86.7857 6.62743 87.8267 7.4925 88.7651 8.31358L88.1053 8.97338C87.4308 8.29892 86.5364 7.47784 85.4221 6.51013C84.9822 7.50716 83.9852 8.3869 82.431 9.14933C82.3724 9.06136 82.2844 8.94406 82.1671 8.79744C82.0205 8.62149 81.9178 8.50419 81.8592 8.44554C83.7066 7.68311 84.7036 6.70074 84.8503 5.49844H81.7712V4.75067ZM83.2228 9.45724C83.7506 9.48656 84.7476 9.48656 86.2139 9.45724C87.856 9.45724 88.941 9.44258 89.4689 9.41325C89.3222 9.67717 89.2049 9.95575 89.117 10.249C87.3282 10.249 86.0379 10.249 85.2461 10.249C84.3078 10.249 83.5893 10.2343 83.0908 10.205C81.9178 10.205 81.0674 9.82379 80.5396 9.06136C80.1584 9.3546 79.7478 9.79447 79.3079 10.381L78.8241 9.5892C79.2933 9.17866 79.7478 8.76811 80.1877 8.35757V4.66269H78.9561V3.87093H80.9794V8.53352C81.4486 9.12001 82.1964 9.42791 83.2228 9.45724ZM79.9238 0.176054C80.4223 0.762543 80.9648 1.45167 81.5513 2.24343L80.8035 2.77127C80.4223 2.18478 79.9091 1.48099 79.264 0.659908L79.9238 0.176054ZM82.9588 0.527948L83.5747 0.0880811C83.8386 0.352001 84.2345 0.791867 84.7623 1.40768C84.4104 0.967814 84.4397 1.0118 84.8503 1.53964L84.1905 2.02349C84.0732 1.84755 83.8679 1.59829 83.5747 1.27572C83.3107 0.923827 83.1055 0.67457 82.9588 0.527948ZM94.2194 9.28129H97.1665V6.64209H94.5713V5.80635H97.1665V3.21113H95.627C95.4217 3.85627 95.2018 4.48675 94.9672 5.10256C94.9085 5.07323 94.7912 5.02925 94.6153 4.9706C94.41 4.88263 94.2487 4.82398 94.1315 4.79465C94.7179 3.4164 95.1431 2.08214 95.4071 0.791867L96.2428 0.967814C96.1842 1.20241 96.0962 1.52498 95.9789 1.93552C95.9202 2.14079 95.8763 2.30208 95.8469 2.41937H97.1665V0.132068H98.0023V2.41937H100.466V3.21113H98.0023V5.80635H100.422V6.64209H98.0023V9.28129H100.685V10.117H94.2194V9.28129ZM94.4394 8.62149L93.8235 9.2373C93.501 8.97338 93.1198 8.62149 92.6799 8.18163C92.2107 8.94406 91.5216 9.66251 90.6125 10.337C90.4659 10.1317 90.3046 9.8971 90.1287 9.63318C91.0084 9.01737 91.6535 8.35757 92.0641 7.65379C92.0348 7.62446 91.9908 7.58047 91.9321 7.52183C91.5802 7.19926 91.0964 6.78871 90.4806 6.2902C90.7738 5.32249 91.0231 4.26681 91.2283 3.12316H90.1287V2.3314H91.3603C91.3896 2.06748 91.4483 1.6716 91.5362 1.14376C91.5949 0.67457 91.6389 0.337339 91.6682 0.132068L92.5039 0.220041C92.4746 0.425312 92.4306 0.733219 92.372 1.14376C92.284 1.6716 92.2107 2.06748 92.1521 2.3314H94.0875V3.03519C93.9408 5.0879 93.6036 6.55412 93.0758 7.43385C93.2517 7.6098 93.5303 7.84439 93.9115 8.13764C94.1461 8.37223 94.3221 8.53352 94.4394 8.62149ZM93.2957 3.12316H92.0201C91.8148 4.26681 91.5949 5.24918 91.3603 6.07027C91.7415 6.33419 92.1081 6.62743 92.46 6.95C92.8998 5.98229 93.1784 4.70668 93.2957 3.12316ZM105.832 0.0440944L106.668 0.395988C106.58 0.483961 106.448 0.630583 106.272 0.835854C106.096 1.0118 105.964 1.15842 105.876 1.27572H110.89V2.02349C109.512 3.57769 107.767 4.80932 105.656 5.71837H110.846V10.5129H110.011V9.80913H104.38V10.5129H103.545V6.59811C103.369 6.65675 103.09 6.74473 102.709 6.86203C102.328 7.00865 102.034 7.11128 101.829 7.16993C101.8 7.11128 101.726 6.99399 101.609 6.81804C101.463 6.61277 101.375 6.48081 101.345 6.42216C104.952 5.42513 107.753 3.94424 109.747 1.97951H105.128C105.011 2.15545 104.835 2.31674 104.6 2.46336C104.63 2.49268 104.674 2.53667 104.732 2.59532C105.172 3.00586 105.685 3.46039 106.272 3.95891L105.568 4.53073C105.04 4.00289 104.512 3.48972 103.984 2.9912C103.398 3.46039 102.753 3.91492 102.049 4.35479C102.02 4.32546 101.976 4.26681 101.917 4.17884C101.741 3.94424 101.595 3.78296 101.477 3.69499C103.295 2.63931 104.747 1.42234 105.832 0.0440944ZM104.38 6.46615V9.14933H110.011V6.46615H104.38ZM119.028 4.83864V5.67439H116.433V8.2696H115.553V5.67439H112.958V4.83864H115.553V2.24343H116.433V4.83864H119.028ZM122.679 0.132068H123.471V2.02349H125.538V9.98508H124.746V9.19332H121.359V9.98508H120.611V2.02349H122.679V0.132068ZM130.157 1.75957C130.039 2.02349 129.819 2.58066 129.497 3.43107C129.233 4.0762 129.057 4.48675 128.969 4.66269C129.819 5.42513 130.244 6.33419 130.244 7.38987C130.215 8.41622 129.702 8.97338 128.705 9.06136C128.441 9.06136 128.148 9.06136 127.825 9.06136C127.767 8.68014 127.693 8.3869 127.605 8.18163C127.84 8.21095 128.206 8.22561 128.705 8.22561C129.203 8.22561 129.453 7.94703 129.453 7.38987C129.423 6.39283 128.984 5.52776 128.133 4.79465C128.485 3.82695 128.866 2.80059 129.277 1.71559H127.385V10.5129H126.594V0.967814H130.157V1.75957ZM121.359 5.93831V8.48953H122.679V5.93831H121.359ZM123.471 5.93831V8.48953H124.746V5.93831H123.471ZM124.746 2.77127H123.471V5.23452H124.746V2.77127ZM121.359 2.77127V5.23452H122.679V2.77127H121.359ZM135.919 3.47505H141.109V10.4689H140.361V9.80913H136.711V10.4689H135.919V3.47505ZM131.212 8.35757C132.063 7.30189 132.664 6.21689 133.016 5.10256H131.476V4.39877H133.148V2.94721H133.895V4.39877H135.347V5.10256H133.895V6.46615L134.335 6.02628C134.804 6.43682 135.215 6.81804 135.567 7.16993L135.039 7.74176C134.775 7.44851 134.394 7.05263 133.895 6.55412V10.4689H133.148V6.37817C132.796 7.34588 132.283 8.2696 131.608 9.14933C131.491 8.88541 131.359 8.62149 131.212 8.35757ZM133.368 0.000107758L134.159 0.176054C133.983 0.527948 133.807 0.850516 133.631 1.14376H136.755V1.80356H134.423C134.511 1.92086 134.658 2.08214 134.863 2.28741C135.068 2.49268 135.215 2.65397 135.303 2.77127L134.687 3.21113C134.335 2.74194 134.042 2.39005 133.807 2.15545L134.291 1.80356H133.192C132.781 2.36072 132.312 2.8739 131.784 3.34309C131.608 3.13782 131.417 2.94721 131.212 2.77127C132.121 2.00883 132.84 1.08511 133.368 0.000107758ZM137.942 0.000107758L138.734 0.176054C138.617 0.527948 138.47 0.850516 138.294 1.14376H141.681V1.80356H139.086C139.408 2.0968 139.731 2.4487 140.054 2.85924L139.438 3.34309C139.203 3.02052 138.895 2.63931 138.514 2.19944L139.042 1.80356H137.942C137.678 2.27275 137.356 2.72728 136.974 3.16715C136.799 2.9912 136.593 2.82992 136.359 2.68329C137.033 1.95018 137.561 1.05579 137.942 0.000107758ZM136.711 7.91771V9.19332H140.361V7.91771H136.711ZM136.711 4.17884V5.36648H140.361V4.17884H136.711ZM136.711 6.02628V7.25791H140.361V6.02628H136.711ZM149.599 2.06748C150.86 3.21113 151.857 4.12019 152.59 4.79465L151.886 5.41047C151.651 5.14655 151.417 4.89729 151.182 4.66269C148.338 4.72134 146.138 4.82398 144.584 4.9706C144.232 5.02925 143.939 5.0879 143.704 5.14655L143.265 4.22283C143.616 4.10553 143.954 3.94424 144.276 3.73897C145.244 2.91789 146.021 2.15545 146.608 1.45167H142.869V0.703894H152.766V1.45167H147.795C147.15 2.18478 146.212 3.07917 144.98 4.13485C145.361 4.13485 146.138 4.10553 147.311 4.04688C148.836 3.98823 149.877 3.94424 150.434 3.91492C149.936 3.47505 149.467 3.04985 149.027 2.63931L149.599 2.06748ZM147.399 5.14655H148.235V6.55412H152.282V7.30189H148.235V9.19332H153.03V9.85312H142.561V9.19332H147.399V7.30189H143.265V6.55412H147.399V5.14655ZM155.449 4.66269H162.619V6.95H156.197V7.69777H162.839V10.4689H162.047V10.0291H156.197V10.4689H155.449V4.66269ZM158.396 2.50735L159.1 2.24343C159.217 2.41937 159.364 2.68329 159.54 3.03519C159.569 3.12316 159.598 3.18181 159.628 3.21113H163.894V4.83864H163.103V3.87093H154.965V4.83864H154.217V3.21113H158.748C158.66 2.97654 158.543 2.74194 158.396 2.50735ZM162.047 8.35757H156.197V9.36926H162.047V8.35757ZM155.845 0.000107758L156.724 0.0440944C156.549 0.395988 156.358 0.733219 156.153 1.05579H159.276V1.71559H156.724C156.842 1.83288 157.047 2.03816 157.34 2.3314C157.458 2.47802 157.546 2.58066 157.604 2.63931L156.988 3.12316C156.959 3.09384 156.93 3.06451 156.9 3.03519C156.607 2.65397 156.343 2.3314 156.109 2.06748L156.592 1.71559H155.669C155.229 2.27275 154.789 2.72728 154.349 3.07917C154.203 2.90323 154.012 2.69796 153.777 2.46336C154.686 1.75957 155.376 0.93849 155.845 0.000107758ZM160.551 0.000107758L161.431 0.0440944C161.372 0.220041 161.255 0.469299 161.079 0.791867C161.02 0.909165 160.977 0.997139 160.947 1.05579H164.334V1.71559H161.607C161.724 1.83288 161.9 2.00883 162.135 2.24343C162.311 2.4487 162.428 2.58066 162.487 2.63931L161.871 3.12316C161.842 3.09384 161.783 3.02052 161.695 2.90323C161.636 2.81525 161.402 2.52201 160.991 2.02349L161.475 1.71559H160.595C160.39 2.06748 160.155 2.37539 159.891 2.63931C159.716 2.46336 159.51 2.28741 159.276 2.11147C159.804 1.49565 160.229 0.791867 160.551 0.000107758ZM156.197 5.32249V6.33419H161.827V5.32249H156.197ZM168.953 7.16993H171.68V5.89432H169.173V0.659908H174.935V5.89432H172.472V7.16993H175.155V7.87372H172.472V9.32528H175.639V10.0731H168.337V9.32528H171.68V7.87372H168.953V7.16993ZM165.214 4.61871H166.533V1.80356H165.082V1.05579H168.733V1.80356H167.325V4.61871H168.689V5.32249H167.325V8.18163C167.794 8.035 168.249 7.90304 168.689 7.78575C168.718 8.10831 168.747 8.3869 168.777 8.62149C168.689 8.65082 168.528 8.6948 168.293 8.75345C166.885 9.10534 165.859 9.38393 165.214 9.5892L164.95 8.79744C165.448 8.65082 165.976 8.51886 166.533 8.40156V5.32249H165.214V4.61871ZM169.964 3.60701V5.23452H171.68V3.60701H169.964ZM172.472 3.60701V5.23452H174.143V3.60701H172.472ZM169.964 1.36369V2.94721H171.68V1.36369H169.964ZM174.143 1.36369H172.472V2.94721H174.143V1.36369ZM178.014 0.527948H185.14V3.47505H178.014V0.527948ZM177.398 4.44276H185.756V8.31358H184.92V5.19053H178.234V8.40156H177.398V4.44276ZM181.137 5.49844H181.973C181.973 6.08493 181.958 6.48081 181.929 6.68608C181.899 6.97932 181.855 7.25791 181.797 7.52183C182.061 7.63912 182.471 7.81507 183.028 8.04967C185.023 8.84142 186.283 9.3546 186.811 9.5892L186.327 10.381C185.213 9.79447 183.6 9.07602 181.489 8.22561C181.02 9.13467 179.436 9.91177 176.738 10.5569C176.65 10.3223 176.504 10.0584 176.299 9.76514C179.642 9.2373 181.24 8.16696 181.093 6.55412C181.122 6.4075 181.137 6.0556 181.137 5.49844ZM178.85 1.23173V2.77127H184.304V1.23173H178.85ZM190.77 5.85033V7.38987H189.275V5.85033H190.77ZM190.77 9.10534V10.5569H189.275V9.10534H190.77Z" fill="#979797"/>
<path d="M204.406 3.21113L202.119 6.42216L204.538 9.5892H203.394L201.855 7.38987C201.855 7.36054 201.84 7.33122 201.811 7.30189C201.693 7.12595 201.62 7.00865 201.591 6.95C201.562 6.97932 201.532 7.03797 201.503 7.12595C201.415 7.27257 201.356 7.36054 201.327 7.38987L199.699 9.5892H198.556L201.107 6.37817L198.82 3.21113H199.919L201.327 5.41047C201.474 5.58641 201.562 5.73303 201.591 5.85033C201.679 5.73303 201.767 5.58641 201.855 5.41047C201.943 5.29317 202.412 4.56006 203.262 3.21113H204.406ZM205.418 9.63318V3.21113H206.341V9.63318H205.418ZM205.418 2.02349V0.835854H206.341V2.02349H205.418ZM210.564 3.82695C209.215 3.85627 208.526 4.75067 208.497 6.51013C208.526 8.1523 209.215 9.00271 210.564 9.06136C211.825 9.00271 212.47 8.13764 212.5 6.46615C212.412 4.82398 211.766 3.94424 210.564 3.82695ZM210.52 9.76514C208.614 9.64785 207.617 8.5775 207.529 6.55412C207.588 4.29614 208.614 3.13782 210.608 3.07917C212.456 3.16715 213.423 4.28148 213.511 6.42216C213.482 8.62149 212.485 9.73582 210.52 9.76514ZM220.021 5.49844V9.5892H219.098V5.6304C219.068 4.45742 218.57 3.85627 217.602 3.82695C216.458 3.97357 215.828 4.58938 215.711 5.67439V9.5892L214.787 9.63318V3.21113H215.711V4.17884C216.209 3.44573 216.913 3.06451 217.822 3.03519C219.288 3.03519 220.021 3.85627 220.021 5.49844ZM225.959 6.64209V5.67439C225.901 4.56006 225.314 3.94424 224.2 3.82695C222.91 3.8856 222.235 4.72134 222.177 6.33419C222.235 7.85906 222.866 8.66548 224.068 8.75345C225.3 8.72413 225.93 8.02034 225.959 6.64209ZM226.927 3.21113V8.79744C227.044 10.9088 226.033 11.9205 223.892 11.8325C222.836 11.8325 222.045 11.5246 221.517 10.9088L221.913 10.4249C222.499 10.8355 223.144 11.0554 223.848 11.0847C225.285 11.1141 225.989 10.4396 225.959 9.06136V8.40156C225.666 9.10534 224.948 9.44258 223.804 9.41325C222.162 9.32528 221.312 8.29892 221.253 6.33419C221.341 4.25215 222.265 3.16715 224.024 3.07917C224.874 3.1085 225.52 3.46039 225.959 4.13485V3.21113H226.927ZM230.842 9.06136L231.018 9.54521C230.725 9.66251 230.402 9.72116 230.05 9.72116C229.141 9.75048 228.701 9.28129 228.731 8.31358V4.00289H227.851V3.21113H228.731V1.49565L229.654 1.0118V3.21113H230.842V4.00289H229.654V8.31358C229.625 8.87075 229.86 9.13467 230.358 9.10534C230.534 9.10534 230.695 9.09068 230.842 9.06136ZM231.942 9.63318V3.21113H232.865V9.63318H231.942ZM231.942 2.02349V0.835854H232.865V2.02349H231.942ZM239.683 5.49844V9.5892H238.76V5.6304C238.73 4.45742 238.232 3.85627 237.264 3.82695C236.12 3.97357 235.49 4.58938 235.373 5.67439V9.5892L234.449 9.63318V3.21113H235.373V4.17884C235.871 3.44573 236.575 3.06451 237.484 3.03519C238.95 3.03519 239.683 3.85627 239.683 5.49844ZM245.621 6.64209V5.67439C245.563 4.56006 244.976 3.94424 243.862 3.82695C242.572 3.8856 241.897 4.72134 241.839 6.33419C241.897 7.85906 242.528 8.66548 243.73 8.75345C244.962 8.72413 245.592 8.02034 245.621 6.64209ZM246.589 3.21113V8.79744C246.706 10.9088 245.695 11.9205 243.554 11.8325C242.498 11.8325 241.707 11.5246 241.179 10.9088L241.575 10.4249C242.161 10.8355 242.806 11.0554 243.51 11.0847C244.947 11.1141 245.651 10.4396 245.621 9.06136V8.40156C245.328 9.10534 244.61 9.44258 243.466 9.41325C241.824 9.32528 240.974 8.29892 240.915 6.33419C241.003 4.25215 241.927 3.16715 243.686 3.07917C244.536 3.1085 245.182 3.46039 245.621 4.13485V3.21113H246.589ZM251.824 4.9706C252.997 5.32249 253.612 6.07027 253.671 7.21392C253.583 8.82676 252.615 9.67717 250.768 9.76514C249.126 9.76514 248.129 8.98805 247.777 7.43385L248.789 7.16993C248.964 8.37223 249.595 8.97338 250.68 8.97338C252 8.97338 252.659 8.35757 252.659 7.12595C252.571 6.07027 251.897 5.5131 250.636 5.45445C250.225 5.45445 249.962 5.45445 249.844 5.45445V4.66269C249.962 4.66269 250.108 4.66269 250.284 4.66269C251.545 4.63337 252.205 4.0762 252.263 2.9912C252.205 2.05282 251.706 1.56897 250.768 1.53964C249.771 1.56897 249.17 2.12613 248.964 3.21113L247.997 2.90323C248.349 1.46633 249.258 0.733219 250.724 0.703894C252.395 0.762543 253.261 1.52498 253.319 2.9912C253.29 3.95891 252.791 4.61871 251.824 4.9706ZM255.387 6.68608H258.378V2.15545C258.378 2.18478 258.348 2.24343 258.29 2.3314C258.26 2.41937 258.231 2.49268 258.202 2.55133C257.732 3.16715 256.794 4.5454 255.387 6.68608ZM260.489 7.47784H259.257V9.63318H258.378V7.47784H254.331V6.95L258.554 0.703894H259.257V6.68608H260.489V7.47784ZM267.175 9.54521H261.413V8.97338C261.97 7.80041 262.894 6.74473 264.184 5.80635C265.503 4.83864 266.149 3.95891 266.119 3.16715C266.09 2.11147 265.489 1.56897 264.316 1.53964C263.407 1.59829 262.791 2.17012 262.468 3.25512L261.589 2.81525C262.087 1.37836 263.055 0.67457 264.492 0.703894C266.134 0.762543 267.014 1.53964 267.131 3.03519C267.219 4.17884 266.486 5.27851 264.932 6.33419C263.729 7.21392 262.938 8.035 262.556 8.79744H267.175V9.54521ZM273.861 9.54521H268.099V8.97338C268.656 7.80041 269.58 6.74473 270.87 5.80635C272.189 4.83864 272.835 3.95891 272.805 3.16715C272.776 2.11147 272.175 1.56897 271.002 1.53964C270.093 1.59829 269.477 2.17012 269.154 3.25512L268.275 2.81525C268.773 1.37836 269.741 0.67457 271.178 0.703894C272.82 0.762543 273.7 1.53964 273.817 3.03519C273.905 4.17884 273.172 5.27851 271.618 6.33419C270.415 7.21392 269.624 8.035 269.242 8.79744H273.861V9.54521ZM280.855 4.04688C279.594 4.16418 278.875 5.07323 278.699 6.77405C278.611 7.97635 279.022 8.54818 279.931 8.48953C281.133 8.31358 281.837 7.31655 282.042 5.49844C282.042 4.58938 281.647 4.10553 280.855 4.04688ZM282.35 3.34309H283.274C283.039 4.63337 282.849 5.89432 282.702 7.12595C282.556 8.1523 282.82 8.62149 283.494 8.53352C284.608 8.41622 285.209 7.46318 285.297 5.67439C285.092 3.06451 283.582 1.6716 280.767 1.49565C277.864 1.70092 276.28 3.32843 276.016 6.37817C276.104 9.39859 277.688 10.9528 280.767 11.0408C282.556 11.0408 283.993 10.6156 285.078 9.76514L285.517 10.293C284.139 11.3487 282.526 11.8618 280.679 11.8325C277.072 11.6859 275.195 9.88244 275.049 6.42216C275.312 2.81525 277.233 0.909165 280.811 0.703894C284.242 0.821192 286.045 2.4487 286.221 5.58641C286.104 7.87372 285.122 9.09068 283.274 9.2373C282.277 9.2373 281.793 8.72413 281.823 7.69777C281.441 8.72413 280.723 9.2373 279.667 9.2373C278.318 9.17866 277.658 8.32825 277.688 6.68608C277.922 4.5454 278.963 3.40174 280.811 3.25512C281.544 3.28444 282.013 3.57769 282.218 4.13485C282.248 4.13485 282.262 4.04688 282.262 3.87093C282.292 3.66566 282.321 3.48972 282.35 3.34309ZM291.895 5.10256H295.678V8.31358C294.945 9.28129 293.684 9.76514 291.895 9.76514C289.139 9.61852 287.687 8.1523 287.541 5.36648C287.658 2.37539 289.051 0.821192 291.719 0.703894C293.684 0.733219 294.989 1.59829 295.634 3.29911L294.535 3.56303C294.065 2.27275 293.112 1.61295 291.675 1.58363C289.799 1.75957 288.772 3.00586 288.596 5.32249C288.743 7.58047 289.828 8.79744 291.851 8.97338C293.171 8.97338 294.124 8.62149 294.711 7.91771V5.93831H291.895V5.10256ZM305.839 5.41047V9.5892H304.915V5.6304C304.945 4.39877 304.505 3.79762 303.596 3.82695C302.599 3.91492 302.056 4.53073 301.968 5.67439V9.5892H301.045V5.6304C301.074 4.39877 300.649 3.79762 299.769 3.82695C298.772 3.91492 298.215 4.50141 298.098 5.58641V9.5892H297.174V3.21113H298.098V4.17884C298.567 3.4164 299.153 3.03519 299.857 3.03519C300.942 3.03519 301.602 3.48972 301.836 4.39877C302.306 3.48972 302.936 3.03519 303.728 3.03519C305.165 3.00586 305.869 3.79762 305.839 5.41047ZM311.601 7.12595V6.2902C311.484 6.52479 310.854 6.68608 309.71 6.77405C308.537 6.92067 307.965 7.33122 307.995 8.00568C308.024 8.65082 308.508 8.97338 309.446 8.97338C310.766 8.88541 311.484 8.2696 311.601 7.12595ZM308.127 5.19053L307.203 4.92661C307.525 3.60701 308.478 2.97654 310.062 3.03519C311.792 3.00586 312.628 3.82695 312.569 5.49844V8.09365C312.54 8.79744 312.657 9.29595 312.921 9.5892H311.997C311.792 9.3546 311.689 9.06136 311.689 8.70946C311.162 9.41325 310.326 9.76514 309.182 9.76514C307.833 9.7065 307.115 9.14933 307.027 8.09365C307.056 6.86203 307.833 6.1729 309.358 6.02628C310.59 5.90898 311.338 5.7477 311.601 5.54243C311.689 4.36945 311.162 3.81228 310.018 3.87093C308.904 3.81228 308.273 4.25215 308.127 5.19053ZM314.241 9.63318V3.21113H315.164V9.63318H314.241ZM314.241 2.02349V0.835854H315.164V2.02349H314.241ZM316.748 9.5892V0.835854H317.672V9.5892H316.748ZM321.015 9.5892H319.651V8.31358H321.015V9.5892ZM327.041 5.27851C326.777 4.39877 326.234 3.92958 325.413 3.87093C324.152 3.87093 323.522 4.736 323.522 6.46615C323.522 8.16696 324.152 9.01737 325.413 9.01737C326.44 9.01737 326.997 8.46021 327.085 7.34588L328.052 7.56581C327.818 9.09068 326.923 9.82379 325.369 9.76514C323.493 9.7065 322.539 8.60683 322.51 6.46615C322.569 4.29614 323.507 3.16715 325.325 3.07917C326.733 3.1085 327.613 3.73897 327.965 4.9706L327.041 5.27851ZM331.659 3.82695C330.31 3.85627 329.621 4.75067 329.592 6.51013C329.621 8.1523 330.31 9.00271 331.659 9.06136C332.92 9.00271 333.565 8.13764 333.595 6.46615C333.507 4.82398 332.862 3.94424 331.659 3.82695ZM331.615 9.76514C329.709 9.64785 328.712 8.5775 328.624 6.55412C328.683 4.29614 329.709 3.13782 331.703 3.07917C333.551 3.16715 334.519 4.28148 334.606 6.42216C334.577 8.62149 333.58 9.73582 331.615 9.76514ZM344.547 5.41047V9.5892H343.624V5.6304C343.653 4.39877 343.213 3.79762 342.304 3.82695C341.307 3.91492 340.765 4.53073 340.677 5.67439V9.5892H339.753V5.6304C339.782 4.39877 339.357 3.79762 338.477 3.82695C337.48 3.91492 336.923 4.50141 336.806 5.58641V9.5892H335.882V3.21113H336.806V4.17884C337.275 3.4164 337.861 3.03519 338.565 3.03519C339.65 3.03519 340.31 3.48972 340.545 4.39877C341.014 3.48972 341.644 3.03519 342.436 3.03519C343.873 3.00586 344.577 3.79762 344.547 5.41047Z" fill="#979797"/>
<path d="M204.406 3.21113L202.119 6.42216L204.538 9.5892H203.394L201.855 7.38987C201.855 7.36054 201.84 7.33122 201.811 7.30189C201.693 7.12595 201.62 7.00865 201.591 6.95C201.562 6.97932 201.532 7.03797 201.503 7.12595C201.415 7.27257 201.356 7.36054 201.327 7.38987L199.699 9.5892H198.556L201.107 6.37817L198.82 3.21113H199.919L201.327 5.41047C201.474 5.58641 201.562 5.73303 201.591 5.85033C201.679 5.73303 201.767 5.58641 201.855 5.41047C201.943 5.29317 202.412 4.56006 203.262 3.21113H204.406ZM205.418 9.63318V3.21113H206.341V9.63318H205.418ZM205.418 2.02349V0.835854H206.341V2.02349H205.418ZM210.564 3.82695C209.215 3.85627 208.526 4.75067 208.497 6.51013C208.526 8.1523 209.215 9.00271 210.564 9.06136C211.825 9.00271 212.47 8.13764 212.5 6.46615C212.412 4.82398 211.766 3.94424 210.564 3.82695ZM210.52 9.76514C208.614 9.64785 207.617 8.5775 207.529 6.55412C207.588 4.29614 208.614 3.13782 210.608 3.07917C212.456 3.16715 213.423 4.28148 213.511 6.42216C213.482 8.62149 212.485 9.73582 210.52 9.76514ZM220.021 5.49844V9.5892H219.098V5.6304C219.068 4.45742 218.57 3.85627 217.602 3.82695C216.458 3.97357 215.828 4.58938 215.711 5.67439V9.5892L214.787 9.63318V3.21113H215.711V4.17884C216.209 3.44573 216.913 3.06451 217.822 3.03519C219.288 3.03519 220.021 3.85627 220.021 5.49844ZM225.959 6.64209V5.67439C225.901 4.56006 225.314 3.94424 224.2 3.82695C222.91 3.8856 222.235 4.72134 222.177 6.33419C222.235 7.85906 222.866 8.66548 224.068 8.75345C225.3 8.72413 225.93 8.02034 225.959 6.64209ZM226.927 3.21113V8.79744C227.044 10.9088 226.033 11.9205 223.892 11.8325C222.836 11.8325 222.045 11.5246 221.517 10.9088L221.913 10.4249C222.499 10.8355 223.144 11.0554 223.848 11.0847C225.285 11.1141 225.989 10.4396 225.959 9.06136V8.40156C225.666 9.10534 224.948 9.44258 223.804 9.41325C222.162 9.32528 221.312 8.29892 221.253 6.33419C221.341 4.25215 222.265 3.16715 224.024 3.07917C224.874 3.1085 225.52 3.46039 225.959 4.13485V3.21113H226.927ZM230.842 9.06136L231.018 9.54521C230.725 9.66251 230.402 9.72116 230.05 9.72116C229.141 9.75048 228.701 9.28129 228.731 8.31358V4.00289H227.851V3.21113H228.731V1.49565L229.654 1.0118V3.21113H230.842V4.00289H229.654V8.31358C229.625 8.87075 229.86 9.13467 230.358 9.10534C230.534 9.10534 230.695 9.09068 230.842 9.06136ZM231.942 9.63318V3.21113H232.865V9.63318H231.942ZM231.942 2.02349V0.835854H232.865V2.02349H231.942ZM239.683 5.49844V9.5892H238.76V5.6304C238.73 4.45742 238.232 3.85627 237.264 3.82695C236.12 3.97357 235.49 4.58938 235.373 5.67439V9.5892L234.449 9.63318V3.21113H235.373V4.17884C235.871 3.44573 236.575 3.06451 237.484 3.03519C238.95 3.03519 239.683 3.85627 239.683 5.49844ZM245.621 6.64209V5.67439C245.563 4.56006 244.976 3.94424 243.862 3.82695C242.572 3.8856 241.897 4.72134 241.839 6.33419C241.897 7.85906 242.528 8.66548 243.73 8.75345C244.962 8.72413 245.592 8.02034 245.621 6.64209ZM246.589 3.21113V8.79744C246.706 10.9088 245.695 11.9205 243.554 11.8325C242.498 11.8325 241.707 11.5246 241.179 10.9088L241.575 10.4249C242.161 10.8355 242.806 11.0554 243.51 11.0847C244.947 11.1141 245.651 10.4396 245.621 9.06136V8.40156C245.328 9.10534 244.61 9.44258 243.466 9.41325C241.824 9.32528 240.974 8.29892 240.915 6.33419C241.003 4.25215 241.927 3.16715 243.686 3.07917C244.536 3.1085 245.182 3.46039 245.621 4.13485V3.21113H246.589ZM251.824 4.9706C252.997 5.32249 253.612 6.07027 253.671 7.21392C253.583 8.82676 252.615 9.67717 250.768 9.76514C249.126 9.76514 248.129 8.98805 247.777 7.43385L248.789 7.16993C248.964 8.37223 249.595 8.97338 250.68 8.97338C252 8.97338 252.659 8.35757 252.659 7.12595C252.571 6.07027 251.897 5.5131 250.636 5.45445C250.225 5.45445 249.962 5.45445 249.844 5.45445V4.66269C249.962 4.66269 250.108 4.66269 250.284 4.66269C251.545 4.63337 252.205 4.0762 252.263 2.9912C252.205 2.05282 251.706 1.56897 250.768 1.53964C249.771 1.56897 249.17 2.12613 248.964 3.21113L247.997 2.90323C248.349 1.46633 249.258 0.733219 250.724 0.703894C252.395 0.762543 253.261 1.52498 253.319 2.9912C253.29 3.95891 252.791 4.61871 251.824 4.9706ZM255.387 6.68608H258.378V2.15545C258.378 2.18478 258.348 2.24343 258.29 2.3314C258.26 2.41937 258.231 2.49268 258.202 2.55133C257.732 3.16715 256.794 4.5454 255.387 6.68608ZM260.489 7.47784H259.257V9.63318H258.378V7.47784H254.331V6.95L258.554 0.703894H259.257V6.68608H260.489V7.47784ZM267.175 9.54521H261.413V8.97338C261.97 7.80041 262.894 6.74473 264.184 5.80635C265.503 4.83864 266.149 3.95891 266.119 3.16715C266.09 2.11147 265.489 1.56897 264.316 1.53964C263.407 1.59829 262.791 2.17012 262.468 3.25512L261.589 2.81525C262.087 1.37836 263.055 0.67457 264.492 0.703894C266.134 0.762543 267.014 1.53964 267.131 3.03519C267.219 4.17884 266.486 5.27851 264.932 6.33419C263.729 7.21392 262.938 8.035 262.556 8.79744H267.175V9.54521ZM273.861 9.54521H268.099V8.97338C268.656 7.80041 269.58 6.74473 270.87 5.80635C272.189 4.83864 272.835 3.95891 272.805 3.16715C272.776 2.11147 272.175 1.56897 271.002 1.53964C270.093 1.59829 269.477 2.17012 269.154 3.25512L268.275 2.81525C268.773 1.37836 269.741 0.67457 271.178 0.703894C272.82 0.762543 273.7 1.53964 273.817 3.03519C273.905 4.17884 273.172 5.27851 271.618 6.33419C270.415 7.21392 269.624 8.035 269.242 8.79744H273.861V9.54521ZM280.855 4.04688C279.594 4.16418 278.875 5.07323 278.699 6.77405C278.611 7.97635 279.022 8.54818 279.931 8.48953C281.133 8.31358 281.837 7.31655 282.042 5.49844C282.042 4.58938 281.647 4.10553 280.855 4.04688ZM282.35 3.34309H283.274C283.039 4.63337 282.849 5.89432 282.702 7.12595C282.556 8.1523 282.82 8.62149 283.494 8.53352C284.608 8.41622 285.209 7.46318 285.297 5.67439C285.092 3.06451 283.582 1.6716 280.767 1.49565C277.864 1.70092 276.28 3.32843 276.016 6.37817C276.104 9.39859 277.688 10.9528 280.767 11.0408C282.556 11.0408 283.993 10.6156 285.078 9.76514L285.517 10.293C284.139 11.3487 282.526 11.8618 280.679 11.8325C277.072 11.6859 275.195 9.88244 275.049 6.42216C275.312 2.81525 277.233 0.909165 280.811 0.703894C284.242 0.821192 286.045 2.4487 286.221 5.58641C286.104 7.87372 285.122 9.09068 283.274 9.2373C282.277 9.2373 281.793 8.72413 281.823 7.69777C281.441 8.72413 280.723 9.2373 279.667 9.2373C278.318 9.17866 277.658 8.32825 277.688 6.68608C277.922 4.5454 278.963 3.40174 280.811 3.25512C281.544 3.28444 282.013 3.57769 282.218 4.13485C282.248 4.13485 282.262 4.04688 282.262 3.87093C282.292 3.66566 282.321 3.48972 282.35 3.34309ZM291.895 5.10256H295.678V8.31358C294.945 9.28129 293.684 9.76514 291.895 9.76514C289.139 9.61852 287.687 8.1523 287.541 5.36648C287.658 2.37539 289.051 0.821192 291.719 0.703894C293.684 0.733219 294.989 1.59829 295.634 3.29911L294.535 3.56303C294.065 2.27275 293.112 1.61295 291.675 1.58363C289.799 1.75957 288.772 3.00586 288.596 5.32249C288.743 7.58047 289.828 8.79744 291.851 8.97338C293.171 8.97338 294.124 8.62149 294.711 7.91771V5.93831H291.895V5.10256ZM305.839 5.41047V9.5892H304.915V5.6304C304.945 4.39877 304.505 3.79762 303.596 3.82695C302.599 3.91492 302.056 4.53073 301.968 5.67439V9.5892H301.045V5.6304C301.074 4.39877 300.649 3.79762 299.769 3.82695C298.772 3.91492 298.215 4.50141 298.098 5.58641V9.5892H297.174V3.21113H298.098V4.17884C298.567 3.4164 299.153 3.03519 299.857 3.03519C300.942 3.03519 301.602 3.48972 301.836 4.39877C302.306 3.48972 302.936 3.03519 303.728 3.03519C305.165 3.00586 305.869 3.79762 305.839 5.41047ZM311.601 7.12595V6.2902C311.484 6.52479 310.854 6.68608 309.71 6.77405C308.537 6.92067 307.965 7.33122 307.995 8.00568C308.024 8.65082 308.508 8.97338 309.446 8.97338C310.766 8.88541 311.484 8.2696 311.601 7.12595ZM308.127 5.19053L307.203 4.92661C307.525 3.60701 308.478 2.97654 310.062 3.03519C311.792 3.00586 312.628 3.82695 312.569 5.49844V8.09365C312.54 8.79744 312.657 9.29595 312.921 9.5892H311.997C311.792 9.3546 311.689 9.06136 311.689 8.70946C311.162 9.41325 310.326 9.76514 309.182 9.76514C307.833 9.7065 307.115 9.14933 307.027 8.09365C307.056 6.86203 307.833 6.1729 309.358 6.02628C310.59 5.90898 311.338 5.7477 311.601 5.54243C311.689 4.36945 311.162 3.81228 310.018 3.87093C308.904 3.81228 308.273 4.25215 308.127 5.19053ZM314.241 9.63318V3.21113H315.164V9.63318H314.241ZM314.241 2.02349V0.835854H315.164V2.02349H314.241ZM316.748 9.5892V0.835854H317.672V9.5892H316.748ZM321.015 9.5892H319.651V8.31358H321.015V9.5892ZM327.041 5.27851C326.777 4.39877 326.234 3.92958 325.413 3.87093C324.152 3.87093 323.522 4.736 323.522 6.46615C323.522 8.16696 324.152 9.01737 325.413 9.01737C326.44 9.01737 326.997 8.46021 327.085 7.34588L328.052 7.56581C327.818 9.09068 326.923 9.82379 325.369 9.76514C323.493 9.7065 322.539 8.60683 322.51 6.46615C322.569 4.29614 323.507 3.16715 325.325 3.07917C326.733 3.1085 327.613 3.73897 327.965 4.9706L327.041 5.27851ZM331.659 3.82695C330.31 3.85627 329.621 4.75067 329.592 6.51013C329.621 8.1523 330.31 9.00271 331.659 9.06136C332.92 9.00271 333.565 8.13764 333.595 6.46615C333.507 4.82398 332.862 3.94424 331.659 3.82695ZM331.615 9.76514C329.709 9.64785 328.712 8.5775 328.624 6.55412C328.683 4.29614 329.709 3.13782 331.703 3.07917C333.551 3.16715 334.519 4.28148 334.606 6.42216C334.577 8.62149 333.58 9.73582 331.615 9.76514ZM344.547 5.41047V9.5892H343.624V5.6304C343.653 4.39877 343.213 3.79762 342.304 3.82695C341.307 3.91492 340.765 4.53073 340.677 5.67439V9.5892H339.753V5.6304C339.782 4.39877 339.357 3.79762 338.477 3.82695C337.48 3.91492 336.923 4.50141 336.806 5.58641V9.5892H335.882V3.21113H336.806V4.17884C337.275 3.4164 337.861 3.03519 338.565 3.03519C339.65 3.03519 340.31 3.48972 340.545 4.39877C341.014 3.48972 341.644 3.03519 342.436 3.03519C343.873 3.00586 344.577 3.79762 344.547 5.41047Z" fill="#2C73FF"/>
</svg>
