<svg width="360" height="58" viewBox="0 0 360 58" fill="none" xmlns="http://www.w3.org/2000/svg">
<rect width="360" height="58" rx="15" fill="#FF6900"/>
<path d="M141.251 36.8281V34.9531H151.095C152.501 32.0885 153.777 28.8854 154.923 25.3438L157.267 26.2031C156.017 29.1719 154.741 32.0885 153.439 34.9531H159.767V36.8281H141.251ZM141.876 24.5625V22.5312H149.845C149.533 21.4375 149.22 20.3958 148.908 19.4062L151.251 19.0938C151.251 19.1458 151.277 19.25 151.329 19.4062C151.746 20.7604 152.059 21.8021 152.267 22.5312H159.298V24.5625H141.876ZM146.876 33.8594C145.939 31.151 144.949 28.625 143.908 26.2812L145.939 25.5C145.991 25.6562 146.095 25.8906 146.251 26.2031C147.501 29.1719 148.413 31.4375 148.986 33L146.876 33.8594ZM168.933 36.3594C168.62 35.8385 168.229 35.2396 167.761 34.5625C167.5 34.6667 167.136 34.8229 166.667 35.0312C165.261 35.5 164.219 35.9167 163.542 36.2812C162.969 36.4896 162.474 36.75 162.058 37.0625L160.886 35.5C161.354 35.1354 161.563 34.5885 161.511 33.8594V20.0312H169.558V29.9531H163.542V34.4062L166.823 32.9219L165.729 31.2031L167.448 30.5C168.907 32.7396 169.974 34.4062 170.651 35.5L168.933 36.3594ZM171.354 37.7656V20.4219H178.464V32.2969C178.568 34.0677 177.735 34.9792 175.964 35.0312C175.339 35.0312 174.74 35.0312 174.167 35.0312C174.115 34.7708 174.037 34.3802 173.933 33.8594C173.88 33.5469 173.828 33.2865 173.776 33.0781C174.349 33.0781 174.844 33.0781 175.261 33.0781C176.146 33.1302 176.563 32.7396 176.511 31.9062V22.375H173.308V37.7656H171.354ZM163.542 28.2344H167.604V25.8906H163.542V28.2344ZM163.542 21.8281V24.0938H167.604V21.8281H163.542ZM185.989 24.1719V22.2969H188.176V19.1719H190.208V22.2969H193.567V19.1719H195.598V22.2969H197.942V24.1719H195.598V27.7656H198.567V29.5625H195.598V34.5625H193.567V29.5625H190.129C190.025 31.6458 189.192 33.4427 187.629 34.9531C187.421 34.7448 187.057 34.4583 186.536 34.0938C186.223 33.8854 185.989 33.7292 185.833 33.625C187.239 32.4271 187.968 31.0729 188.02 29.5625H185.208V27.7656H188.176V24.1719H185.989ZM180.754 37.6875L179.739 35.5C180.051 35.2917 180.442 34.9271 180.911 34.4062C181.432 33.9375 181.796 33.599 182.004 33.3906V27.6875H179.973V25.6562H184.036V33.3125C184.765 34.6146 186.093 35.2917 188.02 35.3438C192.76 35.3438 196.353 35.3177 198.801 35.2656C198.749 35.474 198.645 35.7865 198.489 36.2031C198.385 36.6719 198.28 37.0104 198.176 37.2188C195.155 37.2188 192.916 37.2188 191.458 37.2188C189.843 37.1667 188.541 37.1146 187.551 37.0625C185.312 37.0104 183.801 36.3333 183.02 35.0312C182.135 35.9167 181.379 36.8021 180.754 37.6875ZM190.208 27.7656H193.567V24.1719H190.208V27.7656ZM183.176 23.9375C182.812 23.3646 182.291 22.5312 181.614 21.4375C181.249 20.8646 180.989 20.4479 180.833 20.1875L182.473 19.25C183.411 20.4479 184.27 21.6719 185.051 22.9219L183.176 23.9375ZM216.404 37.375C213.175 34.9792 210.649 31.4115 208.826 26.6719L208.748 26.5938C207.394 30.9167 204.712 34.5365 200.701 37.4531C200.597 37.349 200.467 37.1667 200.311 36.9062C200.102 36.6458 199.738 36.1771 199.217 35.5C203.436 32.7396 206.144 28.8854 207.342 23.9375C206.457 22.4271 205.441 21.2292 204.295 20.3438L206.092 19.1719C207.759 20.526 209.373 22.8958 210.936 26.2812C212.707 30.4479 215.128 33.4948 218.201 35.4219C217.628 35.9948 217.029 36.6458 216.404 37.375Z" fill="white"/>
</svg>
