<svg width="77" height="19" viewBox="0 0 77 19" fill="none" xmlns="http://www.w3.org/2000/svg">
<path d="M9.91821e-05 17.7344V15.8594H9.84385C11.2501 12.9948 12.5261 9.79167 13.672 6.25L16.0157 7.10938C14.7657 10.0781 13.4897 12.9948 12.1876 15.8594H18.5157V17.7344H9.91821e-05ZM0.625099 5.46875V3.4375H8.59385C8.28135 2.34375 7.96885 1.30208 7.65635 0.3125L10.0001 0C10.0001 0.0520833 10.0261 0.15625 10.0782 0.3125C10.4949 1.66667 10.8074 2.70833 11.0157 3.4375H18.047V5.46875H0.625099ZM5.6251 14.7656C4.6876 12.0573 3.69802 9.53125 2.65635 7.1875L4.6876 6.40625C4.73968 6.5625 4.84385 6.79688 5.0001 7.10938C6.2501 10.0781 7.16156 12.3438 7.73447 13.9062L5.6251 14.7656ZM27.6813 17.2656C27.3688 16.7448 26.9782 16.1458 26.5095 15.4688C26.2491 15.5729 25.8845 15.7292 25.4157 15.9375C24.0095 16.4062 22.9678 16.8229 22.2907 17.1875C21.7178 17.3958 21.223 17.6562 20.8063 17.9688L19.6345 16.4062C20.1032 16.0417 20.3116 15.4948 20.2595 14.7656V0.9375H28.3063V10.8594H22.2907V15.3125L25.572 13.8281L24.4782 12.1094L26.197 11.4062C27.6553 13.6458 28.723 15.3125 29.4001 16.4062L27.6813 17.2656ZM30.1032 18.6719V1.32812H37.2126V13.2031C37.3168 14.974 36.4834 15.8854 34.7126 15.9375C34.0876 15.9375 33.4886 15.9375 32.9157 15.9375C32.8636 15.6771 32.7855 15.2865 32.6813 14.7656C32.6293 14.4531 32.5772 14.1927 32.5251 13.9844C33.098 13.9844 33.5928 13.9844 34.0095 13.9844C34.8949 14.0365 35.3116 13.6458 35.2595 12.8125V3.28125H32.0563V18.6719H30.1032ZM22.2907 9.14062H26.3532V6.79688H22.2907V9.14062ZM22.2907 2.73438V5H26.3532V2.73438H22.2907ZM44.7376 5.07812V3.20312H46.9251V0.078125H48.9563V3.20312H52.3157V0.078125H54.347V3.20312H56.6907V5.07812H54.347V8.67188H57.3157V10.4688H54.347V15.4688H52.3157V10.4688H48.8782C48.7741 12.5521 47.9407 14.349 46.3782 15.8594C46.1699 15.651 45.8053 15.3646 45.2845 15C44.972 14.7917 44.7376 14.6354 44.5813 14.5312C45.9876 13.3333 46.7168 11.9792 46.7688 10.4688H43.9563V8.67188H46.9251V5.07812H44.7376ZM39.5032 18.5938L38.4876 16.4062C38.8001 16.1979 39.1907 15.8333 39.6595 15.3125C40.1803 14.8438 40.5449 14.5052 40.7532 14.2969V8.59375H38.722V6.5625H42.7845V14.2188C43.5136 15.5208 44.8418 16.1979 46.7688 16.25C51.5084 16.25 55.1022 16.224 57.5501 16.1719C57.498 16.3802 57.3938 16.6927 57.2376 17.1094C57.1334 17.5781 57.0293 17.9167 56.9251 18.125C53.9043 18.125 51.6647 18.125 50.2063 18.125C48.5918 18.0729 47.2897 18.0208 46.3001 17.9688C44.0605 17.9167 42.5501 17.2396 41.7688 15.9375C40.8834 16.8229 40.1282 17.7083 39.5032 18.5938ZM48.9563 8.67188H52.3157V5.07812H48.9563V8.67188ZM41.9251 4.84375C41.5605 4.27083 41.0397 3.4375 40.3626 2.34375C39.998 1.77083 39.7376 1.35417 39.5813 1.09375L41.222 0.15625C42.1595 1.35417 43.0188 2.57812 43.8001 3.82812L41.9251 4.84375ZM75.1532 18.2812C71.9241 15.8854 69.398 12.3177 67.5751 7.57812L67.497 7.5C66.1428 11.8229 63.4605 15.4427 59.4501 18.3594C59.3459 18.2552 59.2157 18.0729 59.0595 17.8125C58.8511 17.5521 58.4866 17.0833 57.9657 16.4062C62.1845 13.6458 64.8928 9.79167 66.0907 4.84375C65.2053 3.33333 64.1897 2.13542 63.0438 1.25L64.8407 0.078125C66.5074 1.43229 68.122 3.80208 69.6845 7.1875C71.4553 11.3542 73.8772 14.401 76.9501 16.3281C76.3772 16.901 75.7782 17.5521 75.1532 18.2812Z" fill="white"/>
</svg>
