<svg width="195" height="14" viewBox="0 0 195 14" fill="none" xmlns="http://www.w3.org/2000/svg">
<path d="M4.27527 12.8781V6.46513H11.731V11.1575C11.8005 12.235 11.2617 12.7738 10.1147 12.7738C9.55856 12.7738 8.91553 12.7738 8.1856 12.7738C8.15084 12.6348 8.08132 12.3915 7.97705 12.0439C7.94229 11.8701 7.90753 11.7484 7.87277 11.6789C8.25512 11.7137 8.82863 11.731 9.59332 11.731C10.1842 11.7658 10.4623 11.5399 10.4275 11.0532V10.7926H5.57871V12.8781H4.27527ZM3.75389 2.34625V1.40777H7.29926V0.41715H8.65484V1.40777H12.4088V2.34625H8.65484V3.12831H12.0438V4.01465H8.65484V4.79672H12.6173V5.7352H3.44106V4.79672H7.29926V4.01465H3.96244V3.12831H7.29926V2.34625H3.75389ZM1.61624 12.7217L0.886316 11.6789C1.12962 11.4704 1.2339 11.1749 1.19914 10.7926V5.99589H-2.60547e-05V4.69244H2.55472V10.3755C2.93707 10.0974 3.30203 9.80194 3.64962 9.48912C3.68437 9.66291 3.71913 9.94098 3.75389 10.3233C3.82341 10.6361 3.85817 10.8447 3.85817 10.949C3.09348 11.4704 2.5721 11.8527 2.29403 12.096C2.12024 12.235 1.89431 12.4436 1.61624 12.7217ZM5.57871 7.40361V8.23781H10.4275V7.40361H5.57871ZM5.57871 9.07201V9.90622H10.4275V9.07201H5.57871ZM2.18976 3.54541C1.94645 3.23259 1.56411 2.74597 1.04273 2.08556C0.799419 1.77273 0.608248 1.52942 0.469214 1.35563L1.56411 0.677838C1.70314 0.851631 1.92907 1.11232 2.2419 1.4599C2.76327 2.08556 3.12824 2.52004 3.33679 2.76335L2.18976 3.54541ZM13.3994 3.33686V2.1377H14.5985C14.7723 1.5468 14.9114 0.973286 15.0156 0.41715L16.2148 0.573563L15.8498 2.1377H17.7789V3.33686H15.4849C15.3806 3.82348 15.1894 4.53603 14.9114 5.47451C14.8071 5.89161 14.7202 6.18706 14.6507 6.36085H15.6934V4.37962H16.5798V6.36085H17.5183V7.50788H16.5798V9.12415C16.8926 9.12415 17.2402 9.08939 17.6225 9.01988C17.6225 9.15891 17.6052 9.36746 17.5704 9.64553C17.5704 9.9236 17.5704 10.1148 17.5704 10.219L16.5798 10.3755V12.8781H15.3806V10.5319L13.4515 10.7926L13.3472 9.54125C13.5558 9.5065 13.9034 9.45436 14.39 9.38484C14.8419 9.35008 15.1721 9.31532 15.3806 9.28057V7.50788H13.5036V6.30871C13.6079 5.96113 13.7643 5.40499 13.9729 4.64031C14.1467 4.04941 14.2683 3.61493 14.3379 3.33686H13.3994ZM18.0396 12.8781V5.42237H21.585V11.5746C21.6198 12.3393 21.2722 12.739 20.5422 12.7738C20.3685 12.8086 20.0556 12.8259 19.6038 12.8259C19.6038 12.7217 19.569 12.5305 19.4995 12.2524C19.4647 12.0091 19.43 11.8179 19.3952 11.6789C19.5342 11.7137 19.7428 11.731 20.0209 11.731C20.3685 11.731 20.5422 11.5746 20.5422 11.2618V10.3233H19.0824V12.8781H18.0396ZM25.3911 4.901C25.2868 4.83148 25.113 4.74458 24.8697 4.64031C24.5916 4.46651 24.2093 4.2232 23.7226 3.91038V4.58817H19.5516V3.96252C19.0998 4.3101 18.561 4.67507 17.9354 5.05741C17.7268 4.67507 17.4835 4.3101 17.2054 3.96252C19.0476 2.98928 20.3685 1.79011 21.1679 0.365012L22.5756 0.469287C22.4713 0.64308 22.3844 0.782114 22.3149 0.886389C23.2186 2.1377 24.4526 3.09355 26.0167 3.75397C25.8082 4.10155 25.5996 4.48389 25.3911 4.901ZM22.732 12.7738C22.6278 12.2524 22.5409 11.8527 22.4713 11.5746C22.8884 11.6094 23.236 11.6268 23.5141 11.6268C24.0355 11.6615 24.2788 11.4356 24.244 10.949V5.26596H25.3389V11.2618C25.4084 12.2698 24.9392 12.7738 23.9312 12.7738C23.5836 12.7738 23.1839 12.7738 22.732 12.7738ZM22.4192 10.6361V5.89161H23.3577V10.6361H22.4192ZM21.6371 1.82487C21.1853 2.45052 20.6465 3.02404 20.0209 3.54541H23.3055C22.7146 3.0588 22.1585 2.48528 21.6371 1.82487ZM19.0824 8.39422V9.38484H20.5422V8.39422H19.0824ZM19.0824 6.46513V7.45574H20.5422V6.46513H19.0824ZM38.1127 12.6695C35.9576 11.0706 34.2718 8.68967 33.0553 5.52665L33.0032 5.47451C32.0994 8.35947 30.3094 10.7752 27.633 12.7217C27.5635 12.6521 27.4766 12.5305 27.3723 12.3567C27.2333 12.1829 26.9899 11.8701 26.6424 11.4182C29.4578 9.57601 31.2652 7.00388 32.0647 3.70183C31.4738 2.69383 30.796 1.89439 30.0313 1.30349L31.2305 0.521425C32.3428 1.42515 33.4203 3.00666 34.463 5.26596C35.6448 8.04664 37.2611 10.08 39.3118 11.3661C38.9295 11.7484 38.5298 12.1829 38.1127 12.6695ZM44.6299 4.58817C44.4908 4.48389 44.2475 4.3101 43.9 4.06679C43.7262 3.96252 43.6045 3.87562 43.535 3.8061C44.4735 2.79811 45.2034 1.66846 45.7248 0.41715L47.1325 0.625701C47.0282 0.799493 46.9066 1.0428 46.7675 1.35563C46.698 1.49466 46.6459 1.59894 46.6111 1.66846H52.1899V2.91976L51.4599 4.48389C51.3209 4.41438 51.0602 4.32748 50.6779 4.2232C50.4345 4.15369 50.2608 4.10155 50.1565 4.06679L50.8343 2.86762H45.8812C45.5336 3.42376 45.1165 3.99727 44.6299 4.58817ZM44.7863 12.6174C43.674 12.6174 43.1179 12.0612 43.1179 10.949V8.70705H44.4735V10.5319C44.4735 11.1228 44.7689 11.4182 45.3598 11.4182H47.3932C48.0884 11.4182 48.4707 11.1401 48.5402 10.584C48.6445 10.2017 48.714 9.8367 48.7488 9.48912C48.8183 9.52388 48.9399 9.55863 49.1137 9.59339C49.4961 9.76718 49.8263 9.87146 50.1043 9.90622C50.0348 10.2538 49.9306 10.7057 49.7915 11.2618C49.7568 11.2966 49.7394 11.3313 49.7394 11.3661C49.4961 12.235 48.8183 12.6521 47.706 12.6174H44.7863ZM40.511 5.47451C40.4415 5.30072 40.3372 5.04003 40.1982 4.69244C40.0939 4.44913 40.007 4.25796 39.9375 4.11893C41.154 2.9719 42.0751 1.72059 42.7008 0.365012L44.0042 0.782114C43.7262 1.33825 43.3438 1.98128 42.8572 2.71121V8.0814H41.5538V4.37962C41.2409 4.79672 40.8933 5.16168 40.511 5.47451ZM46.7675 10.5319C46.3157 9.90622 45.7943 9.29794 45.2034 8.70705L46.0376 8.13354C46.0028 7.75119 45.8986 7.35147 45.7248 6.93437C46.1419 6.93437 46.4895 6.93437 46.7675 6.93437C47.2889 6.96913 47.5322 6.76057 47.4975 6.30871V3.54541H48.8009V6.51727C48.8357 7.56002 48.3317 8.0814 47.2889 8.0814C47.0108 8.11616 46.7154 8.13354 46.4026 8.13354C46.6806 8.37684 47.0456 8.77657 47.4975 9.3327C47.6712 9.5065 47.7929 9.62815 47.8624 9.69767L46.7675 10.5319ZM51.5642 11.6268C50.7648 10.5145 50.1043 9.59339 49.583 8.86346L50.6779 8.18567C50.9907 8.56802 51.4252 9.14153 51.9813 9.90622C52.3289 10.3581 52.5896 10.7057 52.7634 10.949L51.5642 11.6268ZM41.2931 11.9917L40.0418 11.5225C40.4241 10.7578 40.8412 9.78456 41.2931 8.60277L42.5444 8.96774C42.2315 9.90622 41.8144 10.9142 41.2931 11.9917ZM44.4213 7.61216C44.1085 7.26457 43.7783 6.9865 43.4307 6.77795C44.2302 5.97851 44.9601 5.1443 45.6205 4.27534L46.7154 4.901C46.2983 5.45713 45.6726 6.22182 44.8384 7.19506C44.6646 7.36885 44.5256 7.50788 44.4213 7.61216ZM51.5121 7.61216C51.2688 7.33409 50.9559 6.96913 50.5736 6.51727C50.0174 5.89161 49.6003 5.42237 49.3223 5.10955L50.2608 4.37962C50.5388 4.65769 50.9385 5.05741 51.4599 5.57879C51.9465 6.10016 52.3115 6.48251 52.5548 6.72582L51.5121 7.61216ZM53.8583 12.7217V2.50266H55.266C55.3703 2.12032 55.5093 1.59894 55.6831 0.938527C55.7178 0.729976 55.7526 0.573563 55.7874 0.469287L57.2472 0.677838C57.1082 1.30349 56.9344 1.91176 56.7258 2.50266H58.9678V12.6695H57.6643V11.731H55.2138V12.7217H53.8583ZM60.8969 12.6695C60.8273 12.1481 60.7404 11.7137 60.6362 11.3661C60.8447 11.3661 61.1575 11.3661 61.5746 11.3661C62.0265 11.4008 62.3741 11.4182 62.6174 11.4182C63.5559 11.4182 64.0251 10.9664 64.0251 10.0626C64.0599 9.5065 64.0946 8.32471 64.1294 6.51727C64.1642 5.2312 64.1815 4.32748 64.1815 3.8061H61.314C61.0011 4.50127 60.6883 5.1443 60.3755 5.7352C60.306 5.70044 60.2017 5.63092 60.0627 5.52665C59.8889 5.42237 59.5934 5.26596 59.1763 5.05741C59.9758 3.59755 60.6014 2.06818 61.0533 0.469287L62.461 0.782114C62.4262 0.921148 62.3567 1.11232 62.2524 1.35563C62.1134 1.84225 61.9744 2.22459 61.8353 2.50266H65.5893C65.5197 6.29134 65.4502 8.89822 65.3807 10.3233C65.4155 11.8875 64.6682 12.6521 63.1388 12.6174C62.4436 12.6521 61.6963 12.6695 60.8969 12.6695ZM55.2138 7.82071V10.5319H57.6643V7.82071H55.2138ZM55.2138 3.8061V6.51727H57.6643V3.8061H55.2138ZM61.9917 9.17629C61.4009 8.27257 60.7578 7.35147 60.0627 6.41299L61.1575 5.7352C61.7832 6.46513 62.461 7.35147 63.1909 8.39422L61.9917 9.17629ZM78.7801 12.8259C77.1464 12.4436 75.843 11.9917 74.8698 11.4704C73.827 12.0265 72.4541 12.5131 70.7509 12.9302C70.6814 12.7912 70.5771 12.5652 70.4381 12.2524C70.3338 12.0091 70.2469 11.8353 70.1774 11.731C71.6372 11.453 72.819 11.1228 73.7227 10.7404C72.958 10.08 72.315 9.22843 71.7936 8.18567L72.0543 8.0814H71.3244V6.93437H78.2587V8.18567C77.5635 9.29794 76.8336 10.1495 76.0689 10.7404C76.8684 11.1228 77.9633 11.4008 79.3536 11.5746C79.1451 11.957 78.9539 12.3741 78.7801 12.8259ZM66.8927 4.2232V2.9719H68.0919V0.469287H69.3953V2.9719H70.4902V4.2232H69.3953V6.41299L70.4902 6.10016C70.4902 6.58678 70.5076 7.03864 70.5423 7.45574C70.4381 7.4905 70.2469 7.54264 69.9688 7.61216C69.7255 7.68167 69.5343 7.73381 69.3953 7.76857V11.3139C69.4301 12.2177 69.013 12.7043 68.144 12.7738C67.7269 12.8086 67.3446 12.8259 66.997 12.8259C66.9622 12.3741 66.8927 11.9222 66.7884 11.4704C67.0317 11.4704 67.2924 11.4704 67.5705 11.4704C67.9528 11.5051 68.1266 11.3487 68.0919 11.0011V8.13354C67.6748 8.23781 67.2577 8.37684 66.8406 8.55064L66.6841 7.09078C67.1708 6.9865 67.64 6.86485 68.0919 6.72582V4.2232H66.8927ZM70.8552 6.67368V4.53603H72.0543C71.8458 4.01465 71.6025 3.49328 71.3244 2.9719L72.5757 2.71121C72.6105 2.81549 72.68 2.95452 72.7843 3.12831C72.9233 3.40638 73.0971 3.82348 73.3056 4.37962L72.7843 4.53603H74.5569C74.4179 3.9799 74.2094 3.389 73.9313 2.76335L75.1826 2.60693C75.3911 3.12831 75.5823 3.70183 75.7561 4.32748L74.6612 4.53603H76.3296C76.6772 3.87562 77.0074 3.21521 77.3202 2.5548L78.6237 2.81549C78.5194 2.98928 78.3804 3.26735 78.2066 3.64969C77.998 4.03203 77.8416 4.32748 77.7373 4.53603H79.0929V6.67368H77.7895V5.68306H72.1586V6.67368H70.8552ZM71.0116 2.39838C70.9768 1.98128 70.9073 1.58156 70.803 1.19922C73.0971 1.16446 75.7387 1.02542 78.728 0.782114L78.8844 1.98128C77.0422 2.15507 74.4179 2.29411 71.0116 2.39838ZM76.7467 8.0814H73.1492C73.6358 8.88084 74.2094 9.54125 74.8698 10.0626C75.6692 9.54125 76.2949 8.88084 76.7467 8.0814ZM91.9188 12.7738C90.2852 11.8006 89.1381 10.9316 88.4777 10.1669C87.574 11.0706 86.3053 11.9917 84.6717 12.9302C84.5674 12.7912 84.3588 12.5131 84.046 12.096C83.907 11.9222 83.8027 11.7832 83.7332 11.6789C85.3668 10.9142 86.6529 10.0279 87.5914 9.01988C86.4791 7.4905 85.7318 5.47451 85.3495 2.9719L86.6008 2.65907H84.8802V1.30349H91.9188V2.65907C91.3279 5.47451 90.4937 7.59478 89.4162 9.01988C90.2504 9.95836 91.3801 10.7752 92.8052 11.4704C92.4228 11.9917 92.1274 12.4262 91.9188 12.7738ZM80.2921 4.17107V2.91976H81.9084V0.469287H83.2639V2.91976H84.7759V4.17107H83.2639V6.1523L83.7332 5.68306C84.3588 6.27396 84.915 6.83009 85.4016 7.35147L84.5153 8.28995C84.3067 8.01188 83.9244 7.56002 83.3682 6.93437C83.3335 6.89961 83.2987 6.86485 83.2639 6.83009V12.8781H81.9084V6.88223C81.5955 7.89023 81.0742 8.9156 80.3442 9.95836C80.3095 9.57601 80.2052 8.95036 80.0314 8.0814C80.7961 7.03864 81.4217 5.7352 81.9084 4.17107H80.2921ZM90.5111 2.65907H86.6529C87.0005 4.8141 87.6088 6.5694 88.4777 7.92498C89.4162 6.60416 90.094 4.84886 90.5111 2.65907ZM93.9522 12.4088V2.50266H96.4027V0.469287H97.6018V2.50266H100.104V12.4088H98.9053V11.5746H95.1514V12.4088H93.9522ZM101.251 12.9302V1.30349H105.735V2.60693L104.536 5.99589C105.509 6.93437 105.979 7.95974 105.944 9.07201C105.979 10.5666 105.37 11.3313 104.119 11.3661C103.91 11.4008 103.546 11.4182 103.024 11.4182C102.92 10.9316 102.816 10.4797 102.711 10.0626C102.989 10.0626 103.32 10.0626 103.702 10.0626C104.397 10.0974 104.727 9.71505 104.693 8.9156C104.693 8.0814 104.206 7.17768 103.233 6.20444L104.484 2.5548H102.451V12.9302H101.251ZM97.6018 7.61216V10.4797H98.9053V7.61216H97.6018ZM95.1514 7.61216V10.4797H96.4027V7.61216H95.1514ZM98.9053 3.70183H97.6018V6.46513H98.9053V3.70183ZM95.1514 3.70183V6.46513H96.4027V3.70183H95.1514ZM112.409 12.8781V4.53603H118.718V12.8781H117.362V12.2524H113.765V12.8781H112.409ZM107.039 6.77795V5.63092H108.864V4.06679H110.167V5.63092H111.731V6.77795H110.167V8.13354L110.584 7.71643C110.654 7.75119 110.741 7.82071 110.845 7.92498C111.401 8.37684 111.835 8.75919 112.148 9.07201L111.314 9.95836C111.21 9.85408 111.071 9.71505 110.897 9.54125C110.584 9.22843 110.341 8.98512 110.167 8.81133V12.9302H108.864V8.60277C108.412 9.74981 107.838 10.6883 107.143 11.4182C106.969 10.7578 106.83 10.2712 106.726 9.95836C107.595 9.01988 108.255 7.95974 108.707 6.77795H107.039ZM107.664 4.32748C107.421 4.11893 107.108 3.82348 106.726 3.44114C107.769 2.53742 108.516 1.52942 108.968 0.41715L110.323 0.573563C110.184 0.886389 110.028 1.18184 109.854 1.4599H113.191V2.5548H110.741C110.914 2.72859 111.175 2.98928 111.523 3.33686C111.696 3.51066 111.818 3.63231 111.888 3.70183L110.949 4.43176C110.88 4.36224 110.793 4.25796 110.688 4.11893C110.341 3.70183 110.045 3.389 109.802 3.18045L110.584 2.5548H109.176C108.759 3.18045 108.255 3.77134 107.664 4.32748ZM113.765 4.17107C113.452 3.893 113.121 3.64969 112.774 3.44114C113.539 2.53742 114.147 1.52942 114.599 0.41715L115.954 0.573563C115.92 0.64308 115.867 0.764735 115.798 0.938527C115.694 1.18184 115.607 1.35563 115.537 1.4599H119.291V2.5548H116.319C116.319 2.5548 116.337 2.57218 116.371 2.60693C116.858 3.02404 117.223 3.37162 117.466 3.64969L116.632 4.43176C116.354 4.11893 115.954 3.70183 115.433 3.18045L116.163 2.5548H114.912C114.668 3.00666 114.286 3.54541 113.765 4.17107ZM113.765 5.63092V6.83009H117.362V5.63092H113.765ZM113.765 10.0105V11.2097H117.362V10.0105H113.765ZM113.765 7.82071V9.01988H117.362V7.82071H113.765ZM129.823 13.2952H128.155C126.417 11.4182 125.53 9.22843 125.496 6.72582C125.6 4.11893 126.486 1.87701 128.155 4.78402e-05H129.771C128.102 2.0508 127.233 4.29272 127.164 6.72582C127.164 9.19367 128.05 11.3835 129.823 13.2952ZM143.587 12.6695C142.406 12.7043 141.432 12.0439 140.668 10.6883C139.938 9.47174 139.538 7.69905 139.468 5.37024C139.434 5.05741 139.434 4.397 139.468 3.389C139.468 3.04142 139.468 2.81549 139.468 2.71121H133.525V1.30349H140.928C140.928 2.34625 140.928 3.44114 140.928 4.58817C141.658 4.06679 142.736 3.18045 144.161 1.92914L145.256 2.91976C143.97 3.96252 142.892 4.76196 142.023 5.3181C142.266 5.42237 142.597 5.59617 143.014 5.83947C144.126 6.39561 144.943 6.83009 145.464 7.14292L144.63 8.44636C143.344 7.64692 142.145 6.91699 141.033 6.25658C141.102 7.75119 141.415 8.96774 141.971 9.90622C142.423 10.7752 142.962 11.2097 143.587 11.2097C144.004 11.2097 144.282 10.9664 144.422 10.4797C144.595 9.81932 144.717 9.28057 144.786 8.86346C144.891 8.89822 145.03 8.96774 145.204 9.07201C145.377 9.14153 145.673 9.26319 146.09 9.43698C145.916 10.3059 145.725 11.0011 145.516 11.5225C145.204 12.2872 144.561 12.6695 143.587 12.6695ZM158.342 3.75397L157.247 2.91976L156.987 6.51727H158.916C158.881 6.93437 158.881 7.0734 158.916 6.93437C158.846 8.28995 158.794 9.21105 158.759 9.69767C158.725 10.9837 158.029 11.6094 156.674 11.5746C156.292 11.6094 155.596 11.6268 154.588 11.6268C154.484 11.1401 154.397 10.723 154.328 10.3755C154.501 10.3755 154.78 10.3755 155.162 10.3755C155.579 10.4102 155.892 10.4276 156.1 10.4276C156.9 10.4624 157.3 10.1321 157.3 9.43698C157.369 8.88084 157.404 8.34209 157.404 7.82071H152.816V12.9302H151.356V7.82071H146.872V6.51727H151.356V4.06679H147.706V2.76335H151.356V0.469287H152.816V2.76335H157.039C156.761 2.52004 156.326 2.20721 155.735 1.82487C155.596 1.75535 155.509 1.70321 155.475 1.66846L156.361 0.677838C157.334 1.30349 158.29 1.9639 159.229 2.65907L158.342 3.75397ZM155.735 4.06679H152.816V6.51727H155.579L155.735 4.06679ZM160.688 12.4088V2.50266H163.139V0.469287H164.338V2.50266H166.841V12.4088H165.642V11.5746H161.888V12.4088H160.688ZM167.988 12.9302V1.30349H172.472V2.60693L171.272 5.99589C172.246 6.93437 172.715 7.95974 172.68 9.07201C172.715 10.5666 172.107 11.3313 170.855 11.3661C170.647 11.4008 170.282 11.4182 169.76 11.4182C169.656 10.9316 169.552 10.4797 169.448 10.0626C169.726 10.0626 170.056 10.0626 170.438 10.0626C171.133 10.0974 171.464 9.71505 171.429 8.9156C171.429 8.0814 170.942 7.17768 169.969 6.20444L171.22 2.5548H169.187V12.9302H167.988ZM164.338 7.61216V10.4797H165.642V7.61216H164.338ZM161.888 7.61216V10.4797H163.139V7.61216H161.888ZM165.642 3.70183H164.338V6.46513H165.642V3.70183ZM161.888 3.70183V6.46513H163.139V3.70183H161.888ZM179.145 12.8781V4.53603H185.454V12.8781H184.098V12.2524H180.501V12.8781H179.145ZM173.775 6.77795V5.63092H175.6V4.06679H176.903V5.63092H178.467V6.77795H176.903V8.13354L177.32 7.71643C177.39 7.75119 177.477 7.82071 177.581 7.92498C178.137 8.37684 178.572 8.75919 178.885 9.07201L178.05 9.95836C177.946 9.85408 177.807 9.71505 177.633 9.54125C177.32 9.22843 177.077 8.98512 176.903 8.81133V12.9302H175.6V8.60277C175.148 9.74981 174.575 10.6883 173.879 11.4182C173.706 10.7578 173.567 10.2712 173.462 9.95836C174.331 9.01988 174.992 7.95974 175.443 6.77795H173.775ZM174.401 4.32748C174.157 4.11893 173.845 3.82348 173.462 3.44114C174.505 2.53742 175.252 1.52942 175.704 0.41715L177.06 0.573563C176.921 0.886389 176.764 1.18184 176.591 1.4599H179.927V2.5548H177.477C177.651 2.72859 177.911 2.98928 178.259 3.33686C178.433 3.51066 178.554 3.63231 178.624 3.70183L177.685 4.43176C177.616 4.36224 177.529 4.25796 177.425 4.11893C177.077 3.70183 176.782 3.389 176.538 3.18045L177.32 2.5548H175.913C175.496 3.18045 174.992 3.77134 174.401 4.32748ZM180.501 4.17107C180.188 3.893 179.858 3.64969 179.51 3.44114C180.275 2.53742 180.883 1.52942 181.335 0.41715L182.691 0.573563C182.656 0.64308 182.604 0.764735 182.534 0.938527C182.43 1.18184 182.343 1.35563 182.274 1.4599H186.027V2.5548H183.056C183.056 2.5548 183.073 2.57218 183.108 2.60693C183.594 3.02404 183.959 3.37162 184.203 3.64969L183.368 4.43176C183.09 4.11893 182.691 3.70183 182.169 3.18045L182.899 2.5548H181.648C181.405 3.00666 181.022 3.54541 180.501 4.17107ZM180.501 5.63092V6.83009H184.098V5.63092H180.501ZM180.501 10.0105V11.2097H184.098V10.0105H180.501ZM180.501 7.82071V9.01988H184.098V7.82071H180.501ZM191.45 13.2952H189.833C191.571 11.453 192.44 9.26319 192.44 6.72582C192.371 4.29272 191.502 2.0508 189.833 4.78402e-05H191.502C193.136 1.84225 194.005 4.08417 194.109 6.72582C194.074 9.22843 193.188 11.4182 191.45 13.2952Z" fill="#676767"/>
</svg>
