<svg width="150" height="48" viewBox="0 0 150 48" fill="none" xmlns="http://www.w3.org/2000/svg">
<rect width="149.439" height="48" rx="6" fill="white"/>
<path d="M32.2196 13.4795C31.1334 13.4795 30.1124 13.6506 29.1701 13.9683C28.0866 12.7654 27.1557 12.2503 26.3773 12.4232C26.2505 12.4513 26.127 12.4979 26.0066 12.5631C25.9656 12.5858 25.9328 12.621 25.9129 12.6635C25.8931 12.7062 25.8867 12.7539 25.8947 12.8002C25.9027 12.8465 25.9247 12.8893 25.9577 12.9229C25.9908 12.9554 26.0334 12.9766 26.0793 12.9832C26.1252 12.9898 26.1721 12.9815 26.213 12.9595C26.279 12.9233 26.3474 12.8952 26.418 12.8753C27.0208 12.7052 27.7893 13.1229 28.7234 14.1285C25.8817 15.2527 23.8261 17.7442 23.0074 20.871C22.5873 20.8381 22.166 20.8227 21.7447 20.8248C20 20.8262 20 22.6184 20 23.0665C20 23.5145 20.4358 25.7548 21.746 25.7548C22.0719 25.7548 22.4398 25.6706 22.8105 25.5117C23.4201 28.219 25.4907 31.9121 29.1647 33.2793V35.6092H30.9107V32.9208C31.3465 33.3689 33.0926 33.3689 33.5284 32.9208V35.6092H35.2745V33.2793C38.9485 31.9121 41.019 28.219 41.6286 25.5117C41.9993 25.6706 42.3672 25.7561 42.6931 25.7561C44.0033 25.7561 44.4391 23.5159 44.4391 23.0678C44.4391 22.6198 44.4391 20.8276 42.6931 20.8276C42.2097 20.8276 41.7916 20.8411 41.4304 20.8724C40.6864 18.0238 38.9145 15.7035 36.4557 14.4639C37.4477 13.661 38.2633 13.3695 38.9023 13.5895C38.9702 13.613 39.0363 13.6425 39.1005 13.6778C39.1411 13.7 39.1878 13.7085 39.2336 13.7019C39.2794 13.6953 39.3218 13.6739 39.3544 13.6411C39.3879 13.6079 39.4101 13.5649 39.4179 13.5184C39.4257 13.4719 39.4187 13.4241 39.3979 13.3818C39.3781 13.3392 39.3453 13.304 39.3042 13.2813C38.4366 12.8074 37.3409 13.1319 36.0131 14.2548C34.816 13.7363 33.5241 13.4727 32.2196 13.4809V13.4795ZM36.0443 20.1215C35.8219 20.2875 35.5519 20.3771 35.2745 20.3771C34.997 20.3771 34.727 20.2875 34.5046 20.1215C34.2798 19.9527 34.1136 19.7177 34.0294 19.4495C33.9443 19.1795 33.9443 18.8899 34.0294 18.6199C34.1136 18.3517 34.2798 18.1166 34.5046 17.9478C34.727 17.7819 34.997 17.6922 35.2745 17.6922C35.5519 17.6922 35.8219 17.7819 36.0443 17.9478C36.2691 18.1166 36.4353 18.3517 36.5195 18.6199C36.605 18.8887 36.605 19.1793 36.5195 19.4495C36.4353 19.7177 36.2691 19.9528 36.0443 20.1215ZM28.9868 19.106C28.9323 19.0289 28.9031 18.9369 28.9031 18.8426C28.9031 18.7482 28.9323 18.6562 28.9868 18.5792C29.0259 18.5215 29.0785 18.4742 29.14 18.4416C29.2015 18.4089 29.2702 18.3919 29.3398 18.3919C29.4095 18.3919 29.4781 18.4089 29.5396 18.4416C29.6012 18.4742 29.6538 18.5215 29.6928 18.5792C29.7473 18.6562 29.7766 18.7482 29.7766 18.8426C29.7766 18.9369 29.7473 19.0289 29.6928 19.106C29.6538 19.1636 29.6012 19.2109 29.5396 19.2435C29.4781 19.2762 29.4095 19.2932 29.3398 19.2932C29.2702 19.2932 29.2015 19.2762 29.14 19.2435C29.0785 19.2109 29.0259 19.1636 28.9868 19.106Z" fill="#4299FF"/>
<path d="M32.2196 13.4795C31.1334 13.4795 30.1124 13.6506 29.1701 13.9683C28.0866 12.7654 27.1557 12.2503 26.3773 12.4232C26.2505 12.4513 26.127 12.4979 26.0066 12.5631C25.9656 12.5858 25.9328 12.621 25.9129 12.6635C25.8931 12.7062 25.8867 12.7539 25.8947 12.8002C25.9027 12.8465 25.9247 12.8893 25.9577 12.9229C25.9908 12.9554 26.0334 12.9766 26.0793 12.9832C26.1252 12.9898 26.1721 12.9815 26.213 12.9595C26.279 12.9233 26.3474 12.8952 26.418 12.8753C27.0208 12.7052 27.7893 13.1229 28.7234 14.1285C25.8817 15.2527 23.8261 17.7442 23.0074 20.871C22.5873 20.8381 22.166 20.8227 21.7447 20.8248C20 20.8262 20 22.6184 20 23.0665C20 23.5145 20.4358 25.7548 21.746 25.7548C22.0719 25.7548 22.4398 25.6706 22.8105 25.5117C23.4201 28.219 25.4907 31.9121 29.1647 33.2793V35.6092H30.9107V32.9208C31.3465 33.3689 33.0926 33.3689 33.5284 32.9208V35.6092H35.2745V33.2793C38.9485 31.9121 41.019 28.219 41.6286 25.5117C41.9993 25.6706 42.3672 25.7561 42.6931 25.7561C44.0033 25.7561 44.4391 23.5159 44.4391 23.0678C44.4391 22.6198 44.4391 20.8276 42.6931 20.8276C42.2097 20.8276 41.7916 20.8411 41.4304 20.8724C40.6864 18.0238 38.9145 15.7035 36.4557 14.4639C37.4477 13.661 38.2633 13.3695 38.9023 13.5895C38.9702 13.613 39.0363 13.6425 39.1005 13.6778C39.1411 13.7 39.1878 13.7085 39.2336 13.7019C39.2794 13.6953 39.3218 13.6739 39.3544 13.6411C39.3879 13.6079 39.4101 13.5649 39.4179 13.5184C39.4257 13.4719 39.4187 13.4241 39.3979 13.3818C39.3781 13.3392 39.3453 13.304 39.3042 13.2813C38.4366 12.8074 37.3409 13.1319 36.0131 14.2548C34.816 13.7363 33.5241 13.4727 32.2196 13.4809V13.4795ZM36.0443 20.1215C35.8219 20.2875 35.5519 20.3771 35.2745 20.3771C34.997 20.3771 34.727 20.2875 34.5046 20.1215C34.2798 19.9527 34.1136 19.7177 34.0294 19.4495C33.9443 19.1795 33.9443 18.8899 34.0294 18.6199C34.1136 18.3517 34.2798 18.1166 34.5046 17.9478C34.727 17.7819 34.997 17.6922 35.2745 17.6922C35.5519 17.6922 35.8219 17.7819 36.0443 17.9478C36.2691 18.1166 36.4353 18.3517 36.5195 18.6199C36.605 18.8887 36.605 19.1793 36.5195 19.4495C36.4353 19.7177 36.2691 19.9528 36.0443 20.1215ZM28.9868 19.106C28.9323 19.0289 28.9031 18.9369 28.9031 18.8426C28.9031 18.7482 28.9323 18.6562 28.9868 18.5792C29.0259 18.5215 29.0785 18.4742 29.14 18.4416C29.2015 18.4089 29.2702 18.3919 29.3398 18.3919C29.4095 18.3919 29.4781 18.4089 29.5396 18.4416C29.6012 18.4742 29.6538 18.5215 29.6928 18.5792C29.7473 18.6562 29.7766 18.7482 29.7766 18.8426C29.7766 18.9369 29.7473 19.0289 29.6928 19.106C29.6538 19.1636 29.6012 19.2109 29.5396 19.2435C29.4781 19.2762 29.4095 19.2932 29.3398 19.2932C29.2702 19.2932 29.2015 19.2762 29.14 19.2435C29.0785 19.2109 29.0259 19.1636 28.9868 19.106Z" fill="black"/>
<path d="M56.3755 30.208C55.3941 30.208 54.5248 29.9627 53.7675 29.472C53.0208 28.9707 52.4341 28.2613 52.0075 27.344C51.5808 26.4267 51.3675 25.344 51.3675 24.096C51.3675 22.8373 51.5808 21.76 52.0075 20.864C52.4341 19.9573 53.0208 19.264 53.7675 18.784C54.5248 18.304 55.3941 18.064 56.3755 18.064C57.3568 18.064 58.2208 18.3093 58.9675 18.8C59.7248 19.28 60.3168 19.968 60.7435 20.864C61.1701 21.76 61.3835 22.8373 61.3835 24.096C61.3835 25.344 61.1701 26.4267 60.7435 27.344C60.3168 28.2613 59.7248 28.9707 58.9675 29.472C58.2208 29.9627 57.3568 30.208 56.3755 30.208ZM56.3755 28.912C57.0795 28.912 57.6928 28.7147 58.2155 28.32C58.7381 27.9253 59.1435 27.3653 59.4315 26.64C59.7195 25.9147 59.8635 25.0667 59.8635 24.096C59.8635 23.1147 59.7195 22.272 59.4315 21.568C59.1435 20.8533 58.7381 20.3093 58.2155 19.936C57.6928 19.552 57.0795 19.36 56.3755 19.36C55.6821 19.36 55.0688 19.552 54.5355 19.936C54.0128 20.3093 53.6075 20.8533 53.3195 21.568C53.0315 22.272 52.8875 23.1147 52.8875 24.096C52.8875 25.0667 53.0315 25.9147 53.3195 26.64C53.6075 27.3653 54.0128 27.9253 54.5355 28.32C55.0688 28.7147 55.6821 28.912 56.3755 28.912ZM63.4665 33.664V21.312H64.6665L64.8105 22.32H64.8425C65.2371 21.9893 65.6691 21.7013 66.1385 21.456C66.6185 21.2107 67.1091 21.088 67.6105 21.088C68.3571 21.088 68.9865 21.2747 69.4985 21.648C70.0211 22.0107 70.4105 22.5227 70.6665 23.184C70.9331 23.8453 71.0665 24.624 71.0665 25.52C71.0665 26.512 70.8851 27.36 70.5225 28.064C70.1705 28.7573 69.7065 29.2907 69.1305 29.664C68.5651 30.0267 67.9518 30.208 67.2905 30.208C66.8958 30.208 66.4958 30.1227 66.0905 29.952C65.6851 29.7707 65.2851 29.52 64.8905 29.2L64.9385 30.72V33.664H63.4665ZM67.0505 28.976C67.5305 28.976 67.9571 28.8427 68.3305 28.576C68.7145 28.2987 69.0131 27.904 69.2265 27.392C69.4398 26.8693 69.5465 26.2507 69.5465 25.536C69.5465 24.896 69.4665 24.336 69.3065 23.856C69.1571 23.3653 68.9171 22.9867 68.5865 22.72C68.2558 22.4533 67.8078 22.32 67.2425 22.32C66.8798 22.32 66.5065 22.4213 66.1225 22.624C65.7491 22.8267 65.3545 23.12 64.9385 23.504V28.08C65.3225 28.4107 65.7011 28.6453 66.0745 28.784C66.4478 28.912 66.7731 28.976 67.0505 28.976ZM76.5883 30.208C75.8097 30.208 75.1057 30.0267 74.4763 29.664C73.847 29.3013 73.3457 28.784 72.9723 28.112C72.6097 27.4293 72.4283 26.6133 72.4283 25.664C72.4283 24.9493 72.535 24.3147 72.7483 23.76C72.9617 23.1947 73.2497 22.7147 73.6123 22.32C73.9857 21.9147 74.407 21.6107 74.8763 21.408C75.3457 21.1947 75.8257 21.088 76.3163 21.088C77.063 21.088 77.6923 21.2533 78.2043 21.584C78.7163 21.9147 79.1057 22.3893 79.3723 23.008C79.6497 23.616 79.7883 24.336 79.7883 25.168C79.7883 25.328 79.783 25.4773 79.7723 25.616C79.7617 25.7547 79.7457 25.8827 79.7243 26H73.8683C73.9003 26.6187 74.039 27.1573 74.2843 27.616C74.5403 28.064 74.8763 28.416 75.2923 28.672C75.7083 28.9173 76.1937 29.04 76.7483 29.04C77.175 29.04 77.559 28.9813 77.9003 28.864C78.2523 28.736 78.5937 28.5653 78.9243 28.352L79.4363 29.328C79.063 29.5733 78.6417 29.7813 78.1723 29.952C77.703 30.1227 77.175 30.208 76.5883 30.208ZM73.8523 24.96H78.5083C78.5083 24.0853 78.3163 23.4187 77.9323 22.96C77.559 22.4907 77.031 22.256 76.3483 22.256C75.943 22.256 75.559 22.3627 75.1963 22.576C74.8443 22.7893 74.5457 23.0933 74.3003 23.488C74.0657 23.8827 73.9163 24.3733 73.8523 24.96ZM81.6077 30V21.312H82.8077L82.9517 22.576H82.9837C83.3997 22.16 83.837 21.808 84.2957 21.52C84.765 21.232 85.2984 21.088 85.8957 21.088C86.813 21.088 87.485 21.3813 87.9117 21.968C88.3384 22.544 88.5517 23.3867 88.5517 24.496V30H87.0957V24.688C87.0957 23.8667 86.9624 23.2747 86.6957 22.912C86.4397 22.5493 86.0237 22.368 85.4477 22.368C84.9997 22.368 84.5997 22.48 84.2477 22.704C83.8957 22.928 83.5064 23.2587 83.0797 23.696V30H81.6077ZM98.8715 30.208C98.1461 30.208 97.4688 30.0747 96.8395 29.808C96.2208 29.5307 95.6821 29.1307 95.2235 28.608C94.7648 28.0853 94.4075 27.4507 94.1515 26.704C93.8955 25.9467 93.7675 25.0933 93.7675 24.144C93.7675 23.1947 93.8955 22.3467 94.1515 21.6C94.4181 20.8427 94.7861 20.2027 95.2555 19.68C95.7248 19.1573 96.2741 18.7573 96.9035 18.48C97.5328 18.2027 98.2208 18.064 98.9675 18.064C99.6821 18.064 100.311 18.2133 100.855 18.512C101.399 18.8 101.842 19.1307 102.183 19.504L101.383 20.464C101.074 20.1333 100.722 19.8667 100.327 19.664C99.9328 19.4613 99.4848 19.36 98.9835 19.36C98.2475 19.36 97.6021 19.552 97.0475 19.936C96.4928 20.32 96.0608 20.8693 95.7515 21.584C95.4421 22.288 95.2875 23.1253 95.2875 24.096C95.2875 25.088 95.4368 25.9467 95.7355 26.672C96.0341 27.3867 96.4555 27.9413 96.9995 28.336C97.5435 28.72 98.1888 28.912 98.9355 28.912C99.4901 28.912 99.9861 28.7947 100.423 28.56C100.871 28.3253 101.282 28 101.655 27.584L102.471 28.528C102.013 29.0613 101.49 29.4773 100.903 29.776C100.317 30.064 99.6395 30.208 98.8715 30.208ZM105.731 30.208C105.368 30.208 105.075 30.1333 104.851 29.984C104.627 29.8347 104.461 29.616 104.355 29.328C104.248 29.0293 104.195 28.6773 104.195 28.272V17.264H105.667V28.368C105.667 28.592 105.704 28.752 105.779 28.848C105.864 28.944 105.96 28.992 106.067 28.992C106.109 28.992 106.152 28.992 106.195 28.992C106.237 28.9813 106.296 28.9707 106.371 28.96L106.579 30.08C106.472 30.112 106.355 30.1387 106.227 30.16C106.099 30.192 105.933 30.208 105.731 30.208ZM110.421 30.208C109.941 30.208 109.509 30.112 109.125 29.92C108.741 29.728 108.437 29.4507 108.213 29.088C108 28.7147 107.893 28.2667 107.893 27.744C107.893 26.7947 108.315 26.0693 109.157 25.568C110.011 25.056 111.365 24.6987 113.221 24.496C113.221 24.1227 113.168 23.7707 113.061 23.44C112.965 23.0987 112.789 22.8267 112.533 22.624C112.277 22.4107 111.909 22.304 111.429 22.304C110.928 22.304 110.453 22.4053 110.005 22.608C109.568 22.8 109.173 23.008 108.821 23.232L108.261 22.224C108.528 22.0533 108.837 21.8827 109.189 21.712C109.541 21.5307 109.925 21.3813 110.341 21.264C110.757 21.1467 111.2 21.088 111.669 21.088C112.373 21.088 112.944 21.2373 113.381 21.536C113.829 21.8347 114.155 22.2507 114.357 22.784C114.571 23.3067 114.677 23.9307 114.677 24.656V30H113.477L113.349 28.96H113.301C112.896 29.3013 112.448 29.5947 111.957 29.84C111.477 30.0853 110.965 30.208 110.421 30.208ZM110.837 29.024C111.253 29.024 111.648 28.928 112.021 28.736C112.405 28.544 112.805 28.2613 113.221 27.888V25.472C112.251 25.5787 111.477 25.7333 110.901 25.936C110.325 26.128 109.915 26.368 109.669 26.656C109.424 26.9333 109.301 27.264 109.301 27.648C109.301 28.1493 109.451 28.5067 109.749 28.72C110.048 28.9227 110.411 29.024 110.837 29.024ZM118.493 30L116.077 21.312H117.565L118.861 26.336C118.957 26.752 119.042 27.1573 119.117 27.552C119.202 27.9467 119.288 28.3467 119.373 28.752H119.453C119.549 28.3467 119.64 27.9467 119.725 27.552C119.821 27.1573 119.922 26.752 120.029 26.336L121.389 21.312H122.813L124.173 26.336C124.28 26.752 124.381 27.1573 124.477 27.552C124.584 27.9467 124.685 28.3467 124.781 28.752H124.861C124.946 28.3467 125.032 27.9467 125.117 27.552C125.202 27.1573 125.293 26.752 125.389 26.336L126.653 21.312H128.061L125.709 30H123.933L122.685 25.312C122.578 24.9067 122.477 24.5013 122.381 24.096C122.285 23.68 122.189 23.2533 122.093 22.816H122.013C121.917 23.2533 121.821 23.68 121.725 24.096C121.64 24.512 121.538 24.928 121.421 25.344L120.189 30H118.493Z" fill="black"/>
</svg>
