<svg width="43" height="15" viewBox="0 0 43 15" fill="none" xmlns="http://www.w3.org/2000/svg">
<path d="M0.288047 0.880655H14.208V1.96866H0.288047V0.880655ZM6.72005 1.34466H7.96805V7.55266C7.96805 8.17132 7.92005 8.77399 7.82405 9.36066C7.72805 9.93666 7.54138 10.4913 7.26405 11.0247C6.98671 11.558 6.58138 12.0593 6.04805 12.5287C5.51471 12.998 4.81071 13.4193 3.93605 13.7927C3.07205 14.166 2.00005 14.4913 0.720047 14.7687C0.67738 14.6727 0.61338 14.5607 0.528047 14.4327C0.442714 14.3047 0.352047 14.1713 0.256047 14.0327C0.170714 13.9047 0.0853803 13.798 4.69089e-05 13.7127C1.24805 13.478 2.28271 13.2007 3.10405 12.8807C3.92538 12.5607 4.57605 12.2033 5.05605 11.8087C5.54671 11.4033 5.90938 10.9767 6.14405 10.5287C6.37871 10.07 6.53338 9.58999 6.60805 9.08866C6.68271 8.58732 6.72005 8.06999 6.72005 7.53666V1.34466ZM2.89605 6.89666V8.52866H12.016V6.89666H2.89605ZM2.89605 4.33666V5.93666H12.016V4.33666H2.89605ZM1.74405 3.32866H13.216V9.52066H1.74405V3.32866ZM3.28005 9.66466C3.79205 10.454 4.40538 11.094 5.12005 11.5847C5.83471 12.0753 6.66138 12.454 7.60005 12.7207C8.54938 12.9873 9.61605 13.1793 10.8 13.2967C11.984 13.4033 13.3014 13.478 14.752 13.5207C14.6454 13.6593 14.5387 13.8407 14.432 14.0647C14.336 14.2887 14.272 14.502 14.24 14.7047C12.7574 14.6407 11.4027 14.5287 10.176 14.3687C8.94938 14.2193 7.84005 13.9793 6.84805 13.6487C5.85605 13.3287 4.97605 12.8807 4.20805 12.3047C3.44005 11.7287 2.78938 10.9873 2.25605 10.0807L3.28005 9.66466ZM19.696 4.28866L20.576 3.66466C21.0134 3.90999 21.4667 4.20866 21.936 4.56066C22.4054 4.90199 22.7734 5.21132 23.04 5.48866L22.096 6.17666C21.936 5.98466 21.7227 5.77666 21.456 5.55266C21.1894 5.31799 20.9014 5.09399 20.592 4.88066C20.2827 4.65666 19.984 4.45932 19.696 4.28866ZM26.416 1.42466H26.672L26.88 1.37666L27.664 1.85666C27.152 2.75266 26.4907 3.55799 25.68 4.27266C24.88 4.98732 23.9894 5.61666 23.008 6.16066C22.0267 6.70466 20.9974 7.16866 19.92 7.55266C18.8534 7.92599 17.7974 8.22466 16.752 8.44866C16.6987 8.28866 16.6134 8.10199 16.496 7.88866C16.3894 7.67532 16.2827 7.50466 16.176 7.37666C17.168 7.19532 18.176 6.93932 19.2 6.60866C20.224 6.26732 21.2054 5.85666 22.144 5.37666C23.0827 4.88599 23.92 4.32599 24.656 3.69666C25.4027 3.06732 25.9894 2.37399 26.416 1.61666V1.42466ZM21.072 1.42466H26.64V2.51266H21.072V1.42466ZM22.224 0.000655174L23.552 0.288655C22.8587 1.12066 22.016 1.93132 21.024 2.72066C20.032 3.49932 18.8694 4.19799 17.536 4.81666C17.4827 4.72066 17.4027 4.61932 17.296 4.51266C17.2 4.40599 17.0987 4.30466 16.992 4.20866C16.896 4.10199 16.8 4.02199 16.704 3.96866C17.5574 3.60599 18.336 3.20599 19.04 2.76866C19.7547 2.32066 20.3787 1.86199 20.912 1.39266C21.456 0.912656 21.8934 0.448656 22.224 0.000655174ZM21.936 10.1767L22.928 9.60066C23.2054 9.79266 23.4987 10.0113 23.808 10.2567C24.1174 10.4913 24.4054 10.7313 24.672 10.9767C24.9494 11.222 25.1787 11.446 25.36 11.6487L24.288 12.3047C24.1387 12.102 23.9307 11.878 23.664 11.6327C23.408 11.3767 23.1254 11.1207 22.816 10.8647C22.5174 10.6087 22.224 10.3793 21.936 10.1767ZM28.752 7.07266H29.008L29.232 7.00866L30.032 7.50466C29.4774 8.68866 28.7307 9.70732 27.792 10.5607C26.864 11.4033 25.8027 12.1073 24.608 12.6727C23.424 13.238 22.1494 13.686 20.784 14.0167C19.4294 14.358 18.0427 14.614 16.624 14.7847C16.6027 14.6673 16.5654 14.534 16.512 14.3847C16.4587 14.246 16.4 14.1073 16.336 13.9687C16.272 13.83 16.2027 13.7127 16.128 13.6167C17.4827 13.4887 18.8107 13.2807 20.112 12.9927C21.4134 12.694 22.6294 12.294 23.76 11.7927C24.8907 11.2807 25.8827 10.6567 26.736 9.92066C27.6 9.17399 28.272 8.28866 28.752 7.26466V7.07266ZM23.712 7.07266H29.04V8.16066H23.712V7.07266ZM24.832 5.58466L26.16 5.87266C25.6587 6.52332 25.056 7.15799 24.352 7.77666C23.648 8.39532 22.8427 8.98199 21.936 9.53666C21.0294 10.0807 20.0107 10.5767 18.88 11.0247C18.8374 10.9287 18.768 10.8273 18.672 10.7207C18.5867 10.6033 18.496 10.4913 18.4 10.3847C18.304 10.278 18.2134 10.1873 18.128 10.1127C19.2054 9.71799 20.176 9.27532 21.04 8.78466C21.9147 8.28332 22.6667 7.76066 23.296 7.21666C23.936 6.66199 24.448 6.11799 24.832 5.58466ZM32.832 13.6807C32.544 13.6807 32.2934 13.5793 32.08 13.3767C31.8774 13.1633 31.776 12.8967 31.776 12.5767C31.776 12.2353 31.8774 11.9633 32.08 11.7607C32.2934 11.558 32.544 11.4567 32.832 11.4567C33.12 11.4567 33.3654 11.558 33.568 11.7607C33.7814 11.9633 33.888 12.2353 33.888 12.5767C33.888 12.8967 33.7814 13.1633 33.568 13.3767C33.3654 13.5793 33.12 13.6807 32.832 13.6807ZM36.9652 13.6807C36.6772 13.6807 36.4265 13.5793 36.2132 13.3767C36.0105 13.1633 35.9092 12.8967 35.9092 12.5767C35.9092 12.2353 36.0105 11.9633 36.2132 11.7607C36.4265 11.558 36.6772 11.4567 36.9652 11.4567C37.2532 11.4567 37.4985 11.558 37.7012 11.7607C37.9145 11.9633 38.0212 12.2353 38.0212 12.5767C38.0212 12.8967 37.9145 13.1633 37.7012 13.3767C37.4985 13.5793 37.2532 13.6807 36.9652 13.6807ZM41.0983 13.6807C40.8103 13.6807 40.5596 13.5793 40.3463 13.3767C40.1436 13.1633 40.0423 12.8967 40.0423 12.5767C40.0423 12.2353 40.1436 11.9633 40.3463 11.7607C40.5596 11.558 40.8103 11.4567 41.0983 11.4567C41.3863 11.4567 41.6316 11.558 41.8343 11.7607C42.0476 11.9633 42.1543 12.2353 42.1543 12.5767C42.1543 12.8967 42.0476 13.1633 41.8343 13.3767C41.6316 13.5793 41.3863 13.6807 41.0983 13.6807Z" fill="black"/>
</svg>
